<?xml version="1.0" encoding="UTF-8" standalone="no"?>
<svg
   xmlns:dc="http://purl.org/dc/elements/1.1/"
   xmlns:cc="http://creativecommons.org/ns#"
   xmlns:rdf="http://www.w3.org/1999/02/22-rdf-syntax-ns#"
   xmlns:svg="http://www.w3.org/2000/svg"
   xmlns="http://www.w3.org/2000/svg"
   xmlns:sodipodi="http://sodipodi.sourceforge.net/DTD/sodipodi-0.dtd"
   xmlns:inkscape="http://www.inkscape.org/namespaces/inkscape"
   width="700"
   height="700"
   viewBox="0 0 700 700"
   version="1.1"
   id="svg24"
   sodipodi:docname="betis-logo.svg"
   style="fill:none"
   inkscape:version="0.92.0 r15299"
   inkscape:export-filename="C:\Users\suitedoalex\sites\real-betis-logo-0.png"
   inkscape:export-xdpi="561.73712"
   inkscape:export-ydpi="561.73712">
  <metadata
     id="metadata30">
    <rdf:RDF>
      <cc:Work
         rdf:about="">
        <dc:format>image/svg+xml</dc:format>
        <dc:type
           rdf:resource="http://purl.org/dc/dcmitype/StillImage" />
        <dc:title></dc:title>
      </cc:Work>
    </rdf:RDF>
  </metadata>
  <defs
     id="defs28" />
  <sodipodi:namedview
     pagecolor="#ffffff"
     bordercolor="#666666"
     borderopacity="1"
     objecttolerance="10"
     gridtolerance="10"
     guidetolerance="10"
     inkscape:pageopacity="0"
     inkscape:pageshadow="2"
     inkscape:window-width="1920"
     inkscape:window-height="1017"
     id="namedview26"
     showgrid="false"
     inkscape:zoom="0.22366681"
     inkscape:cx="877.57734"
     inkscape:cy="198.58175"
     inkscape:window-x="-8"
     inkscape:window-y="-8"
     inkscape:window-maximized="1"
     inkscape:current-layer="svg24" />
  <path
     d="m 142.79829,352.09628 37.67228,38.20706 v -76.42432 h -37.67228 z m 376.72121,38.20706 37.67243,-38.20706 V 313.87902 H 519.5195 Z M 249.6183,377.305 c 0,-12.36441 2.19461,-24.21708 6.20704,-35.17102 V 313.8892 h -37.67243 v 114.63138 l 37.67243,38.20708 v -54.2402 c -4.01243,-10.95394 -6.20704,-22.80788 -6.20704,-35.17228 z m 43.86799,127.62972 V 461.1584 c 11.14998,7.68494 23.91537,13.15109 37.67242,15.78742 v 66.19597 z m 75.34484,-27.99908 v 66.21632 l 37.6724,-38.20705 v -43.85782 c -11.14869,7.70533 -23.91536,13.20203 -37.6724,15.84855 z m 75.34482,-134.49487 v -28.56175 h 37.67242 v 114.64156 l -37.67242,38.20708 V 412.1705 c 3.93222,-10.87121 6.08482,-22.61312 6.08482,-34.86424 0,-12.25237 -2.1526,-23.99303 -6.08482,-34.86549 z"
     id="path2"
     inkscape:connector-curvature="0"
     style="clip-rule:evenodd;fill:#008835;fill-rule:evenodd;stroke-width:12.72974873"
     inkscape:export-filename="C:\Users\suitedoalex\sites\real-betis-logo-4.png"
     inkscape:export-xdpi="72.032692"
     inkscape:export-ydpi="72.032692" />
  <path
     d="m 142.79789,352.09628 -37.66196,-38.21726 h 37.66196 z m 75.34355,76.41413 -37.67176,-38.20707 v -76.42432 h 37.67176 z m 263.70566,0 37.6724,-38.20707 v -76.42432 h -37.6724 z m 75.34483,-76.41413 v -38.21726 h 37.67115 z M 255.81515,466.72766 v -54.2402 c 7.28777,19.91571 20.58911,36.88955 37.67115,48.67094 v 43.77632 z m 94.12375,11.99651 c -6.41833,0 -12.69537,-0.61358 -18.78019,-1.77835 v 66.19597 l 18.83111,19.10863 18.83111,-19.10863 v -66.22653 c -6.11536,1.17496 -12.43314,1.80891 -18.89221,1.80891 z m 78.27522,-164.84515 h 15.96058 v 28.56175 c -3.78074,-10.43331 -9.20871,-20.05955 -15.96058,-28.56175 z m -21.71184,147.1979 v 43.8578 l 37.67242,-38.20706 v -54.55589 c -7.24706,20.00735 -20.54966,37.07158 -37.67242,48.90515 z M 255.81387,342.12379 v -28.24477 h 15.83963 c -6.68185,8.42073 -12.06908,17.93367 -15.83963,28.24477 z"
     id="path4"
     inkscape:connector-curvature="0"
     style="clip-rule:evenodd;fill:#ffffff;fill-rule:evenodd;stroke-width:12.72974873"
     inkscape:export-filename="C:\Users\suitedoalex\sites\real-betis-logo-4.png"
     inkscape:export-xdpi="72.032692"
     inkscape:export-ydpi="72.032692" />
  <path
     d="m 349.93889,284.98123 c 50.35762,0 91.32577,41.41622 91.32577,92.32503 0,50.90753 -40.96816,92.32378 -91.32577,92.32378 -50.3576,0 -91.32448,-41.41625 -91.32448,-92.32378 0,-50.90881 40.96688,-92.32503 91.32448,-92.32503 z"
     id="path6"
     inkscape:connector-curvature="0"
     style="fill:#ffffff;stroke-width:12.72974873"
     inkscape:export-filename="C:\Users\suitedoalex\sites\real-betis-logo-4.png"
     inkscape:export-xdpi="72.032692"
     inkscape:export-ydpi="72.032692" />
  <path
     d="m 420.05817,304.78488 c 2.89985,2.86166 5.61892,5.89643 8.15595,9.09414 H 594.86308 L 350.00001,562.25042 105.1358,313.87902 h 166.5177 c 2.53703,-3.19771 5.2663,-6.23248 8.15722,-9.09414 H 83.454355 L 350.00001,575.13547 616.54564,304.78488 H 420.0671 Z"
     id="path8"
     inkscape:connector-curvature="0"
     style="fill:#cf8a00;stroke-width:12.72974873"
     inkscape:export-filename="C:\Users\suitedoalex\sites\real-betis-logo-4.png"
     inkscape:export-xdpi="72.032692"
     inkscape:export-ydpi="72.032692" />
  <path
     d="m 349.93889,284.98123 c 50.35762,0 91.3245,41.41622 91.3245,92.32377 0,50.90879 -40.96688,92.32504 -91.32449,92.32504 -50.3576,0 -91.32448,-41.41625 -91.32448,-92.32504 0,-50.90755 40.96688,-92.32377 91.32447,-92.32377 z m 0,-9.09414 c -55.41131,0 -100.3206,45.41083 -100.3206,101.41791 0,56.00834 44.91947,101.41917 100.3206,101.41917 55.40114,0 100.32061,-45.41083 100.32061,-101.41917 0,-56.00708 -44.90929,-101.41791 -100.32061,-101.41791 z"
     id="path10"
     inkscape:connector-curvature="0"
     style="fill:#cf8a00;stroke-width:12.72974873"
     inkscape:export-filename="C:\Users\suitedoalex\sites\real-betis-logo-4.png"
     inkscape:export-xdpi="72.032692"
     inkscape:export-ydpi="72.032692" />
  <path
     d="m 409.50013,357.29001 h 3.81891 v -5.19883 h -3.81891 v -5.88879 c 0,-11.89212 -9.64153,-21.56163 -21.5082,-21.56163 h -11.39182 v -4.14609 c 0,-9.98267 -8.03503,-18.10552 -17.9095,-18.10552 h -33.26027 v 12.99708 h 3.83165 v 9.25453 h -35.53638 v 12.99706 h 3.83166 v 13.91998 h -3.96022 v 5.19884 h 3.96022 v 14.03708 h -3.83166 v 12.99708 h 3.83166 v 14.03709 h -3.96022 v 5.2001 h 3.96022 v 13.91999 h -3.83166 v 12.99706 h 35.53638 v 9.29272 h -3.83165 v 12.99707 h 33.26027 c 9.87447,0 17.90949,-8.12284 17.90949,-18.09152 v -4.18554 h 11.39183 c 11.85267,0 21.50819,-9.66951 21.50819,-21.56291 v -5.3414 h 3.81892 v -5.19884 h -3.81892 v -5.45851 c 0,-5.86205 -2.35246,-11.17799 -6.14464,-15.06439 3.79218,-3.88639 6.14464,-9.20232 6.14464,-15.06437 v -4.91241 z m -21.5082,-19.66491 c 4.76984,0 8.65242,3.84693 8.65242,8.56457 v 5.8875 h -3.56177 v 5.2001 h 3.56177 v 4.91241 c 0,4.73038 -3.88258,8.56586 -8.65242,8.56586 h -12.12507 c 0.47608,-1.62559 0.73324,-3.32756 0.73324,-5.09572 v -28.04873 h 11.39183 z m -24.24889,79.29615 h -21.62403 v -33.10372 h 5.24468 v 3.72983 h 5.1428 v -3.72983 h 6.18412 c 2.79036,0 5.05243,2.28754 5.05243,5.10718 v 28.00926 z m -5.05244,-46.14024 h -6.18412 v -3.69163 h -5.1428 v 3.69163 H 342.119 v -33.14319 h 21.62403 v 28.04873 c 0,2.80691 -2.26207,5.09446 -5.05243,5.09446 z m -16.57159,-55.39478 h 16.57159 c 2.79037,0 5.05244,2.28753 5.05244,5.10844 v 4.14609 h -21.62402 z m -31.7047,41.37041 h 3.41921 v -5.19884 h -3.41921 v -13.91998 h 18.84766 v 33.14319 H 310.41431 V 356.7439 Z m 0,60.17733 v -13.91998 h 3.41921 v -5.19882 h -3.41921 v -14.03711 h 14.64303 v 0.0382 h 4.20463 v 33.10372 h -18.84766 z m 53.32873,17.18262 c 0,2.80818 -2.26207,5.09571 -5.05244,5.09571 h -16.57159 v -9.294 h 21.62403 v 4.18555 z m 32.90131,-31.1026 v 5.34269 c 0,4.73036 -3.88258,8.56457 -8.65242,8.56457 h -11.39182 v -28.00927 c 0,-1.7809 -0.26988,-3.5096 -0.74597,-5.14664 h 12.13779 c 4.76986,0 8.65243,3.84693 8.65243,8.56458 v 5.45979 h -3.56178 v 5.19882 h 3.56178 z"
     id="path12"
     inkscape:connector-curvature="0"
     style="fill:#008835;stroke-width:12.72974873"
     inkscape:export-filename="C:\Users\suitedoalex\sites\real-betis-logo-4.png"
     inkscape:export-xdpi="72.032692"
     inkscape:export-ydpi="72.032692" />
  <path
     d="m 356.42216,213.51604 c 3.21425,2.1316 5.34778,5.79687 5.34778,9.96891 0,1.37775 -0.23042,2.71654 -0.66832,3.93821 -1.26024,3.67826 -4.25556,6.52475 -7.99681,7.56453 0.2444,7.65541 8.70458,13.80285 19.13153,13.80285 7.6493,0 14.21913,-3.31355 17.29208,-8.10999 -3.43322,-2.07966 -5.73475,-5.86179 -5.73475,-10.20302 0,-1.24751 0.19349,-2.45646 0.53974,-3.58724 1.49192,-4.84799 5.96643,-8.37033 11.25056,-8.37033 1.83816,0 3.5605,0.44173 5.10334,1.19533 0.86181,-0.79305 1.65869,-1.59873 2.41738,-2.43048 0.1413,-0.15658 0.2826,-0.31188 0.42392,-0.46846 0.37297,-0.41627 0.72047,-0.83126 1.06802,-1.24751 0.37171,-0.45445 0.73194,-0.92291 1.07947,-1.39073 0.0904,-0.12985 0.19221,-0.25968 0.28261,-0.38953 0.4379,-0.5983 0.84907,-1.20933 1.23477,-1.83257 2.4683,-3.91223 3.9335,-8.08442 4.33194,-12.36059 -15.62066,-8.90318 -34.76367,-14.15408 -55.10326,-15.06387 z"
     id="path14"
     inkscape:connector-curvature="0"
     style="fill:#a32035;stroke-width:12.72974873"
     inkscape:export-filename="C:\Users\suitedoalex\sites\real-betis-logo-4.png"
     inkscape:export-xdpi="72.032692"
     inkscape:export-ydpi="72.032692" />
  <path
     d="m 299.29999,219.72879 c 1.54282,-0.75359 3.27788,-1.19532 5.10333,-1.19532 6.50618,0 11.77757,5.32892 11.77757,11.90561 0,1.63769 -0.32206,3.18436 -0.91273,4.60105 -0.96491,2.35258 -2.67453,4.32811 -4.82202,5.64094 3.06023,4.79644 9.65551,8.12271 17.30482,8.12271 9.11576,0 16.72689,-4.7044 18.65544,-11.00817 0.26986,-0.89618 0.42391,-1.83257 0.45063,-2.79444 -4.98878,-1.37773 -8.66641,-5.99176 -8.66641,-11.47662 0,-1.57277 0.30933,-3.06737 0.84908,-4.44511 0.9,-2.28753 2.48102,-4.2241 4.49997,-5.5629 v -15.97379 h 0.013 v -13.01033 c -20.33959,0.9102 -39.48257,6.16071 -55.11725,15.08999 0.6823,7.25251 4.42359,14.15408 10.8521,20.10688 z"
     id="path16"
     inkscape:connector-curvature="0"
     style="fill:#a32035;stroke-width:12.72974873"
     inkscape:export-filename="C:\Users\suitedoalex\sites\real-betis-logo-4.png"
     inkscape:export-xdpi="72.032692"
     inkscape:export-ydpi="72.032692" />
  <path
     d="m 257.64314,242.11011 c 1.64596,-0.88346 3.5236,-1.3906 5.52853,-1.3906 6.50619,0 11.77756,5.32905 11.77756,11.90523 0,1.31245 -0.20622,2.56123 -0.60467,3.7311 -0.37298,1.14313 -0.91272,2.22262 -1.59375,3.1837 4.79529,4.44524 13.67937,4.67946 21.56036,0.0891 4.96207,-2.89857 8.48564,-7.10957 10.06668,-11.43768 0.70651,-1.96292 1.01583,-3.95131 0.87453,-5.83645 -0.28258,0.0255 -0.56646,0.0382 -0.86178,0.0382 -6.28722,0 -11.41603,-4.99108 -11.75084,-11.26876 -3.44594,-2.93739 -6.3636,-6.13471 -8.82044,-9.5011 -0.0382,-0.0636 -0.0891,-0.11456 -0.12853,-0.18203 -0.44936,-0.62376 -0.92545,-1.24751 -1.33661,-1.89763 h 0.0255 c -2.50649,-3.86016 -4.34465,-7.92833 -5.5018,-12.12661 -11.45551,9.12418 -19.04116,20.08093 -22.16503,31.9476 0.91271,0.94836 1.88908,1.85866 2.93038,2.74237 z"
     id="path18"
     inkscape:connector-curvature="0"
     style="fill:#a32035;stroke-width:12.72974873"
     inkscape:export-filename="C:\Users\suitedoalex\sites\real-betis-logo-4.png"
     inkscape:export-xdpi="72.032692"
     inkscape:export-ydpi="72.032692" />
  <path
     d="m 423.1095,207.43326 c -1.42703,5.18596 -3.92203,10.16393 -7.39343,14.77809 -0.20495,0.27241 -0.41116,0.5461 -0.61613,0.80578 -0.50155,0.6505 -1.02857,1.28673 -1.58231,1.92361 -0.43665,0.50663 -0.88727,1.01327 -1.34936,1.5077 -0.39844,0.429 -0.79689,0.85799 -1.20933,1.27373 -0.46208,0.46847 -0.95091,0.93565 -1.43973,1.40372 -0.23167,0.22149 -0.47481,0.44172 -0.71923,0.66323 -0.48881,0.45444 -0.9649,0.91017 -1.47918,1.35176 -0.0636,1.16987 -0.29534,2.30052 -0.68105,3.36638 -1.62049,4.61402 -5.96517,7.91536 -11.08253,7.91536 -0.2826,0 -0.56519,-0.0255 -0.84908,-0.0382 -0.43662,6.08266 3.7413,13.06238 10.95395,17.27338 7.86826,4.5878 16.72689,4.36757 21.53491,-0.0636 -1.37481,-1.95019 -2.18568,-4.31538 -2.18568,-6.88806 0,-0.83252 0.0904,-1.63832 0.25712,-2.41865 v -0.0509 c 0.0904,-0.37681 0.18077,-0.74088 0.29662,-1.09222 v -0.0255 c 0.10303,-0.32588 0.21767,-0.63776 0.34627,-0.93691 0.0777,-0.18203 0.16803,-0.36279 0.2444,-0.55883 0.0522,-0.0891 0.0904,-0.19476 0.1413,-0.28514 1.92856,-3.89951 5.91424,-6.57696 10.53005,-6.57696 1.99348,0 3.88258,0.50664 5.52852,1.39073 1.04131,-0.88344 2.01895,-1.79362 2.93166,-2.7425 -3.12386,-11.86655 -10.70954,-22.82342 -22.16504,-31.94746 z"
     id="path20"
     inkscape:connector-curvature="0"
     style="fill:#a32035;stroke-width:12.72974873"
     inkscape:export-filename="C:\Users\suitedoalex\sites\real-betis-logo-4.png"
     inkscape:export-xdpi="72.032692"
     inkscape:export-ydpi="72.032692" />
  <path
     d="m 466.82854,219.41373 c 0,-23.94109 -21.70167,-43.74909 -50.92535,-46.95952 -3.65089,-4.88696 -8.39527,-9.37101 -14.18095,-13.30922 -12.36822,-8.40927 -28.25876,-13.45229 -45.30644,-14.46609 v -6.88858 h 7.7906 v -12.99745 h -7.7906 v -7.92834 h -12.85705 v 7.92834 h -7.79187 v 12.99745 h 7.79187 v 6.88858 c -17.04766,1.01329 -32.93949,6.05682 -45.30771,14.46609 -5.78568,3.93821 -10.52877,8.42226 -14.18095,13.30922 -29.24913,3.21043 -50.91261,22.95338 -50.91261,46.95952 0,13.17936 6.60927,25.43568 18.29518,34.33888 0.55375,6.0568 5.58073,10.81392 11.72538,10.81392 1.15712,0 2.27607,-0.18204 3.34283,-0.49392 l 18.95078,23.10959 c 17.43337,-14.85563 39.93322,-23.825 64.52836,-23.825 24.59514,0 47.09371,8.96937 64.5271,23.825 l 18.95077,-23.10959 c 1.0553,0.31188 2.1857,0.49392 3.34283,0.49392 6.13319,0 11.1729,-4.74438 11.72536,-10.80119 11.69992,-8.90319 18.29521,-21.14628 18.29521,-34.35161 z m -172.511,40.25311 c -7.88099,4.60053 -16.76507,4.36631 -21.56037,-0.0891 1.37481,-1.94892 2.19842,-4.32811 2.19842,-6.9148 0,-6.57619 -5.27138,-11.90498 -11.77755,-11.90498 -1.99221,0 -3.88257,0.50663 -5.52853,1.39072 -7.4571,-6.2647 -11.63499,-14.29717 -11.63499,-22.7324 0,-14.72602 12.86977,-27.61936 30.84291,-32.41541 -0.91273,3.34028 -1.38756,6.78456 -1.38756,10.28092 0,12.47745 6.17012,24.448 17.18899,33.84509 0.33352,6.27779 5.45087,11.26876 11.75083,11.26876 0.29533,0 0.5792,-0.0255 0.8618,-0.0382 0.46209,6.09526 -3.71582,13.1017 -10.95395,17.32544 z m 33.43977,-10.82664 c -7.66203,0 -14.25731,-3.3403 -17.31754,-8.14985 3.43193,-2.07953 5.74621,-5.87478 5.74621,-10.21587 0,-6.5767 -5.27012,-11.90563 -11.77629,-11.90563 -1.83818,0 -3.56178,0.44172 -5.10463,1.19533 -7.12229,-6.60267 -10.96667,-14.37507 -10.96667,-22.48544 0,-20.54887 24.24762,-37.49739 55.23309,-39.57704 v 55.84972 c -3.21425,2.1316 -5.34903,5.79675 -5.34903,9.96892 0,5.48487 3.67761,10.09903 8.66642,11.47676 -0.21897,7.66841 -8.69189,13.84258 -19.13156,13.84258 z m 44.47138,0 c -10.43967,0 -18.91259,-6.17419 -19.13026,-13.84258 4.98751,-1.37775 8.66514,-5.99189 8.66514,-11.47677 0,-4.17217 -2.13478,-7.8503 -5.34777,-9.96892 V 157.7022 c 30.99693,2.07966 55.23183,19.04115 55.23183,39.57704 0,8.11037 -3.84438,15.86979 -10.96668,22.48545 -1.54285,-0.75361 -3.27918,-1.19533 -5.10463,-1.19533 -6.50489,0 -11.77629,5.32892 -11.77629,11.90563 0,4.34109 2.31427,8.13634 5.74749,10.21588 -3.06023,4.80955 -9.65552,8.14983 -17.31883,8.14983 z m 52.803,3.82019 c 0,2.58669 0.82234,4.96588 2.19843,6.9148 -4.7953,4.45796 -13.67939,4.69218 -21.56037,0.0891 -7.23942,-4.22499 -11.41732,-11.23017 -10.95395,-17.32581 0.28259,0.0255 0.56519,0.0382 0.86052,0.0382 6.28723,0 11.41731,-4.99108 11.75083,-11.26876 11.00614,-9.3971 17.19026,-21.36764 17.19026,-33.84509 0,-3.49636 -0.47609,-6.94064 -1.38882,-10.28093 17.9604,4.80905 30.84291,17.74132 30.84291,32.41541 0,8.43525 -4.1779,16.46759 -11.63499,22.73241 -1.64595,-0.88344 -3.53505,-1.39072 -5.52853,-1.39072 -6.5049,0 -11.77629,5.32904 -11.77629,11.90524 z"
     id="path22"
     inkscape:connector-curvature="0"
     style="fill:#cf8a00;stroke-width:12.72974873"
     inkscape:export-filename="C:\Users\suitedoalex\sites\real-betis-logo-4.png"
     inkscape:export-xdpi="72.032692"
     inkscape:export-ydpi="72.032692" />
</svg>
