<?xml version="1.0" encoding="UTF-8" standalone="no"?>
<svg
   xmlns:dc="http://purl.org/dc/elements/1.1/"
   xmlns:cc="http://creativecommons.org/ns#"
   xmlns:rdf="http://www.w3.org/1999/02/22-rdf-syntax-ns#"
   xmlns:svg="http://www.w3.org/2000/svg"
   xmlns="http://www.w3.org/2000/svg"
   xmlns:sodipodi="http://sodipodi.sourceforge.net/DTD/sodipodi-0.dtd"
   xmlns:inkscape="http://www.inkscape.org/namespaces/inkscape"
   enable-background="new 0 0 806.29 577.93"
   height="700"
   viewBox="160.29 46.04 1075.2092 1075.4749"
   width="700"
   version="1.1"
   id="svg108"
   sodipodi:docname="girona-fc-logo.svg"
   inkscape:version="0.92.0 r15299"
   inkscape:export-filename="C:\Users\suitedoalex\sites\girona-fc-logo-0.png"
   inkscape:export-xdpi="561.73712"
   inkscape:export-ydpi="561.73712">
  <metadata
     id="metadata114">
    <rdf:RDF>
      <cc:Work
         rdf:about="">
        <dc:format>image/svg+xml</dc:format>
        <dc:type
           rdf:resource="http://purl.org/dc/dcmitype/StillImage" />
        <dc:title></dc:title>
      </cc:Work>
    </rdf:RDF>
  </metadata>
  <defs
     id="defs112" />
  <sodipodi:namedview
     pagecolor="#ffffff"
     bordercolor="#666666"
     borderopacity="1"
     objecttolerance="10"
     gridtolerance="10"
     guidetolerance="10"
     inkscape:pageopacity="0"
     inkscape:pageshadow="2"
     inkscape:window-width="1920"
     inkscape:window-height="1017"
     id="namedview110"
     showgrid="false"
     inkscape:zoom="0.74629756"
     inkscape:cx="237.32149"
     inkscape:cy="326.99029"
     inkscape:window-x="-8"
     inkscape:window-y="-8"
     inkscape:window-maximized="1"
     inkscape:current-layer="svg108" />
  <path
     d="m 708.21797,220.74852 c 15.35853,-2.62424 32.1974,2.42237 42.61025,14.19781 15.50992,16.92298 14.68564,45.65503 -1.49717,61.83784 -16.97344,18.01642 -48.78393,17.83137 -65.85831,0.16822 -14.02959,-13.87818 -16.51925,-37.1599 -6.84658,-54.16699 6.61107,-11.79225 18.25193,-19.90048 31.59181,-22.03688 z M 707.932,235.5351 c -21.29672,5.88772 -27.6891,36.21787 -12.53243,51.45864 9.92501,10.79976 28.36197,11.96048 39.51499,2.38873 12.80158,-10.59789 14.45014,-31.60862 3.98682,-44.39338 -7.48581,-9.08391 -19.68179,-12.8184 -30.96938,-9.45399 z"
     id="path2"
     inkscape:connector-curvature="0"
     style="fill:#ffffff;stroke-width:1.68220472"
     inkscape:export-filename="C:\Users\suitedoalex\sites\girona-fc-logo-3.png"
     inkscape:export-xdpi="72.203423"
     inkscape:export-ydpi="72.203423" />
  <path
     d="m 609.69124,231.58192 c 8.19233,-2.17005 17.14166,-3.26348 25.23307,-0.23551 15.84637,5.75314 21.95277,28.47973 11.33806,41.48317 -2.67471,2.99432 -5.65221,5.70267 -8.89886,8.05776 10.39602,8.41102 20.52289,17.15849 30.70023,25.85549 -5.93818,1.5308 -11.87636,3.04479 -17.81455,4.54195 -9.45399,-8.04094 -18.79022,-16.19963 -28.34515,-24.12282 -6.02229,1.61492 -12.0614,3.16255 -18.11734,4.62607 2.2878,9.85772 4.91204,19.63133 7.41852,29.43858 -5.02979,1.31212 -10.07641,2.57377 -15.13984,3.80178 -7.14937,-28.12646 -14.23145,-56.26975 -21.53222,-84.36257 11.60721,-3.19619 23.38264,-5.97182 35.15808,-9.0839 z m -16.36786,18.60518 c 1.96818,9.50446 4.727,18.80705 6.91387,28.26104 7.65403,-1.88407 15.32488,-3.68403 22.91163,-5.85407 4.94568,-1.42987 9.82407,-4.45784 11.91,-9.35306 3.44852,-8.22598 -2.54012,-19.379 -12.01094,-19.16031 -10.27827,0.10093 -19.81637,4.45784 -29.79184,6.14005 z"
     id="path4"
     inkscape:connector-curvature="0"
     style="fill:#ffffff;stroke-width:1.68220472"
     inkscape:export-filename="C:\Users\suitedoalex\sites\girona-fc-logo-3.png"
     inkscape:export-xdpi="72.203423"
     inkscape:export-ydpi="72.203423" />
  <path
     d="m 798.23275,233.26412 13.17166,5.33259 c 7.2503,24.00506 12.91933,48.51479 20.92663,72.33481 7.5531,-18.2351 14.5006,-36.70571 22.47425,-54.75577 4.59242,1.96818 9.23531,3.85225 13.86137,5.75314 -10.85022,26.91528 -21.86866,53.83055 -32.66842,80.74583 -4.10458,-1.49716 -8.15869,-3.09526 -12.17916,-4.82793 -7.11572,-24.91345 -13.69315,-50.01194 -21.27989,-74.79082 -7.53628,19.00891 -15.32488,37.91689 -22.97892,56.87534 -4.71017,-1.88407 -9.42034,-3.80178 -14.11369,-5.76996 10.86704,-27.01621 21.80137,-53.98195 32.78617,-80.89723 z"
     id="path6"
     inkscape:connector-curvature="0"
     style="fill:#ffffff;stroke-width:1.68220472"
     inkscape:export-filename="C:\Users\suitedoalex\sites\girona-fc-logo-3.png"
     inkscape:export-xdpi="72.203423"
     inkscape:export-ydpi="72.203423" />
  <path
     d="m 524.18477,264.72135 c 4.55877,-2.35509 9.11755,-4.71017 13.64268,-7.11572 13.62586,25.72091 26.81434,51.69415 40.10376,77.6001 l -13.6595,7.08208 c -13.45764,-25.85548 -26.81435,-51.71097 -40.08694,-77.56646 z"
     id="path8"
     inkscape:connector-curvature="0"
     style="fill:#ffffff;stroke-width:1.68220472"
     inkscape:export-filename="C:\Users\suitedoalex\sites\girona-fc-logo-3.png"
     inkscape:export-xdpi="72.203423"
     inkscape:export-ydpi="72.203423" />
  <path
     d="m 445.70992,337.45989 c 1.11025,-24.67795 24.66112,-44.67936 48.86805,-44.51114 0,5.04661 0.13457,10.09323 0.35326,15.13984 -13.45764,0.1514 -27.85731,7.45217 -32.41609,20.77523 -6.82975,19.59768 10.71565,42.50931 31.25537,41.7355 14.31556,-0.67288 26.15828,-12.667 29.58998,-26.14146 -3.59992,-3.86907 -7.04844,-7.87272 -10.36238,-12.02777 -5.95501,4.54196 -11.38853,9.70632 -17.17531,14.48379 -2.96068,-3.36441 -5.90454,-6.88022 -8.74747,-10.41285 9.52128,-7.92319 18.72294,-16.21646 28.17693,-24.22375 7.72132,9.62221 16.9398,18.26874 23.78638,28.42926 -3.16255,23.16396 -23.07985,44.37656 -47.10174,45.26813 -25.45175,0.9925 -47.97648,-23.33218 -46.22698,-48.51478 z"
     id="path10"
     inkscape:connector-curvature="0"
     style="fill:#ffffff;stroke-width:1.68220472"
     inkscape:export-filename="C:\Users\suitedoalex\sites\girona-fc-logo-3.png"
     inkscape:export-xdpi="72.203423"
     inkscape:export-ydpi="72.203423" />
  <path
     d="m 846.88211,347.90638 c 29.10214,-13.25578 58.10335,-26.73024 87.25596,-39.88508 3.46534,3.19619 6.99797,6.34191 10.5306,9.47082 -9.82407,30.27968 -19.95095,60.55937 -29.7582,90.83905 -4.37373,-3.26348 -8.41102,-6.99797 -12.36421,-10.64835 2.42238,-7.19984 4.94569,-14.38285 7.38488,-21.58269 -10.09323,-9.06708 -20.33785,-17.89866 -30.19557,-27.16761 -7.18302,2.80928 -14.01277,6.4092 -21.02756,9.58857 -4.00365,-3.48216 -7.94001,-7.03162 -11.8259,-10.61471 z m 46.02512,-5.55128 c 7.2503,6.72882 14.63518,13.15484 21.96959,19.71544 3.93636,-11.77543 7.90637,-23.55087 11.77544,-35.4777 -11.2876,5.21484 -22.55837,10.46332 -33.7955,15.76226 z"
     id="path12"
     inkscape:connector-curvature="0"
     style="fill:#ffffff;stroke-width:1.68220472"
     inkscape:export-filename="C:\Users\suitedoalex\sites\girona-fc-logo-3.png"
     inkscape:export-xdpi="72.203423"
     inkscape:export-ydpi="72.203423" />
  <path
     d="M 666.06192,328.51056 C 807.09797,311.23431 935.43337,411.57783 952.70961,552.61387 969.98585,693.64992 869.64234,821.98537 728.60629,839.26162 587.57024,856.53786 459.23484,756.19429 441.9586,615.15825 434.28775,552.4793 449.93225,489.14429 485.93143,437.24827 526.99405,377.69822 594.0972,336.82065 666.06192,328.51056 Z m -51.32407,26.46108 c -1.73267,0.63923 -3.2803,1.6822 -4.54195,3.02797 -44.56161,44.59524 -89.14003,89.15685 -133.73528,133.71845 -2.9775,3.17937 -6.89704,5.88772 -8.17552,10.26145 -9.15119,26.00689 -13.89501,53.34271 -14.06323,80.91405 80.81312,-80.74583 161.55895,-161.49166 242.23749,-242.23749 -27.85731,0.0841 -55.49594,4.91204 -81.72151,14.31557 z m 117.21603,20.18645 c 11.77543,11.32124 23.06303,23.2649 34.93939,34.55249 13.62586,-14.28192 27.94142,-27.87413 41.66821,-42.05512 -15.91365,-8.19234 -32.65159,-14.66882 -49.92783,-19.31171 -8.89887,8.88204 -17.93231,17.67997 -26.61248,26.83117 z m -60.29022,10.79976 v 0.31962 c -16.48561,15.86319 -32.41609,32.31515 -48.66618,48.41385 -16.97345,16.67065 -33.7955,33.4927 -50.46615,50.46614 -16.26692,16.35103 -32.65159,32.56749 -48.78393,48.95216 -16.67065,16.13235 -32.803,32.81982 -49.35589,49.06992 16.18281,16.70429 32.78617,33.02167 49.2886,49.42317 16.50243,16.4015 32.48337,32.80299 49.03627,48.88487 16.4856,17.07438 33.49269,33.6441 50.2811,50.46614 16.58654,16.4015 32.70206,33.32448 49.72597,49.2886 7.5531,8.79799 16.35103,16.53613 24.40879,24.89668 8.41102,-8.29326 16.67065,-16.82204 25.23307,-25.01443 v -0.35326 c 14.70247,-14.21463 28.9171,-28.9171 43.50182,-43.24949 2.15322,-1.88407 4.07093,-4.05411 5.68585,-6.42602 0,-11.3717 -0.13458,-22.74341 0,-34.09829 -16.4015,0.65606 -32.81982,0.35326 -49.23813,0.21869 -2.33827,0.33644 -5.04662,-0.23551 -7.08209,1.27847 -6.35873,4.59242 -11.77543,10.22781 -17.98277,15.13984 -6.08958,-4.87839 -11.45581,-10.61471 -17.76408,-15.13984 -1.88407,-1.51398 -4.50831,-0.75699 -6.72882,-1.04297 -16.53607,-0.20186 -33.07214,0.37009 -49.57457,-0.35326 -17.15849,-3.1289 -31.28901,-18.95845 -30.54884,-36.70571 0,-57.61551 -0.25233,-115.24784 0.1514,-172.84654 h 30.39744 49.50729 c 0,0 33.07214,0 49.60821,0 h 49.18767 c 10.27827,0.20187 20.57337,-0.28597 30.83481,0.3028 -0.26915,53.03992 0,106.07983 -0.11775,159.11975 -0.1514,9.3867 1.02614,19.27807 -2.92704,28.10964 -5.04661,11.32124 -15.25759,19.49675 -27.40311,21.95277 0,11.40535 -0.1514,22.8107 0.0841,34.21605 17.05755,-16.50243 33.64409,-33.45905 50.46614,-50.2811 16.19963,-16.31739 32.81982,-32.28151 48.64936,-48.95216 16.68747,-15.82955 32.68524,-32.36562 48.91852,-48.64936 -16.35103,-16.19963 -32.43291,-32.6516 -48.91852,-48.78394 -16.4856,-16.13234 -32.51702,-32.68524 -48.95216,-48.78394 -16.51925,-17.17531 -33.50951,-33.96371 -50.55025,-50.63436 -16.28374,-16.51925 -32.85346,-32.76935 -49.17084,-49.25496 -8.29327,-8.52878 -16.82205,-16.82204 -25.23308,-25.23307 -8.52877,8.36056 -17.00709,16.7884 -25.43493,25.30036 z m 129.79892,58.23793 c 11.32124,11.77543 23.23125,23.11349 34.58613,34.92257 16.65383,-16.18281 32.8871,-32.80299 49.37271,-49.17085 -10.41285,-12.68382 -22.0537,-24.30786 -34.75435,-34.7207 -16.46879,16.35103 -32.61795,32.8871 -49.20449,48.96898 z m 69.42459,69.55916 c 11.53993,11.62404 23.13032,23.21443 34.77117,34.73753 8.83158,-8.78111 17.56222,-17.66315 26.47791,-26.37697 -4.45785,-17.46128 -10.91751,-34.3338 -19.24443,-50.31474 -14.08005,13.9623 -28.02553,28.00871 -42.05512,41.95418 z M 601.14564,496.00768 c -0.33644,54.73895 0,109.47789 -0.13458,164.21683 -0.47102,14.13052 11.23713,27.31901 25.38447,28.32833 16.26692,0.65606 32.58431,0 48.78394,0.33644 9.50446,-0.52148 15.13984,8.41103 21.86866,13.45764 5.60174,-4.22233 10.24463,-10.00912 16.82205,-12.83522 18.99209,-2.06911 38.28698,0.58877 57.31271,-1.41305 13.07074,-2.75882 22.40697,-14.33239 22.33968,-27.70592 0,-54.75576 0,-109.52835 0,-164.28411 -64.02471,-0.18505 -128.20082,0.0673 -192.37693,-0.10094 z m 96.37351,330.23367 c 27.90777,-0.0505 55.59687,-4.89521 81.8729,-14.29874 2.01865,-0.70652 3.83543,-1.93453 5.24848,-3.53263 45.90737,-46.1261 91.89885,-92.16805 137.94079,-138.10906 1.02615,-0.97568 1.86725,-2.10276 2.50649,-3.36441 10.29509,-26.64612 14.08005,-55.22678 15.40899,-83.58875 -81.09909,80.86358 -161.81127,162.09725 -242.97765,242.89359 z M 462.1787,644.88281 c 4.55878,17.37717 11.03526,34.19922 19.31171,50.16334 14.02959,-14.01276 28.04236,-28.04235 42.05512,-42.05512 -11.57357,-11.59039 -23.16396,-23.16396 -34.75435,-34.75435 z m 46.8494,91.93249 c 10.34556,12.78475 22.00324,24.42561 34.788,34.75435 16.35103,-16.38468 32.71888,-32.75253 49.12038,-49.12038 -11.47264,-11.77544 -23.1135,-23.28172 -34.77117,-34.80482 -16.31739,16.48561 -32.70207,32.87028 -49.13721,49.17085 z m 76.6749,62.24162 c 15.86319,8.46149 32.70206,14.97163 50.1297,19.379 8.697,-8.99979 17.79773,-17.61268 26.41061,-26.69659 -11.50628,-11.52315 -23.09667,-22.96214 -34.50202,-34.58618 -14.18098,13.72679 -27.90777,27.97507 -42.03829,41.83648 z"
     id="path14"
     inkscape:connector-curvature="0"
     style="fill:#ffffff;stroke-width:1.68220472"
     inkscape:export-filename="C:\Users\suitedoalex\sites\girona-fc-logo-3.png"
     inkscape:export-xdpi="72.203423"
     inkscape:export-ydpi="72.203423" />
  <path
     d="m 609.96039,504.53646 h 174.62968 c 0,2.2878 0.18504,4.5756 0.26915,6.8634 -7.33441,-2.2878 -16.51925,1.16072 -18.50425,9.06708 -1.68221,9.72315 0.31962,19.71544 -1.05979,29.47223 -2.38873,7.56992 -11.55675,6.4092 -17.78091,6.14005 -4.18869,0.10093 -7.87272,-2.77564 -8.81475,-6.8634 -1.34576,-9.95865 1.16072,-20.32103 -1.36259,-30.11146 -3.8186,-10.95116 -21.34717,-11.00162 -25.23307,0 -2.79246,10.32873 0.6056,21.41446 -1.90089,31.81049 -2.72517,6.4092 -10.64835,5.46716 -16.31738,5.33259 -4.0373,0.40373 -7.87272,-1.83361 -9.52128,-5.55128 -2.23734,-10.48013 1.19436,-21.6668 -1.98501,-31.96189 -4.23915,-10.69882 -21.49857,-10.24463 -25.23307,0.67288 -2.23733,9.65586 0,19.74909 -1.19436,29.55634 -0.85793,4.4242 -4.86157,7.51946 -9.35306,7.26712 -6.12323,0.26916 -15.13984,1.19437 -17.30989,-6.2578 -1.49716,-9.65585 0.43738,-19.54722 -0.9925,-29.23672 -1.91771,-8.04093 -11.20348,-11.57356 -18.63883,-9.21848 z"
     id="path16"
     inkscape:connector-curvature="0"
     style="fill:#ffffff;stroke-width:1.68220472"
     inkscape:export-filename="C:\Users\suitedoalex\sites\girona-fc-logo-3.png"
     inkscape:export-xdpi="72.203423"
     inkscape:export-ydpi="72.203423" />
  <path
     d="m 609.8931,549.67002 c 6.07276,0.28597 14.61836,-1.76632 17.98277,4.94568 3.04479,10.63153 -1.21119,22.37332 2.4392,32.93757 4.49148,10.5306 21.71726,9.73996 25.09849,-1.26166 2.27098,-9.89136 -0.18504,-20.18645 1.34577,-30.27968 1.17754,-4.34009 5.78678,-6.72882 10.09322,-6.37556 4.64289,0.13458 10.22781,-1.00932 13.9623,2.50649 4.32327,4.03729 2.40556,10.49695 2.82611,15.71179 0.48784,7.67085 -2.01865,16.82205 3.80178,23.09667 6.45967,7.18302 19.95095,4.55878 22.8107,-4.8111 2.08593,-9.6895 0,-19.74909 1.1439,-29.53952 0.9925,-4.22233 4.86157,-7.11573 9.18483,-6.91386 6.03912,-0.25233 14.85387,-1.26166 17.27625,5.98865 1.8336,10.09323 -0.75699,20.48925 1.41305,30.49837 3.36441,10.90069 20.27057,11.96048 24.99756,1.6822 3.83543,-10.5306 -0.45419,-22.28921 2.45602,-33.00485 3.24666,-6.91386 11.85955,-4.91204 17.98277,-5.19802 0.1514,13.45764 0,26.83117 0.0841,40.25516 -7.14937,-2.06911 -15.99777,0.92522 -18.2351,8.5456 -1.93453,9.6895 0,19.71544 -1.09343,29.48905 -1.11026,4.13823 -4.96251,6.94751 -9.23531,6.72882 -6.12322,0.28598 -15.13984,1.16072 -17.34353,-6.32509 -1.54763,-10.00912 0.90839,-20.35467 -1.31212,-30.27968 -3.54945,-11.53993 -22.00324,-11.60722 -25.60315,0 -2.22051,9.90818 0.30279,20.27056 -1.36259,30.27968 -1.37941,4.22234 -5.51763,6.89704 -9.92501,6.42603 -5.63538,0.11775 -13.3567,1.04296 -16.13234,-5.24848 -2.42238,-10.32874 0.87475,-21.33036 -1.8336,-31.60863 -3.56628,-10.88387 -20.72477,-11.40535 -25.08168,-0.87475 -2.99432,9.89137 -0.20186,20.53972 -1.6822,30.70024 -0.9925,4.25598 -4.89522,7.19984 -9.25213,6.98115 -6.05594,0.26915 -14.85387,1.22801 -17.27624,-6.00547 -1.86725,-10.09323 0.77381,-20.48926 -1.39623,-30.49837 -2.40555,-7.46899 -11.15302,-10.32874 -18.2351,-8.22599 0.13458,-13.47446 0.0505,-26.89845 0.10093,-40.32244 z"
     id="path18"
     inkscape:connector-curvature="0"
     style="fill:#ffffff;stroke-width:1.68220472"
     inkscape:export-filename="C:\Users\suitedoalex\sites\girona-fc-logo-3.png"
     inkscape:export-xdpi="72.203423"
     inkscape:export-ydpi="72.203423" />
  <path
     d="m 609.87628,628.27944 c 6.17369,0.21869 15.00527,-1.8336 18.16781,5.24848 2.50649,10.34556 -0.92521,21.44811 1.91771,31.76003 3.80179,10.9848 21.38083,11.03526 25.23308,0.0841 2.57377,-9.79043 0,-20.18646 1.3794,-30.12829 0.85793,-4.74381 5.80361,-7.4017 10.34556,-7.01479 5.68586,-0.18504 13.59222,-0.85793 16.04824,5.70267 1.6822,9.79043 -0.47102,19.90049 1.17754,29.70774 1.74949,6.5606 8.0914,10.81658 14.82022,9.95865 6.10641,-0.70652 10.95116,-5.46716 11.77544,-11.55675 0.82428,-8.84839 -0.25233,-17.74726 0.47101,-26.59565 0.90839,-4.35691 4.84475,-7.38488 9.28577,-7.14937 5.85408,-0.11776 14.08006,-1.37941 16.97345,5.24848 2.77564,10.682 -1.39623,22.37332 2.40555,32.87028 4.59242,10.09323 21.01074,9.3867 24.74524,-1.02615 2.80928,-10.34556 -0.6056,-21.44811 1.91771,-31.84413 3.16254,-7.0148 11.94365,-5.04662 18.11734,-5.28213 0,12.38103 0.13458,24.77888 0,37.17673 0.0168,7.53628 -5.93818,13.72679 -13.45763,13.99594 -17.71362,0.38691 -35.46088,-0.31962 -53.15767,0.37009 -7.88954,0.11775 -14.82023,4.20551 -20.74159,9.03344 -6.42602,-6.03912 -14.9548,-9.33624 -23.76955,-9.20166 -16.73794,-0.35327 -33.4927,0.13457 -50.23064,-0.21869 -7.4017,-0.38691 -13.23895,-6.47649 -13.30624,-13.89501 -0.30279,-12.41467 -0.0505,-24.82934 -0.11775,-37.24402 z"
     id="path20"
     inkscape:connector-curvature="0"
     style="fill:#ffffff;stroke-width:1.68220472"
     inkscape:export-filename="C:\Users\suitedoalex\sites\girona-fc-logo-3.png"
     inkscape:export-xdpi="72.203423"
     inkscape:export-ydpi="72.203423" />
  <path
     d="m 451.36212,821.74986 c 9.90819,-10.86704 20.18646,-21.39764 30.38062,-31.96189 8.0073,7.63721 15.93048,15.37536 24.08918,22.86117 -1.93454,2.33826 -3.93636,4.59242 -5.95501,6.86339 -5.73632,-5.39987 -11.47264,-10.79975 -17.05756,-16.36785 l -6.44284,6.19051 c 4.76064,5.18119 10.09323,9.8409 15.13984,14.73612 -2.10275,2.15322 -4.17187,4.32326 -6.27462,6.47649 -5.04662,-4.77747 -9.97548,-9.60539 -15.13984,-14.28192 -3.91954,4.00364 -7.78861,8.07458 -11.65768,12.14552 z"
     id="path22"
     inkscape:connector-curvature="0"
     style="fill:#ffffff;stroke-width:1.68220472"
     inkscape:export-filename="C:\Users\suitedoalex\sites\girona-fc-logo-3.png"
     inkscape:export-xdpi="72.203423"
     inkscape:export-ydpi="72.203423" />
  <path
     d="m 912.82454,790.39357 c 7.92318,-4.35696 17.79772,3.80178 15.52675,12.41467 9.11754,-4.5756 20.08552,5.82043 15.3417,15.03891 -4.74381,9.21848 -13.62586,14.88751 -20.30421,22.3565 -10.42967,-10.24463 -20.45561,-20.89298 -30.96939,-31.0535 6.61107,-6.37555 12.39785,-14.02959 20.40515,-18.75658 z m -7.38488,17.96594 6.12322,6.40921 c 3.17937,-3.19619 7.0148,-5.98865 9.06709,-10.09323 1.29529,-3.44852 -3.36441,-7.21666 -6.35874,-4.60924 -3.21301,2.47284 -6.15687,5.24847 -8.83157,8.29326 z m 22.81069,2.30463 c -4.05411,2.75881 -7.2503,6.56059 -10.79975,9.90818 2.17004,2.25416 4.40737,4.45784 6.72882,6.64471 3.36441,-3.49899 7.28394,-6.59424 10.09323,-10.63153 2.65788,-3.49899 -2.55696,-8.73065 -6.0223,-5.92136 z"
     id="path24"
     inkscape:connector-curvature="0"
     style="fill:#ffffff;stroke-width:1.68220472"
     inkscape:export-filename="C:\Users\suitedoalex\sites\girona-fc-logo-3.png"
     inkscape:export-xdpi="72.203423"
     inkscape:export-ydpi="72.203423" />
  <path
     d="m 874.25158,823.23021 c 2.67471,-1.9009 5.36623,-3.78497 8.07458,-5.65221 5.04662,7.41852 10.51378,14.61836 15.42582,22.18828 3.61674,5.46716 4.727,13.07073 0.9925,18.7734 -3.78496,5.76997 -9.80725,9.6895 -16.62018,10.79976 -6.35874,0.80746 -12.24645,-3.01115 -15.84637,-7.95683 -5.28212,-7.11573 -10.09323,-14.55107 -15.37535,-21.6668 2.6747,-1.96818 5.36623,-3.90271 8.07458,-5.82043 4.30644,6.12323 8.59607,12.24645 12.85205,18.3865 1.95135,2.60742 3.90271,5.5681 7.06526,6.82975 6.57742,2.4392 14.9548,-5.19801 11.57356,-11.94365 -4.62606,-8.46149 -10.93433,-15.88001 -16.21645,-23.93777 z"
     id="path26"
     inkscape:connector-curvature="0"
     style="fill:#ffffff;stroke-width:1.68220472"
     inkscape:export-filename="C:\Users\suitedoalex\sites\girona-fc-logo-3.png"
     inkscape:export-xdpi="72.203423"
     inkscape:export-ydpi="72.203423" />
  <path
     d="m 514.07472,819.63029 8.15869,5.53445 c -5.18119,8.15869 -11.50628,15.61086 -15.96412,24.20693 -3.19619,6.82975 5.23166,14.36603 11.77543,11.77543 2.99433,-1.24483 4.81111,-4.10458 6.72882,-6.59424 4.2728,-6.2578 8.5456,-12.51561 12.8184,-18.77341 2.70835,1.81678 5.4167,3.63356 8.14187,5.43352 -4.76064,7.23348 -9.65585,14.38285 -14.652,21.46494 -3.49899,5.04661 -9.10073,9.10075 -15.47629,8.69695 -11.50628,-0.79059 -23.7359,-12.46509 -19.00891,-24.61061 4.4242,-9.85772 11.74179,-17.99959 17.47811,-27.13396 z"
     id="path28"
     inkscape:connector-curvature="0"
     style="fill:#ffffff;stroke-width:1.68220472"
     inkscape:export-filename="C:\Users\suitedoalex\sites\girona-fc-logo-3.png"
     inkscape:export-xdpi="72.203423"
     inkscape:export-ydpi="72.203423" />
  <path
     d="m 554.58221,846.36052 c 11.06891,5.04661 22.07053,10.34556 33.12261,15.52675 l -4.02047,8.22598 c -3.98682,-1.985 -8.02412,-3.85225 -12.14552,-5.53445 -4.60924,10.58106 -9.82407,20.87616 -14.56789,31.40676 -3.04479,-1.3794 -6.05594,-2.8261 -9.01662,-4.3401 5.04662,-10.3624 9.8409,-20.90979 14.85387,-31.30582 -3.95318,-1.96818 -7.95683,-3.85225 -11.96048,-5.66903 1.22801,-2.77564 2.47285,-5.53445 3.7345,-8.31009 z"
     id="path30"
     inkscape:connector-curvature="0"
     style="fill:#ffffff;stroke-width:1.68220472"
     inkscape:export-filename="C:\Users\suitedoalex\sites\girona-fc-logo-3.png"
     inkscape:export-xdpi="72.203423"
     inkscape:export-ydpi="72.203423" />
  <path
     d="m 814.81929,857.84998 c 2.85974,-1.32894 5.68585,-2.77564 8.68017,-3.83543 5.4167,10.17734 10.31192,20.64061 15.35853,31.03671 6.72882,-3.028 13.13802,-6.4092 19.73226,-9.555 1.31212,2.6916 2.60742,5.3831 3.91954,8.0915 -9.50446,4.5924 -18.90798,9.3867 -28.44608,13.9118 -6.30827,-13.2221 -13.23895,-26.2424 -19.24442,-39.64958 z"
     id="path32"
     inkscape:connector-curvature="0"
     style="fill:#ffffff;stroke-width:1.68220472"
     inkscape:export-filename="C:\Users\suitedoalex\sites\girona-fc-logo-3.png"
     inkscape:export-xdpi="72.203423"
     inkscape:export-ydpi="72.203423" />
  <path
     d="m 598.05038,865.77316 c 8.62971,2.96068 18.05006,4.10458 26.02371,8.697 7.68767,4.8279 5.38305,16.822 -2.79246,19.7827 7.36805,5.7868 4.74382,19.3117 -5.04662,20.4556 -10.5306,0.8075 -20.3715,-4.3737 -30.4479,-6.7288 4.1214,-14.1473 8.10822,-28.2274 12.26327,-42.2065 z m 6.72882,10.9848 c -0.82428,2.9102 -1.68221,5.8204 -2.48966,8.7475 4.05411,1.3289 8.22598,2.2709 12.44831,2.8092 2.2878,-0.1009 4.05411,-2.0354 3.95318,-4.3064 -0.0505,-1.043 -0.47101,-2.0186 -1.21118,-2.7588 -3.66721,-2.6579 -8.44467,-3.1289 -12.66701,-4.5588 z m -4.89522,16.6706 c -0.79063,2.9607 -1.6822,5.9551 -2.45602,8.9326 4.52514,1.5139 9.1512,2.742 13.84455,3.6503 3.75132,0.8075 6.72882,-4.5756 3.85225,-7.183 -4.28962,-3.4485 -10.12687,-3.8354 -15.20713,-5.4671 z"
     id="path34"
     inkscape:connector-curvature="0"
     style="fill:#ffffff;stroke-width:1.68220472"
     inkscape:export-filename="C:\Users\suitedoalex\sites\girona-fc-logo-3.png"
     inkscape:export-xdpi="72.203423"
     inkscape:export-ydpi="72.203423" />
  <path
     d="m 774.22768,877.12806 c 6.35874,-10.44651 20.92663,-13.92867 31.74321,-8.74748 -1.22801,2.91018 -2.45602,5.82038 -3.66721,8.74748 -5.39988,-1.8 -11.96047,-3.028 -16.637,1.1271 -8.14187,6.611 -4.34009,21.3471 5.58492,23.9209 6.72882,1.9177 12.95297,-2.7083 16.18281,-8.2428 2.70835,1.2617 5.38305,2.5906 8.05776,3.9532 -5.14755,11.4726 -19.90048,17.4108 -31.37312,11.9773 -11.9773,-5.2821 -16.83887,-21.7173 -9.89137,-32.7357 z"
     id="path36"
     inkscape:connector-curvature="0"
     style="fill:#ffffff;stroke-width:1.68220472"
     inkscape:export-filename="C:\Users\suitedoalex\sites\girona-fc-logo-3.png"
     inkscape:export-xdpi="72.203423"
     inkscape:export-ydpi="72.203423" />
  <path
     d="m 655.41356,881.11486 c 11.77544,-4.5251 26.91528,1.4467 30.80117,13.7604 4.02047,11.1531 -2.00182,24.8294 -13.33988,28.7321 -11.47264,4.5083 -26.37697,-1.0093 -30.68342,-12.9362 -4.64288,-11.2539 1.54763,-25.6199 13.22213,-29.5563 z m 3.46534,8.697 c -10.09322,4.0373 -10.54742,20.4556 -0.57195,24.863 7.73815,4.256 17.94913,-1.6822 18.67248,-10.2783 2.15322,-9.8409 -8.89887,-19.0425 -18.10053,-14.5847 z"
     id="path38"
     inkscape:connector-curvature="0"
     style="fill:#ffffff;stroke-width:1.68220472"
     inkscape:export-filename="C:\Users\suitedoalex\sites\girona-fc-logo-3.png"
     inkscape:export-xdpi="72.203423"
     inkscape:export-ydpi="72.203423" />
  <path
     d="m 701.65737,882.44386 c 3.26348,-0.2524 6.54378,-0.4711 9.82408,-0.6898 0.65606,11.6241 1.5308,23.2481 2.17004,34.889 7.28395,-0.3365 14.55107,-0.8748 21.86866,-1.2617 0.11776,2.9439 0.26916,5.9046 0.43738,8.8652 -10.51378,0.6897 -21.02756,1.4804 -31.55816,1.9009 -0.89157,-14.5679 -1.79996,-29.1358 -2.742,-43.7036 z"
     id="path40"
     inkscape:connector-curvature="0"
     style="fill:#ffffff;stroke-width:1.68220472"
     inkscape:export-filename="C:\Users\suitedoalex\sites\girona-fc-logo-3.png"
     inkscape:export-xdpi="72.203423"
     inkscape:export-ydpi="72.203423" />
  <path
     d="m 667.25628,175.96823 c 7.08209,-1.19437 14.29874,-0.58877 21.46494,-0.79064 14.18098,0.25233 28.42926,-0.74017 42.54296,1.07661 55.78191,4.37374 110.03301,20.27057 159.35525,46.68119 74.42074,39.95236 134.74457,101.85749 172.74557,177.30438 21.9696,43.40088 35.831,90.43533 40.8944,138.81553 0.7066,6.84658 1.1944,13.70997 2.0355,20.53972 0.2523,14.9548 0.1178,29.92643 0.084,44.89805 -2.1532,34.98986 -7.8895,69.91243 -18.7229,103.33784 -15.0053,47.42135 -38.6403,91.68021 -69.6938,130.53914 -27.40309,34.38431 -60.10515,64.17611 -96.89497,88.24841 -55.46229,36.302 -119.01599,58.3726 -185.04253,64.2603 -5.8036,0.3028 -11.50628,1.6822 -17.3267,1.4971 -14.58472,0.067 -29.15261,0.067 -43.73733,0 -18.43696,-1.3121 -36.77299,-3.6672 -54.94081,-7.0316 -46.2438,-8.8316 -90.5699,-25.7041 -130.99328,-49.8437 -36.13376,-21.7173 -68.83582,-48.6998 -96.99593,-80.07296 -13.07073,-15.50992 -25.99006,-31.22172 -36.80664,-48.41385 -37.17672,-56.87539 -59.43229,-122.17858 -64.73124,-189.92097 -1.93453,-17.10802 -0.77381,-34.45155 -1.05979,-51.69415 1.69903,-37.66456 8.56243,-74.9254 20.3715,-110.72272 17.15849,-51.77826 44.59525,-99.5697 80.6449,-140.49774 32.85346,-37.44588 72.20023,-68.61713 116.17306,-92.0166 49.77644,-26.34333 104.46492,-42.08876 160.63373,-46.19334 z m 4.86158,12.63336 c -5.36624,0.62241 -10.79976,0.2355 -16.0987,1.29529 -35.29266,3.86907 -69.91243,12.34739 -102.98458,25.23308 -58.12017,22.65929 -110.26852,59.83602 -151.75169,106.34898 -21.46493,24.4929 -39.96919,51.44182 -55.12585,80.25799 -20.42197,39.48135 -34.031,82.14206 -40.25516,126.16536 -3.26348,25.38447 -5.04662,51.03809 -3.36441,76.64125 2.47284,41.19719 10.51378,82.27663 25.53587,120.83276 7.45216,19.17714 16.33421,37.7655 26.59566,55.59687 63.72191,111.54709 177.79222,185.05939 305.69024,197.03669 5.93819,0.9084 12.01095,0.4037 17.96595,1.4972 12.65018,0.5551 25.33401,0.4205 38.00101,0.1009 6.9475,-1.1775 14.04641,-0.6729 21.01073,-1.8504 90.43533,-8.7307 175.01659,-48.6326 239.25999,-112.87597 28.90028,-28.68159 53.29228,-61.58551 72.33478,-97.56792 23.8537,-45.60457 38.5057,-95.46512 43.0813,-146.7219 0.9252,-5.7195 0.4878,-11.55675 1.514,-17.25942 1.5476,-36.67207 -1.7495,-73.37777 -9.8073,-109.17509 -10.2446,-44.42703 -28.1601,-86.71766 -52.9558,-124.97099 -50.46613,-78.44121 -129.412,-138.36134 -218.97258,-164.85607 -31.81049,-9.43717 -64.64713,-14.97162 -97.80339,-16.48561 -13.94548,0.13458 -27.99188,-0.74017 -41.87007,0.757 z"
     id="path42"
     style="fill:#d02030;stroke-width:1.68220472"
     inkscape:connector-curvature="0"
     inkscape:export-filename="C:\Users\suitedoalex\sites\girona-fc-logo-3.png"
     inkscape:export-xdpi="72.203423"
     inkscape:export-ydpi="72.203423" />
  <path
     d="m 685.86147,187.37358 c 72.20023,-2.11958 143.60982,15.61086 206.44017,51.23995 83.68968,47.25314 149.04336,125.98032 179.69306,217.10535 70.4003,206.91119 -40.2719,431.72108 -247.18312,502.10448 C 657.76865,1014.6483 473.28125,954.03846 372.50037,809.20062 286.11915,685.25572 277.82588,522.93978 351.11954,390.83624 418.89557,268.60724 546.17119,191.24265 685.87829,187.37358 Z M 662.71433,201.6555 C 452.45556,220.74852 297.47403,406.68261 316.58388,616.94138 335.6769,827.20021 521.611,982.18176 731.86977,963.07186 942.12854,943.97886 1097.1101,758.04472 1078.0002,547.78595 1065.7201,412.48622 982.5351,293.87396 859.53229,236.2248 798.16546,207.40864 730.22121,195.46498 662.71433,201.6555 Z"
     id="path44"
     inkscape:connector-curvature="0"
     style="fill:#ffffff;stroke-width:1.68220472"
     inkscape:export-filename="C:\Users\suitedoalex\sites\girona-fc-logo-3.png"
     inkscape:export-xdpi="72.203423"
     inkscape:export-ydpi="72.203423" />
  <g
     id="g94"
     style="fill:#d02030;fill-opacity:1"
     transform="matrix(1.6822048,0,0,1.6822048,19.708379,97.678419)"
     inkscape:export-filename="C:\Users\suitedoalex\sites\girona-fc-logo-3.png"
     inkscape:export-xdpi="72.203423"
     inkscape:export-ydpi="72.203423">
    <path
       d="M 382.24,61.81 C 507.46,50.49 618.14,142.83 629.46,268.04 640.78,393.25 548.44,503.94 423.23,515.26 298.01,526.58 187.33,434.24 176.01,309.03 168.44,225.33 207.61,144.26 277.89,98.17 309.16,77.67 345,65.19 382.24,61.81 Z m 27,10.84 c -7.94,1.27 -14.85,6.1 -18.78,13.11 -5.75,10.11 -4.27,24 4.07,32.2 10.19,10.5 29.06,10.61 39.15,-0.1 9.62,-9.62 10.11,-26.7 0.89,-36.76 -6.14,-7.04 -16.15,-9.97 -25.28,-8.45 z m -58.52,6.46 c -7,1.83 -14,3.49 -20.9,5.4 4.34,16.7 8.55,33.43 12.8,50.15 3,-0.73 6,-1.48 9,-2.26 -1.49,-5.83 -3,-11.64 -4.41,-17.5 3.6,-0.87 7.19,-1.78 10.77,-2.75 5.68,4.71 11.23,9.56 16.85,14.34 3.53,-0.89 7.06,-1.79 10.59,-2.7 -6.05,-5.17 -12.07,-10.36 -18.25,-15.37 1.92,-1.41 3.69,-3.03 5.27,-4.82 6.28,-7.7 2.68,-21.21 -6.72,-24.63 -4.85,-1.8 -10.17,-1.15 -15,0.14 z m 112.12,0.93 c -6.54,16 -13.04,32.02 -19.49,48.05 2.79,1.17 5.59,2.32 8.39,3.43 4.55,-11.27 9.18,-22.51 13.66,-33.81 4.51,14.73 8.42,29.65 12.65,44.46 2.39,1.02 4.8,1.98 7.24,2.87 6.41,-16 13,-32 19.42,-48 -2.75,-1.13 -5.51,-2.25 -8.24,-3.42 -4.74,10.73 -8.87,21.71 -13.36,32.55 -4.76,-14.12 -8.13,-28.69 -12.44,-43 z M 299.89,98.79 c 7.94,15.33 15.87,30.7 23.78,46.11 l 8.17,-4.21 c -7.9,-15.4 -15.74,-30.84 -23.84,-46.13 -2.69,1.43 -5.4,2.83 -8.11,4.23 z m -46.65,43.24 c -1,15 12.35,29.43 27.49,28.81 14.27,-0.53 26.11,-13.14 28,-26.91 -4.07,-6 -9.55,-11.18 -14.14,-16.9 -5.62,4.76 -11.09,9.69 -16.75,14.4 1.69,2.1 3.44,4.15 5.2,6.19 3.44,-2.84 6.67,-5.91 10.21,-8.61 1.96,2.47 4.01,4.85 6.16,7.15 -2,8 -9.08,15.14 -17.59,15.54 -12.21,0.46 -22.64,-13.16 -18.58,-24.81 2.71,-7.92 11.26,-12.26 19.27,-12.35 -0.13,-3 -0.17,-6 -0.21,-9 -14.4,-0.07 -28.4,11.82 -29.06,26.49 z m 238.48,6.21 c 2.32,2.13 4.65,4.24 7,6.33 4.17,-1.89 8.23,-4 12.5,-5.7 5.86,5.51 12,10.76 17.95,16.15 -1.45,4.28 -2.95,8.55 -4.39,12.83 2.39,2.17 4.75,4.39 7.35,6.33 5.83,-18 11.85,-36 17.69,-54 -2.1,-1.86 -4.2,-3.73 -6.26,-5.63 -17.33,7.8 -34.57,15.81 -51.84,23.69 z M 384.23,136.71 c -42.78,4.94 -82.67,29.24 -107.08,64.64 -36.34,52.35 -36.36,121.75 -0.06,174.12 48.08,69.37 143.29,86.62 212.66,38.54 69.37,-48.08 86.62,-143.29 38.54,-212.66 -32.31,-46.6 -87.77,-71.49 -144.06,-64.64 z m -127.63,293.21 4.22,3.95 c 2.3,-2.42 4.6,-4.84 6.93,-7.22 3,2.78 6,5.65 9,8.49 1.25,-1.28 2.48,-2.57 3.73,-3.85 -3,-2.91 -6.15,-5.68 -9,-8.76 l 3.83,-3.68 c 3.32,3.31 6.73,6.52 10.14,9.73 1.2,-1.35 2.39,-2.69 3.54,-4.08 -4.85,-4.45 -9.56,-9 -14.32,-13.59 -6.08,6.29 -12.18,12.55 -18.07,19.01 z m 274.32,-18.64 c -4.76,2.8 -8.19,7.36 -12.13,11.15 6.25,6 12.21,12.37 18.41,18.46 4,-4.44 9.23,-7.94 12.07,-13.29 2.84,-5.35 -3.7,-11.66 -9.12,-8.94 1.35,-5.12 -4.52,-9.97 -9.23,-7.38 z m -22.93,19.52 c 3.14,4.79 6.89,9.2 9.64,14.23 2,4 -3,8.55 -6.88,7.1 -1.88,-0.75 -3,-2.51 -4.2,-4.06 -2.55,-3.65 -5.1,-7.29 -7.64,-10.93 -1.61,1.14 -3.21,2.29 -4.8,3.46 3.12,4.23 6,8.65 9.14,12.88 2.14,2.94 5.64,5.21 9.42,4.73 4.05,-0.66 7.63,-2.99 9.88,-6.42 2.22,-3.39 1.56,-7.91 -0.59,-11.16 -2.92,-4.5 -6.14,-8.78 -9.17,-13.19 -1.61,1.11 -3.21,2.23 -4.8,3.36 z m -214.11,-2.14 c -3.41,5.4 -7.76,10.27 -10.41,16.11 -2.81,7.22 4.46,14.16 11.3,14.63 3.79,0.24 7.12,-2.2 9.2,-5.17 2.97,-4.2 5.87,-8.45 8.71,-12.76 -1.62,-1.07 -3.23,-2.15 -4.84,-3.23 -2.55,3.72 -5.09,7.44 -7.62,11.16 -1.1,1.48 -2.18,3.18 -4,3.92 -3.91,1.56 -8.92,-2.92 -7,-7 2.65,-5.11 6.41,-9.54 9.49,-14.39 z m 24.08,15.94 c -0.75,1.64 -1.49,3.29 -2.22,4.94 2.38,1.08 4.76,2.2 7.11,3.37 -3,6.18 -5.79,12.45 -8.83,18.61 1.76,0.9 3.55,1.76 5.36,2.58 2.82,-6.26 5.92,-12.38 8.66,-18.67 2.45,1 4.85,2.11 7.22,3.29 l 2.39,-4.89 c -6.57,-3.13 -13.11,-6.23 -19.69,-9.23 z m 154.7,6.83 c 3.57,8 7.69,15.68 11.44,23.57 5.67,-2.69 11.26,-5.54 16.91,-8.27 -0.78,-1.61 -1.55,-3.21 -2.33,-4.81 -3.92,1.87 -7.77,3.88 -11.73,5.68 -3,-6.18 -5.91,-12.4 -9.13,-18.45 -1.78,0.58 -3.46,1.45 -5.16,2.23 z M 343.8,456.1 c -2.47,8.35 -4.84,16.72 -7.27,25.08 6,1.41 11.84,4.49 18.1,4 5.8,-0.68 7.36,-8.72 3,-12.16 4.86,-1.74 6.23,-8.89 1.66,-11.76 -4.76,-2.77 -10.36,-3.45 -15.49,-5.21 z m 104.73,6.79 c -4.13,6.55 -1.24,16.32 5.88,19.46 6.82,3.23 15.59,-0.3 18.65,-7.12 -1.59,-0.81 -3.18,-1.6 -4.79,-2.35 -1.92,3.29 -5.64,6 -9.62,4.9 -5.9,-1.53 -8.16,-10.29 -3.32,-14.22 2.78,-2.47 6.68,-1.74 9.89,-0.67 0.72,-1.74 1.45,-3.47 2.18,-5.2 -6.43,-3.09 -15.09,-1.09 -18.87,5.15 z m -70.63,2.37 c -6.94,2.34 -10.62,10.85 -7.86,17.57 2.56,7.09 11.42,10.37 18.24,7.69 6.74,-2.32 10.32,-10.45 7.93,-17.08 -2.33,-7.37 -11.35,-10.92 -18.31,-8.23 z m 27.49,0.79 c 0.55,8.67 1.09,17.33 1.62,26 6.26,-0.25 12.51,-0.72 18.76,-1.13 -0.1,-1.76 -0.19,-3.52 -0.26,-5.27 -4.34,0.23 -8.66,0.55 -13,0.75 -0.38,-6.92 -0.9,-13.83 -1.29,-20.74 -1.94,0.06 -3.89,0.19 -5.83,0.34 z"
       id="path46"
       style="fill:#d02030;fill-opacity:1"
       inkscape:connector-curvature="0" />
    <path
       d="m 409.12,81.95 c 6.71,-1.99 13.97,0.24 18.41,5.65 6.22,7.6 5.24,20.09 -2.37,26.39 -6.63,5.69 -17.59,5 -23.49,-1.42 -9.01,-9.09 -5.21,-27.12 7.45,-30.62 z"
       id="path48"
       style="fill:#d02030;fill-opacity:1"
       inkscape:connector-curvature="0" />
    <path
       d="m 340.95,90.68 c 5.93,-1 11.6,-3.59 17.67,-3.63 5.63,-0.13 9.19,6.5 7.14,11.39 -1.24,2.91 -4.14,4.71 -7.08,5.56 -4.51,1.29 -9.07,2.36 -13.62,3.48 -1.34,-5.62 -2.94,-11.15 -4.11,-16.8 z"
       id="path50"
       style="fill:#d02030;fill-opacity:1"
       inkscape:connector-curvature="0" />
    <path
       d="m 519.05,145.45 c 6.67,-3.15 13.36,-6.27 20.08,-9.37 -2.32,7 -4.68,14.06 -7,21.09 -4.41,-3.9 -8.77,-7.77 -13.08,-11.72 z"
       id="path52"
       style="fill:#d02030;fill-opacity:1"
       inkscape:connector-curvature="0" />
    <path
       d="m 353.72,152.95 c 15.58,-5.6 32.01,-8.49 48.57,-8.55 -47.92,48.09 -95.92,96.09 -144,144 0.1,-16.39 2.92,-32.64 8.36,-48.1 0.76,-2.6 3.09,-4.21 4.86,-6.1 26.51,-26.48 53.01,-52.98 79.5,-79.49 0.75,-0.79 1.68,-1.39 2.71,-1.76 z"
       id="path54"
       style="fill:#d02030;fill-opacity:1"
       inkscape:connector-curvature="0" />
    <path
       d="m 423.44,164.96 c 5.16,-5.44 10.53,-10.67 15.86,-15.94 10.27,2.76 20.22,6.61 29.68,11.48 -8.16,8.43 -16.67,16.51 -24.77,25 -7.06,-6.71 -13.73,-13.81 -20.77,-20.54 z"
       id="path56"
       style="fill:#d02030;fill-opacity:1"
       inkscape:connector-curvature="0" />
    <path
       d="m 417.72,171.27 c 9.7,9.8 19.55,19.46 29.23,29.28 -0.09,10.38 0,20.76 0,31.14 h -29.31 c 0.08,-20.09 -0.06,-40.28 0.08,-60.42 z"
       id="path58"
       style="fill:#d02030;fill-opacity:1"
       inkscape:connector-curvature="0" />
    <path
       d="m 358.72,200.35 c 9.66,-9.57 19.13,-19.35 28.93,-28.78 0.84,3.91 0.51,7.92 0.52,11.89 v 48.22 c -9.81,0 -19.62,0 -29.43,0 -0.02,-10.43 -0.02,-20.88 -0.02,-31.33 z"
       id="path60"
       style="fill:#d02030;fill-opacity:1"
       inkscape:connector-curvature="0" />
    <path
       d="m 464.72,205.99 c 9.89,-9.56 19.49,-19.43 29.25,-29.11 7.55,6.19 14.47,13.1 20.66,20.64 -9.8,9.73 -19.45,19.61 -29.35,29.23 -6.78,-7.02 -13.86,-13.72 -20.56,-20.76 z"
       id="path62"
       style="fill:#d02030;fill-opacity:1"
       inkscape:connector-curvature="0" />
    <path
       d="m 505.96,247.34 c 8.34,-8.29 16.63,-16.64 25,-24.94 4.95,9.5 8.79,19.53 11.44,29.91 -5.3,5.18 -10.49,10.46 -15.74,15.68 -6.95,-6.84 -13.85,-13.72 -20.7,-20.65 z"
       id="path64"
       style="fill:#d02030;fill-opacity:1"
       inkscape:connector-curvature="0" />
    <path
       d="m 299.65,259.43 c 9.64,-9.74 19.38,-19.38 29,-29.1 0.08,38.9 0,77.81 0.06,116.71 -9.84,-9.56 -19.46,-19.35 -29.15,-29.06 0.22,-19.52 0.16,-39.04 0.09,-58.55 z"
       id="path66"
       style="fill:#d02030;fill-opacity:1"
       inkscape:connector-curvature="0" />
    <path
       d="m 476.97,230.65 c 9.77,9.61 19.4,19.35 29.1,29 v 57.88 c -9.41,9.91 -19.29,19.4 -28.92,29.1 -0.08,-38.63 0.28,-77.32 -0.18,-115.98 z"
       id="path68"
       style="fill:#d02030;fill-opacity:1"
       inkscape:connector-curvature="0" />
    <path
       d="m 345.64,236.79 c 38.15,0.1 76.3,-0.05 114.45,0.07 -0.06,32.55 0,65.11 0,97.66 0.04,7.95 -5.51,14.83 -13.28,16.47 -11.31,1.19 -22.78,-0.39 -34.07,0.84 -3.88,1.68 -6.64,5.12 -10,7.63 -4.05,-3 -7.39,-8.32 -13,-8 -9.68,-0.23 -19.38,0.19 -29,-0.2 -8.41,-0.6 -15.37,-8.44 -15.09,-16.84 -0.05,-32.55 -0.21,-65.09 -0.01,-97.63 z m 5.24,5.07 -0.12,4.08 c 4.42,-1.4 9.94,0.7 11.08,5.48 0.85,5.76 -0.3,11.64 0.59,17.38 1.33,4.43 6.65,3.88 10.29,3.72 2.67,0.15 5.05,-1.69 5.56,-4.32 0.68,-5.83 -0.62,-11.83 0.71,-17.57 2.18,-6.49 12.44,-6.76 15,-0.4 1.89,6.13 -0.15,12.78 1.18,19 0.98,2.21 3.26,3.54 5.66,3.3 3.37,0.08 8.08,0.64 9.7,-3.17 1.49,-6.18 -0.53,-12.77 1.13,-18.91 2.31,-6.49 12.73,-6.46 15,0 1.5,5.82 0,12 0.81,17.9 0.56,2.43 2.75,4.14 5.24,4.08 3.7,0.16 9.15,0.85 10.57,-3.65 0.82,-5.8 -0.39,-11.74 0.63,-17.52 1.16,-4.7 6.62,-6.75 11,-5.39 -0.05,-1.36 -0.11,-2.72 -0.16,-4.08 -34.64,0.08 -69.26,0.1 -103.87,0.07 z m 0,26.83 v 23.94 c 4.21,-1.25 9.41,0.45 10.84,4.89 1.29,5.95 -0.28,12.17 0.83,18.13 1.44,4.3 6.67,3.73 10.27,3.57 2.59,0.13 4.91,-1.62 5.5,-4.15 0.84,-6 -0.82,-12.37 1,-18.25 2.59,-6.26 12.79,-6 14.91,0.52 1.61,6.11 -0.35,12.65 1.09,18.79 1.65,3.74 6.24,3.19 9.59,3.12 2.62,0.28 5.08,-1.31 5.9,-3.82 1,-5.94 -0.51,-12.1 0.81,-18 2.14,-6.86 13.11,-6.82 15.22,0 1.32,5.89 -0.14,12 0.78,18 1.31,4.45 6.67,3.93 10.31,3.76 2.54,0.13 4.83,-1.54 5.49,-4 0.69,-5.81 -0.5,-11.77 0.65,-17.53 1.33,-4.53 6.59,-6.31 10.84,-5.08 0,-8 0,-15.95 -0.05,-23.93 -3.64,0.17 -8.76,-1 -10.69,3.09 -1.73,6.37 0.82,13.36 -1.46,19.62 -2.81,6.13 -12.91,5.5 -14.86,-1 -1.29,-5.95 0.25,-12.17 -0.84,-18.13 -1.44,-4.31 -6.68,-3.71 -10.27,-3.56 -2.57,-0.12 -4.87,1.6 -5.46,4.11 -0.68,5.82 0.56,11.8 -0.68,17.56 -1.7,5.57 -9.72,7.13 -13.56,2.86 -3.46,-3.71 -2,-9.17 -2.26,-13.73 -0.25,-3.1 0.89,-6.94 -1.68,-9.34 -2.22,-2.09 -5.54,-1.41 -8.3,-1.49 -2.55,-0.19 -5.29,1.21 -6,3.79 -0.91,6 0.55,12.1 -0.8,18 -2,6.54 -12.25,7 -14.92,0.75 -2.17,-6.28 0.36,-13.26 -1.45,-19.58 -2.1,-4 -7.18,-2.74 -10.79,-2.91 z m 0,46.73 c 0,7.38 -0.08,14.76 0,22.14 0.04,4.41 3.51,8.03 7.91,8.26 9.95,0.21 19.91,-0.08 29.86,0.13 5.24,-0.08 10.31,1.88 14.13,5.47 3.52,-2.87 7.64,-5.3 12.33,-5.37 10.52,-0.41 21.07,0 31.6,-0.22 4.47,-0.16 8.01,-3.84 8,-8.32 0.12,-7.37 0,-14.74 0,-22.1 -3.67,0.12 -8.89,-1 -10.77,3.14 -1.5,6.18 0.53,12.78 -1.14,18.93 -2.22,6.19 -12,6.59 -14.71,0.61 -2.26,-6.24 0.22,-13.19 -1.43,-19.54 -1.72,-3.94 -6.61,-3.19 -10.09,-3.12 -2.64,-0.14 -4.98,1.66 -5.52,4.25 -0.43,5.26 0.21,10.55 -0.28,15.81 -0.49,3.62 -3.37,6.45 -7,6.87 -4,0.51 -7.77,-2.02 -8.81,-5.92 -1,-5.83 0.33,-11.84 -0.7,-17.66 -1.46,-3.9 -6.16,-3.5 -9.54,-3.39 -2.7,-0.23 -5.64,1.35 -6.15,4.17 -0.78,5.93 0.71,12.09 -0.82,17.91 -2.31,6.51 -12.76,6.48 -15,-0.05 -1.69,-6.13 0.35,-12.73 -1.14,-18.88 -1.89,-4.21 -7.11,-2.94 -10.78,-3.12 z"
       id="path70"
       style="fill:#d02030;fill-opacity:1"
       inkscape:connector-curvature="0" />
    <path
       d="m 402.93,433.1 c 48.25,-48 96.23,-96.32 144.46,-144.36 -0.79,16.86 -3,33.85 -9.16,49.69 -0.38,0.75 -0.88,1.42 -1.49,2 -27.37,27.33 -54.71,54.7 -82,82.1 -0.85,0.95 -1.92,1.66 -3.12,2.08 -15.63,5.59 -32.09,8.46 -48.69,8.49 z"
       id="path72"
       style="fill:#d02030;fill-opacity:1"
       inkscape:connector-curvature="0" />
    <path
       d="m 263.03,325.29 15.82,-15.83 c 6.9,6.88 13.79,13.77 20.66,20.66 -8.34,8.32 -16.67,16.65 -25,25 -4.92,-9.49 -8.77,-19.49 -11.48,-29.83 z"
       id="path74"
       style="fill:#d02030;fill-opacity:1"
       inkscape:connector-curvature="0" />
    <path
       d="m 290.88,379.94 c 9.8,-9.67 19.54,-19.4 29.21,-29.19 6.93,6.85 13.85,13.72 20.67,20.69 -9.75,9.72 -19.48,19.45 -29.2,29.2 -7.6,-6.15 -14.54,-13.09 -20.68,-20.7 z"
       id="path76"
       style="fill:#d02030;fill-opacity:1"
       inkscape:connector-curvature="0" />
    <path
       d="m 358.72,356.27 c 9.81,0.43 19.64,0.09 29.47,0.21 0,16.62 -0.1,33.24 0,49.86 -10.12,-9.49 -19.7,-19.55 -29.56,-29.3 0.16,-6.93 0.09,-13.85 0.09,-20.77 z"
       id="path78"
       style="fill:#d02030;fill-opacity:1"
       inkscape:connector-curvature="0" />
    <path
       d="m 417.64,356.39 c 9.76,0.08 19.52,0.26 29.27,-0.13 -0.07,6.75 0,13.51 0,20.27 -0.96,1.41 -2.1,2.7 -3.38,3.82 -8.66,8.52 -17.11,17.25 -25.81,25.71 -0.12,-16.56 0,-33.11 -0.08,-49.67 z"
       id="path80"
       style="fill:#d02030;fill-opacity:1"
       inkscape:connector-curvature="0" />
    <path
       d="m 336.46,416.9 c 8.4,-8.24 16.56,-16.71 25,-24.91 6.78,6.91 13.67,13.71 20.51,20.56 -5.12,5.4 -10.53,10.52 -15.7,15.87 -10.37,-2.62 -20.38,-6.49 -29.81,-11.52 z"
       id="path82"
       style="fill:#d02030;fill-opacity:1"
       inkscape:connector-curvature="0" />
    <path
       d="m 526.53,422.47 c 1.59,-1.81 3.34,-3.46 5.25,-4.93 1.73,-1.55 4.55,0.69 3.78,2.74 -1.22,2.44 -3.5,4.1 -5.39,6 z"
       id="path84"
       style="fill:#d02030;fill-opacity:1"
       inkscape:connector-curvature="0" />
    <path
       d="m 540.09,423.84 c 2.06,-1.67 5.16,1.44 3.55,3.52 -1.66,2.4 -4,4.24 -6,6.32 -1.36,-1.3 -2.69,-2.61 -4,-3.95 2.14,-1.99 4.08,-4.25 6.45,-5.89 z"
       id="path86"
       style="fill:#d02030;fill-opacity:1"
       inkscape:connector-curvature="0" />
    <path
       d="m 347.82,463.09 c 2.51,0.85 5.35,1.13 7.56,2.71 0.96,0.96 0.96,2.52 0.01,3.48 -0.44,0.44 -1.02,0.69 -1.64,0.72 -2.52,-0.33 -5,-0.9 -7.41,-1.71 0.49,-1.69 0.99,-3.47 1.48,-5.2 z"
       id="path88"
       style="fill:#d02030;fill-opacity:1"
       inkscape:connector-curvature="0" />
    <path
       d="m 379.96,470.89 c 5.47,-2.65 12,2.82 10.76,8.67 -0.43,5.15 -6.5,8.64 -11.1,6.11 -5.9,-2.62 -5.63,-12.38 0.34,-14.78 z"
       id="path90"
       style="fill:#d02030;fill-opacity:1"
       inkscape:connector-curvature="0" />
    <path
       d="m 344.91,473 c 3,1 6.49,1.2 9.06,3.21 1.71,1.55 -0.06,4.75 -2.29,4.27 -2.79,-0.54 -5.54,-1.27 -8.23,-2.17 0.5,-1.77 0.99,-3.55 1.46,-5.31 z"
       id="path92"
       style="fill:#d02030;fill-opacity:1"
       inkscape:connector-curvature="0" />
  </g>
  <path
     d="m 671.73095,385.97467 c 8.44467,-8.51196 16.92298,-16.99027 25.41811,-25.43494 8.41103,8.41103 16.90616,16.72112 25.23307,25.23308 -0.18504,33.8796 0,67.7592 -0.0841,101.63881 -16.53607,0 -33.07214,0 -49.60821,0 0,-27.03303 0,-54.08289 0,-81.11592 0,-6.72881 0.5383,-13.45763 -0.87475,-20.00141 z"
     id="path96"
     style="fill:#fdb713;fill-opacity:1;stroke-width:1.68220472"
     inkscape:connector-curvature="0"
     inkscape:export-filename="C:\Users\suitedoalex\sites\girona-fc-logo-3.png"
     inkscape:export-xdpi="72.203423"
     inkscape:export-ydpi="72.203423" />
  <path
     d="m 572.68273,485.14064 c 16.72112,-16.90616 33.54317,-33.7282 50.46615,-50.46614 0.0841,17.57904 0,35.15808 0,52.73712 -10.09323,0 -20.22011,0 -30.39744,0 -0.40373,57.59869 -0.10094,115.23102 -0.1514,172.84654 -0.74017,17.74726 13.45763,33.64409 30.54884,36.70571 0,11.64085 0.11775,23.28171 -0.11776,34.93939 -16.82205,-16.82205 -33.79549,-33.39177 -50.2811,-50.46614 -0.18504,-65.40413 0.0336,-130.85871 -0.0673,-196.29648 z"
     id="path98"
     style="fill:#fdb713;fill-opacity:1;stroke-width:1.68220472"
     inkscape:connector-curvature="0"
     inkscape:export-filename="C:\Users\suitedoalex\sites\girona-fc-logo-3.png"
     inkscape:export-xdpi="72.203423"
     inkscape:export-ydpi="72.203423" />
  <path
     d="m 771.51934,435.12869 c 17.04073,16.67065 34.031,33.45906 50.55025,50.63437 0.77381,65.03403 0.16822,130.11854 0.3028,195.13575 -16.82205,16.82205 -33.39177,33.77867 -50.46615,50.2811 -0.23551,-11.40535 -0.1514,-22.8107 -0.0841,-34.21604 12.14552,-2.45602 22.3565,-10.63154 27.40312,-21.95278 3.95318,-8.83157 2.77564,-18.72294 2.92703,-28.10964 0.0841,-53.03991 -0.15139,-106.07983 0.11776,-159.11975 -10.26145,-0.58877 -20.55654,-0.10093 -30.83482,-0.30279 0.0505,-17.51176 -0.0673,-34.97304 0.0841,-52.35022 z"
     id="path100"
     style="fill:#fdb713;fill-opacity:1;stroke-width:1.68220472"
     inkscape:connector-curvature="0"
     inkscape:export-filename="C:\Users\suitedoalex\sites\girona-fc-logo-3.png"
     inkscape:export-xdpi="72.203423"
     inkscape:export-ydpi="72.203423" />
  <path
     d="m 474.42515,583.16271 c 16.5529,-16.25009 32.68524,-32.93757 49.35589,-49.06991 0.10093,32.81982 0.21869,65.60599 0,98.49309 -16.56972,-16.4015 -33.17308,-32.71888 -49.35589,-49.42318 z"
     id="path102"
     style="fill:#fdb713;fill-opacity:1;stroke-width:1.68220472"
     inkscape:connector-curvature="0"
     inkscape:export-filename="C:\Users\suitedoalex\sites\girona-fc-logo-3.png"
     inkscape:export-xdpi="72.203423"
     inkscape:export-ydpi="72.203423" />
  <path
     d="m 871.02175,534.53017 c 16.4856,16.06506 32.56748,32.51702 48.91851,48.78394 -16.23327,16.28374 -32.23104,32.81982 -48.91851,48.64936 0.0673,-32.53384 0.0673,-65.01721 0,-97.4333 z"
     id="path104"
     style="fill:#fdb713;fill-opacity:1;stroke-width:1.68220472"
     inkscape:connector-curvature="0"
     inkscape:export-filename="C:\Users\suitedoalex\sites\girona-fc-logo-3.png"
     inkscape:export-xdpi="72.203423"
     inkscape:export-ydpi="72.203423" />
  <path
     d="m 672.72345,697.35077 c 2.20369,0.28598 4.82793,-0.47102 6.72882,1.04297 6.30827,4.59242 11.6745,10.32874 17.76408,15.13984 6.12323,-4.89521 11.62404,-10.5306 17.98277,-15.13984 2.01865,-1.51399 4.74382,-0.94204 7.08208,-1.27848 v 83.55511 0.35327 c -8.41102,8.22603 -16.73794,16.72116 -25.23307,25.01443 -8.05776,-8.41102 -16.82205,-16.0987 -24.40879,-24.89668 -0.0841,-27.87413 0.0168,-55.83237 0.0841,-83.79062 z"
     id="path106"
     style="fill:#fdb713;fill-opacity:1;stroke-width:1.68220472"
     inkscape:connector-curvature="0"
     inkscape:export-filename="C:\Users\suitedoalex\sites\girona-fc-logo-3.png"
     inkscape:export-xdpi="72.203423"
     inkscape:export-ydpi="72.203423" />
</svg>
