<?xml version="1.0" encoding="UTF-8" standalone="no"?>
<!-- Created with Inkscape (http://www.inkscape.org/) -->

<svg
   xmlns:dc="http://purl.org/dc/elements/1.1/"
   xmlns:cc="http://creativecommons.org/ns#"
   xmlns:rdf="http://www.w3.org/1999/02/22-rdf-syntax-ns#"
   xmlns:svg="http://www.w3.org/2000/svg"
   xmlns="http://www.w3.org/2000/svg"
   xmlns:sodipodi="http://sodipodi.sourceforge.net/DTD/sodipodi-0.dtd"
   xmlns:inkscape="http://www.inkscape.org/namespaces/inkscape"
   width="700mm"
   height="700mm"
   viewBox="0 0 700 700"
   version="1.1"
   id="svg5118"
   inkscape:version="0.92.0 r15299"
   sodipodi:docname="osasuna-logo.svg"
   inkscape:export-filename="C:\Users\suitedoalex\sites\osasuna-logo-0.png"
   inkscape:export-xdpi="148.6263"
   inkscape:export-ydpi="148.6263">
  <defs
     id="defs5112">
    <clipPath
       clipPathUnits="userSpaceOnUse"
       id="clipPath318">
      <path
         d="M 0,0 H 841.89 V 595.276 H 0 Z"
         id="path316"
         inkscape:connector-curvature="0" />
    </clipPath>
    <clipPath
       clipPathUnits="userSpaceOnUse"
       id="clipPath282">
      <path
         d="M 0,0 H 841.89 V 595.276 H 0 Z"
         id="path280"
         inkscape:connector-curvature="0" />
    </clipPath>
  </defs>
  <sodipodi:namedview
     id="base"
     pagecolor="#ffffff"
     bordercolor="#666666"
     borderopacity="1.0"
     inkscape:pageopacity="0.0"
     inkscape:pageshadow="2"
     inkscape:zoom="0.175"
     inkscape:cx="2472.1959"
     inkscape:cy="1304.2137"
     inkscape:document-units="mm"
     inkscape:current-layer="layer1"
     showgrid="false"
     inkscape:window-width="1920"
     inkscape:window-height="1017"
     inkscape:window-x="-8"
     inkscape:window-y="-8"
     inkscape:window-maximized="1" />
  <metadata
     id="metadata5115">
    <rdf:RDF>
      <cc:Work
         rdf:about="">
        <dc:format>image/svg+xml</dc:format>
        <dc:type
           rdf:resource="http://purl.org/dc/dcmitype/StillImage" />
        <dc:title></dc:title>
      </cc:Work>
    </rdf:RDF>
  </metadata>
  <g
     inkscape:label="Camada 1"
     inkscape:groupmode="layer"
     id="layer1"
     transform="translate(0,403)">
    <g
       id="g272"
       transform="matrix(4.799828,0,0,-4.799828,243.02088,-225.43482)"
       inkscape:export-filename="C:\Users\suitedoalex\sites\osasuna-logo-4.png"
       inkscape:export-xdpi="24.307745"
       inkscape:export-ydpi="24.307745">
      <path
         d="M 0,0 1.293,-1.445 0.78,-3.254 -0.498,-1.874 Z"
         style="fill:#ac182d;fill-opacity:1;fill-rule:nonzero;stroke:none"
         id="path274"
         inkscape:connector-curvature="0" />
    </g>
    <g
       transform="matrix(4.799828,0,0,-4.799828,-335.19129,2355.706)"
       id="g276"
       inkscape:export-filename="C:\Users\suitedoalex\sites\osasuna-logo-4.png"
       inkscape:export-xdpi="24.307745"
       inkscape:export-ydpi="24.307745">
      <g
         id="g278"
         clip-path="url(#clipPath282)">
        <g
           id="g284"
           transform="translate(154.8139,551.7816)">
          <path
             d="M 0,0 C 0,0.778 0.632,1.406 1.409,1.406 2.186,1.406 2.817,0.778 2.817,0 2.817,-0.776 2.186,-1.406 1.409,-1.406 0.632,-1.406 0,-0.776 0,0 m -12.051,0.833 c -1.017,0 -1.843,0.823 -1.843,1.842 0,1.017 0.826,1.842 1.843,1.842 1.018,0 1.846,-0.825 1.846,-1.842 0,-1.019 -0.828,-1.842 -1.846,-1.842 M -25.51,-1.406 c -0.779,0 -1.409,0.63 -1.409,1.406 0,0.778 0.63,1.406 1.409,1.406 0.777,0 1.408,-0.628 1.408,-1.406 0,-0.776 -0.631,-1.406 -1.408,-1.406 m 41.907,4.263 c -2.466,0 -3.144,-3.062 -3.144,-3.062 0,0 -0.75,1.297 -2.275,1.297 -1.741,0 -2.767,-1.186 -2.767,-2.734 0,-1.548 1.42,-2.296 1.734,-2.611 0.821,-1.007 -0.05,-1.522 -0.821,-1.128 -0.526,0.149 -5.668,1.499 -6.382,1.499 -1.206,0.092 -0.95,0.889 -0.228,0.889 0.33,-0.02 0.595,-0.044 0.782,-0.044 1.285,0 2.118,0.956 2.118,1.881 0,1.963 -1.688,2.212 -1.688,2.212 0,0 0.386,0.501 0.386,1.025 0,1.192 -0.946,2.299 -2.28,2.299 -2.298,0 -2.226,-2.444 -2.226,-2.444 0,0 -0.312,0.091 -0.412,0.091 -0.639,0 -2.088,-0.638 -2.088,-2.086 0,-1.233 1.057,-1.928 1.581,-2.022 0.733,-0.244 0.994,-0.956 0,-1.051 -0.451,0.075 -7.397,0.618 -7.939,0.618 -1.033,0 -1.269,1.699 0.369,1.685 1.591,0 3.098,1.224 3.098,3.004 0.051,3.01 -3.075,3.199 -3.075,3.199 0,0 0.207,0.665 0.207,1.059 0,1.94 -1.821,3.187 -3.398,3.187 -1.576,0 -3.395,-1.247 -3.395,-3.187 0,-0.394 0.204,-1.059 0.204,-1.059 0,0 -3.125,-0.189 -3.074,-3.199 0,-1.78 1.507,-3.004 3.097,-3.004 1.637,0.014 1.405,-1.685 0.371,-1.685 -0.542,0 -7.49,-0.543 -7.941,-0.618 -0.993,0.095 -0.73,0.807 0,1.051 0.527,0.094 1.58,0.789 1.58,2.022 0,1.448 -1.449,2.086 -2.086,2.086 -0.1,0 -0.414,-0.091 -0.414,-0.091 0,0 0.076,2.444 -2.223,2.444 -1.333,0 -2.28,-1.107 -2.28,-2.299 0,-0.524 0.385,-1.025 0.385,-1.025 0,0 -1.687,-0.249 -1.687,-2.212 0,-0.925 0.832,-1.881 2.119,-1.881 0.185,0 0.449,0.024 0.778,0.044 0.725,0 0.981,-0.797 -0.227,-0.889 -0.713,0 -5.857,-1.35 -6.381,-1.499 -0.771,-0.394 -1.64,0.121 -0.822,1.128 0.316,0.315 1.736,1.063 1.736,2.611 0,1.548 -1.028,2.734 -2.77,2.734 -1.524,0 -2.274,-1.297 -2.274,-1.297 0,0 -0.677,3.062 -3.142,3.062 -2.002,0 -3.091,-0.587 -3.091,-0.587 0,0 1.204,-1.954 2.581,-4.187 0.261,0.191 0.58,0.304 0.928,0.304 0.871,0 1.579,-0.704 1.579,-1.574 0,-0.609 -0.349,-1.139 -0.858,-1.399 1.184,-1.915 2.185,-3.536 2.312,-3.735 0.886,-1.07 1.855,-0.772 2.694,-0.613 5.686,2.268 16.669,3.46 22.301,3.318 5.632,0.142 16.613,-1.05 22.303,-3.318 0.837,-0.159 1.805,-0.457 2.691,0.613 0.131,0.199 1.132,1.82 2.313,3.735 -0.508,0.26 -0.855,0.79 -0.855,1.399 0,0.87 0.704,1.574 1.576,1.574 0.35,0 0.668,-0.113 0.929,-0.304 1.374,2.233 2.579,4.187 2.579,4.187 0,0 -1.088,0.587 -3.088,0.587"
             style="fill:#a48327;fill-opacity:1;fill-rule:nonzero;stroke:none"
             id="path286"
             inkscape:connector-curvature="0" />
        </g>
        <g
           id="g288"
           transform="translate(132.5886,538.68)">
          <path
             d="m 0,0 c 0,-0.745 -0.603,-1.349 -1.353,-1.349 -0.745,0 -1.35,0.604 -1.35,1.349 0,0.746 0.605,1.35 1.35,1.35 C -0.603,1.35 0,0.746 0,0"
             style="fill:#a48327;fill-opacity:1;fill-rule:nonzero;stroke:none"
             id="path290"
             inkscape:connector-curvature="0" />
        </g>
        <g
           id="g292"
           transform="translate(142.7631,544.2314)">
          <path
             d="M 0,0 C 6.269,0 16.909,-1.205 22.978,-3.6 22.751,-4.651 22.597,-5.24 22.378,-6.113 17.195,-3.901 6.083,-2.55 0,-2.55 c -6.081,0 -17.196,-1.351 -22.376,-3.563 -0.219,0.873 -0.376,1.462 -0.601,2.513 C -16.91,-1.205 -6.27,0 0,0"
             style="fill:#a48327;fill-opacity:1;fill-rule:nonzero;stroke:none"
             id="path294"
             inkscape:connector-curvature="0" />
        </g>
        <g
           id="g296"
           transform="translate(142.7631,537.5178)">
          <path
             d="M 0,0 C 5.37,0 16.183,-1.237 21.439,-3.412 21.268,-4.12 20.987,-5.399 20.799,-6.038 16.896,-4.275 5.896,-2.512 0,-2.512 c -5.893,0 -16.894,-1.763 -20.799,-3.526 -0.187,0.639 -0.467,1.918 -0.639,2.626 C -16.181,-1.237 -5.368,0 0,0"
             style="fill:#a48327;fill-opacity:1;fill-rule:nonzero;stroke:none"
             id="path298"
             inkscape:connector-curvature="0" />
        </g>
        <g
           id="g300"
           transform="translate(152.9384,538.68)">
          <path
             d="m 0,0 c 0,-0.745 0.605,-1.349 1.351,-1.349 0.746,0 1.352,0.604 1.352,1.349 0,0.746 -0.606,1.35 -1.352,1.35 C 0.605,1.35 0,0.746 0,0"
             style="fill:#a48327;fill-opacity:1;fill-rule:nonzero;stroke:none"
             id="path302"
             inkscape:connector-curvature="0" />
        </g>
      </g>
    </g>
    <g
       id="g304"
       transform="matrix(4.799828,0,0,-4.799828,350.04705,-242.28793)"
       inkscape:export-filename="C:\Users\suitedoalex\sites\osasuna-logo-4.png"
       inkscape:export-xdpi="24.307745"
       inkscape:export-ydpi="24.307745">
      <path
         d="M 0,0 1.848,-1.706 0,-3.347 -1.849,-1.706 Z"
         style="fill:#ac182d;fill-opacity:1;fill-rule:nonzero;stroke:none"
         id="path306"
         inkscape:connector-curvature="0" />
    </g>
    <g
       id="g308"
       transform="matrix(4.799828,0,0,-4.799828,457.0135,-225.17998)"
       inkscape:export-filename="C:\Users\suitedoalex\sites\osasuna-logo-4.png"
       inkscape:export-xdpi="24.307745"
       inkscape:export-ydpi="24.307745">
      <path
         d="m 0,0 -1.294,-1.445 0.514,-1.811 1.278,1.382 z"
         style="fill:#ac182d;fill-opacity:1;fill-rule:nonzero;stroke:none"
         id="path310"
         inkscape:connector-curvature="0" />
    </g>
    <g
       transform="matrix(4.799828,0,0,-4.799828,-335.19129,2355.706)"
       id="g314"
       clip-path="url(#clipPath318)"
       inkscape:export-filename="C:\Users\suitedoalex\sites\osasuna-logo-4.png"
       inkscape:export-xdpi="24.307745"
       inkscape:export-ydpi="24.307745">
      <g
         id="g320"
         transform="translate(162.7478,526.1094)">
        <path
           d="m 0,0 c -0.162,1.969 -1.793,3.522 -3.775,3.522 -1.498,0 -2.793,-0.89 -3.409,-2.176 -1.376,0.249 -4.755,0.665 -7.109,0.883 l -2.161,0.335 c -0.012,0.031 -0.02,0.063 -0.034,0.095 -0.024,0.057 -0.05,0.112 -0.076,0.169 -0.02,0.045 -0.043,0.093 -0.065,0.137 -0.028,0.054 -0.057,0.107 -0.089,0.16 -0.025,0.044 -0.049,0.089 -0.079,0.133 -0.031,0.05 -0.062,0.099 -0.097,0.147 -0.03,0.046 -0.064,0.091 -0.096,0.134 -0.033,0.044 -0.067,0.09 -0.102,0.132 -0.065,0.078 -0.135,0.154 -0.205,0.229 -0.034,0.034 -0.07,0.064 -0.102,0.097 -0.046,0.045 -0.095,0.09 -0.144,0.132 -0.037,0.033 -0.076,0.064 -0.116,0.094 -0.048,0.04 -0.1,0.08 -0.153,0.116 -0.036,0.029 -0.077,0.056 -0.116,0.083 -0.06,0.038 -0.12,0.075 -0.179,0.111 -0.035,0.021 -0.071,0.041 -0.108,0.062 -0.096,0.053 -0.197,0.1 -0.296,0.145 -0.02,0.009 -0.043,0.014 -0.061,0.024 -0.086,0.034 -0.173,0.067 -0.258,0.096 -0.039,0.013 -0.075,0.022 -0.115,0.032 -0.07,0.023 -0.148,0.043 -0.221,0.059 -0.042,0.01 -0.084,0.018 -0.125,0.027 -0.08,0.014 -0.154,0.027 -0.237,0.035 -0.037,0.005 -0.073,0.012 -0.109,0.015 -0.121,0.012 -0.237,0.018 -0.356,0.018 -0.122,0 -0.238,-0.006 -0.356,-0.018 C -20.386,5.025 -20.424,5.018 -20.46,5.013 -20.54,5.005 -20.618,4.992 -20.697,4.978 -20.738,4.969 -20.78,4.961 -20.82,4.951 -20.897,4.935 -20.97,4.915 -21.043,4.892 -21.082,4.882 -21.118,4.873 -21.158,4.86 -21.244,4.831 -21.33,4.798 -21.416,4.764 -21.435,4.754 -21.457,4.749 -21.478,4.74 -21.577,4.695 -21.676,4.648 -21.771,4.595 -21.81,4.576 -21.842,4.554 -21.879,4.533 -21.94,4.497 -21.999,4.46 -22.058,4.422 -22.097,4.395 -22.139,4.368 -22.178,4.339 -22.228,4.303 -22.28,4.262 -22.33,4.223 -22.369,4.193 -22.408,4.162 -22.442,4.131 -22.495,4.085 -22.543,4.041 -22.59,3.996 -22.623,3.962 -22.657,3.933 -22.69,3.9 -22.761,3.825 -22.83,3.749 -22.896,3.671 -22.931,3.629 -22.961,3.585 -22.993,3.541 -23.029,3.497 -23.062,3.452 -23.095,3.404 -23.128,3.357 -23.159,3.309 -23.189,3.26 -23.219,3.214 -23.246,3.168 -23.274,3.122 -23.3,3.071 -23.33,3.019 -23.357,2.967 -23.381,2.921 -23.403,2.871 -23.425,2.823 -23.448,2.768 -23.477,2.714 -23.5,2.661 -23.511,2.628 -23.522,2.596 -23.534,2.564 l -2.163,-0.335 c -2.351,-0.218 -5.729,-0.634 -7.107,-0.883 -0.614,1.286 -1.91,2.176 -3.411,2.176 -1.98,0 -3.61,-1.553 -3.773,-3.522 l -23.547,-6.462 0.293,-2.188 c 2.085,-15.593 8.105,-30.942 17.896,-45.623 8.929,-13.389 18.708,-22.71 23.743,-27.077 l 1.607,-1.395 h 0.003 l 1.609,1.395 c 5.036,4.367 14.813,13.688 23.742,27.077 9.791,14.681 15.815,30.03 17.896,45.623 l 0.292,2.188 z"
           style="fill:#a48327;fill-opacity:1;fill-rule:nonzero;stroke:none"
           id="path322"
           inkscape:connector-curvature="0" />
      </g>
      <g
         id="g324"
         transform="translate(142.7554,446.6714)">
        <path
           d="m 0,0 c 12.38,10.737 36.155,36.421 40.791,71.125 -4.07,1.117 -21.405,5.873 -21.405,5.873 -0.481,-0.739 -1.203,-1.303 -2.055,-1.568 V 65.411 c 1.547,-0.485 2.68,-1.951 2.68,-3.681 0,-1.731 -1.133,-3.198 -2.68,-3.678 v -3.621 c 0,-1.365 -0.584,-6.272 -1.316,-8.061 -0.004,-0.008 -0.026,-0.057 -0.056,-0.13 0.693,-0.7 1.12,-1.664 1.12,-2.731 0,-2.104 -1.67,-3.816 -3.738,-3.844 L 13.277,39.484 C 12.137,36.709 6.869,29.977 3.66,28.105 3.695,27.973 3.723,27.838 3.745,27.699 3.751,27.658 3.756,27.622 3.761,27.579 3.767,27.53 3.772,27.484 3.775,27.436 3.782,27.329 3.79,27.227 3.79,27.12 3.79,24.999 2.09,23.272 0,23.272 Z"
           style="fill:#1b294a;fill-opacity:1;fill-rule:nonzero;stroke:none"
           id="path326"
           inkscape:connector-curvature="0" />
      </g>
      <g
         id="g328"
         transform="translate(142.7554,469.9437)">
        <path
           d="m 0,0 c -2.092,0 -3.796,1.727 -3.796,3.847 0,0.108 0.009,0.211 0.018,0.315 0.003,0.049 0.009,0.096 0.013,0.145 0.007,0.042 0.013,0.079 0.018,0.12 0.021,0.14 0.049,0.273 0.083,0.407 -3.208,1.871 -8.473,8.603 -9.615,11.378 l -0.067,0.18 c -2.066,0.029 -3.738,1.742 -3.738,3.845 0,1.067 0.43,2.03 1.122,2.73 -0.031,0.074 -0.051,0.122 -0.055,0.131 -0.732,1.789 -1.315,6.695 -1.315,8.06 v 3.621 c -1.55,0.481 -2.682,1.948 -2.682,3.678 0,1.73 1.132,3.197 2.682,3.682 v 10.019 c -0.852,0.266 -1.575,0.829 -2.057,1.568 0,0 -17.336,-4.756 -21.406,-5.874 C -36.157,13.149 -12.384,-12.535 0,-23.272 Z"
           style="fill:#ac182d;fill-opacity:1;fill-rule:nonzero;stroke:none"
           id="path330"
           inkscape:connector-curvature="0" />
      </g>
      <g
         id="g332"
         transform="translate(140.4819,476.8741)">
        <path
           d="m 0,0 c 0.633,0.482 1.422,0.768 2.273,0.768 0.846,0 1.628,-0.283 2.263,-0.763 L 4.543,0 c 2.515,1.293 7.697,7.761 8.72,10.251 -0.904,0.708 -1.493,1.813 -1.493,3.055 0,2.124 1.703,3.852 3.793,3.852 0.148,0 0.294,-0.012 0.434,-0.029 0.552,1.342 1.129,5.871 1.129,7.099 v 3.713 c -1.418,0.557 -2.427,1.952 -2.427,3.585 0,1.635 1.009,3.031 2.427,3.589 v 10.201 c -1.173,0.466 -2.059,1.497 -2.334,2.76 -1.662,0.328 -7.707,1.016 -8.967,1.016 -0.002,-0.003 -0.008,-0.011 -0.01,-0.017 l 0.013,0.019 C 5.292,47.628 3.9,46.582 2.273,46.582 c -1.628,0 -3.019,1.044 -3.555,2.51 l 0.01,-0.017 c -0.002,0.006 -0.007,0.014 -0.01,0.017 -1.258,0 -7.303,-0.688 -8.963,-1.016 -0.278,-1.263 -1.164,-2.294 -2.335,-2.76 V 35.115 c 1.416,-0.558 2.423,-1.954 2.423,-3.589 0,-1.633 -1.007,-3.028 -2.423,-3.585 v -3.713 c 0,-1.228 0.577,-5.757 1.125,-7.099 0.144,0.017 0.288,0.029 0.437,0.029 2.091,0 3.791,-1.728 3.791,-3.852 0,-1.242 -0.587,-2.347 -1.492,-3.055 C -7.695,7.761 -2.516,1.293 0,0"
           style="fill:#ffffff;fill-opacity:1;fill-rule:nonzero;stroke:none"
           id="path334"
           inkscape:connector-curvature="0" />
      </g>
      <g
         id="g336"
         transform="translate(128.7508,525.782)">
        <path
           d="m 0,0 c 0,-1.243 -0.993,-2.249 -2.218,-2.249 -1.222,0 -2.213,1.006 -2.213,2.249 0,1.242 0.991,2.248 2.213,2.248 C -0.993,2.248 0,1.242 0,0"
           style="fill:#ffffff;fill-opacity:1;fill-rule:nonzero;stroke:none"
           id="path338"
           inkscape:connector-curvature="0" />
      </g>
      <g
         id="g340"
         transform="translate(128.7508,508.4011)">
        <path
           d="m 0,0 c 0,-1.243 -0.993,-2.249 -2.218,-2.249 -1.222,0 -2.213,1.006 -2.213,2.249 0,1.242 0.991,2.249 2.213,2.249 C -0.993,2.249 0,1.242 0,0"
           style="fill:#ffffff;fill-opacity:1;fill-rule:nonzero;stroke:none"
           id="path342"
           inkscape:connector-curvature="0" />
      </g>
      <g
         id="g344"
         transform="translate(131.6774,490.1805)">
        <path
           d="m 0,0 c 0,-1.241 -0.991,-2.249 -2.213,-2.249 -1.226,0 -2.217,1.008 -2.217,2.249 0,1.242 0.991,2.249 2.217,2.249 C -0.991,2.249 0,1.242 0,0"
           style="fill:#ffffff;fill-opacity:1;fill-rule:nonzero;stroke:none"
           id="path346"
           inkscape:connector-curvature="0" />
      </g>
      <g
         id="g348"
         transform="translate(156.76,525.782)">
        <path
           d="m 0,0 c 0,-1.243 0.99,-2.249 2.213,-2.249 1.224,0 2.215,1.006 2.215,2.249 0,1.242 -0.991,2.248 -2.215,2.248 C 0.99,2.248 0,1.242 0,0"
           style="fill:#ffffff;fill-opacity:1;fill-rule:nonzero;stroke:none"
           id="path350"
           inkscape:connector-curvature="0" />
      </g>
      <g
         id="g352"
         transform="translate(140.5386,527.306)">
        <path
           d="m 0,0 c 0,-1.243 0.992,-2.248 2.218,-2.248 1.221,0 2.215,1.005 2.215,2.248 0,1.242 -0.994,2.25 -2.215,2.25 C 0.992,2.25 0,1.242 0,0"
           style="fill:#ffffff;fill-opacity:1;fill-rule:nonzero;stroke:none"
           id="path354"
           inkscape:connector-curvature="0" />
      </g>
      <g
         id="g356"
         transform="translate(140.5386,473.791)">
        <path
           d="m 0,0 c 0,-1.241 0.992,-2.247 2.218,-2.247 1.221,0 2.215,1.006 2.215,2.247 0,1.243 -0.994,2.248 -2.215,2.248 C 0.992,2.248 0,1.243 0,0"
           style="fill:#ffffff;fill-opacity:1;fill-rule:nonzero;stroke:none"
           id="path358"
           inkscape:connector-curvature="0" />
      </g>
      <g
         id="g360"
         transform="translate(156.76,508.4011)">
        <path
           d="m 0,0 c 0,-1.243 0.99,-2.249 2.213,-2.249 1.224,0 2.215,1.006 2.215,2.249 0,1.242 -0.991,2.249 -2.215,2.249 C 0.99,2.249 0,1.242 0,0"
           style="fill:#ffffff;fill-opacity:1;fill-rule:nonzero;stroke:none"
           id="path362"
           inkscape:connector-curvature="0" />
      </g>
      <g
         id="g364"
         transform="translate(153.8296,490.1805)">
        <path
           d="M 0,0 C 0,-1.241 0.992,-2.249 2.216,-2.249 3.437,-2.249 4.43,-1.241 4.43,0 4.43,1.242 3.437,2.249 2.216,2.249 0.992,2.249 0,1.242 0,0"
           style="fill:#ffffff;fill-opacity:1;fill-rule:nonzero;stroke:none"
           id="path366"
           inkscape:connector-curvature="0" />
      </g>
      <g
         id="g368"
         transform="translate(118.4728,504.2379)">
        <path
           d="m 0,0 v -1.659 h -3.21 c -2.814,0 -5.237,2.774 -5.237,5.776 0,3.029 2.338,5.629 5.237,5.629 H 0 V 8.147 h -3.21 c -1.915,0 -3.631,-1.974 -3.631,-4.03 0,-2.003 1.691,-4.122 3.631,-4.122 C -1.634,-0.005 0,0 0,0"
           style="fill:#ffffff;fill-opacity:1;fill-rule:nonzero;stroke:none"
           id="path370"
           inkscape:connector-curvature="0" />
      </g>
      <g
         id="g372"
         transform="translate(171.1837,512.6426)">
        <path
           d="m 0,0 c -1.689,0 -2.911,-1.249 -2.911,-3.041 v -3.011 h 5.708 v 3.011 C 2.797,-1.268 1.728,0 0,0 m 4.335,-2.823 v -7.232 H 2.797 v 2.404 h -5.708 v -2.404 h -1.473 v 7.232 c 0,2.202 1.848,4.451 4.384,4.451 2.697,0 4.335,-2.268 4.335,-4.451"
           style="fill:#ffffff;fill-opacity:1;fill-rule:nonzero;stroke:none"
           id="path374"
           inkscape:connector-curvature="0" />
      </g>
      <g
         id="g376"
         transform="translate(142.8676,463.7205)">
        <path
           d="m 0,0 c -2.204,0 -3.991,-1.815 -3.991,-4.051 0,-2.233 1.787,-4.05 3.991,-4.05 2.201,0 3.989,1.817 3.989,4.05 C 3.989,-1.815 2.201,0 0,0 m 0,1.713 c 3.129,0 5.676,-2.586 5.676,-5.764 0,-3.176 -2.547,-5.761 -5.676,-5.761 -3.131,0 -5.676,2.585 -5.676,5.761 0,3.178 2.545,5.764 5.676,5.764"
           style="fill:#ffffff;fill-opacity:1;fill-rule:nonzero;stroke:none"
           id="path378"
           inkscape:connector-curvature="0" />
      </g>
      <g
         id="g380"
         transform="translate(142.8049,505.7313)">
        <path
           d="m 0,0 0.232,0.17 v 1.951 c 0,0.745 -0.443,1.19 -0.443,1.19 0,0 -1.239,1.384 -1.533,1.711 -0.315,0.32 -0.578,0.453 -1.018,0.453 v 0.304 c 0,0.239 -0.053,0.325 -0.318,0.325 H -4.299 C -4.48,6.079 -4.604,6.079 -4.739,6.442 -4.875,6.745 -5.243,6.678 -5.451,6.466 -5.803,6.19 -8.233,3.421 -8.312,3.339 c -0.196,-0.197 -0.191,-0.52 0,-0.8 0.033,-0.056 0.471,-0.812 0.471,-0.812 0,0 0.85,0.654 0.908,0.711 0.271,0.179 0.759,-0.137 0.759,-0.137 L -7.51,1.23 c 0,0 0.046,-0.348 0.342,-0.348 h 1.218 l 0.434,-0.867 0.804,0.009 v 1.64 h 0.488 v 1.599 h 0.089 0.285 0.287 V 0.992 H -4.05 V -0.684 H -5.9 l -1.803,-1.749 h 1.529 l -0.677,-1.455 1.966,-0.008 -0.018,-1.343 1.462,1.732 1.557,-1.187 v 2.033 h 2.201 l -0.902,1.642 H 0.73 Z m -6.015,3.648 c -0.199,0 -0.483,0.219 -0.483,0.291 v 0.218 c 0.027,0.232 0.852,0.419 0.975,0.387 0.018,-0.016 0.062,-0.015 0.062,-0.206 0,-0.165 -0.165,-0.69 -0.554,-0.69"
           style="fill:#a48327;fill-opacity:1;fill-rule:nonzero;stroke:none"
           id="path382"
           inkscape:connector-curvature="0" />
      </g>
      <g
         id="g384"
         transform="translate(134.8875,515.9896)">
        <path
           d="m 0,0 c 0,0 0.322,-0.578 0.341,-0.61 0.087,-0.117 0.18,-0.133 0.269,-0.123 0.022,-0.111 0.07,-0.335 0.123,-0.579 l -0.062,-0.3 0.167,-0.184 c 0.046,-0.211 0.083,-0.382 0.094,-0.43 0.009,-0.044 0.019,-0.084 0.027,-0.114 0.575,0.287 2.196,0.575 3.067,0.575 0.867,0 2.49,-0.288 3.064,-0.575 0.016,0.054 0.032,0.137 0.05,0.219 0.009,0.042 0.037,0.166 0.07,0.323 l 0.169,0.186 -0.063,0.317 c 0.051,0.228 0.095,0.443 0.119,0.563 C 7.526,-0.743 7.62,-0.728 7.709,-0.61 7.727,-0.578 8.049,0 8.049,0 L 8.292,0.436 8.674,1.12 c 0,0 -0.16,0.095 -0.456,0.095 -0.365,0 -0.465,-0.499 -0.465,-0.499 0,0 -0.11,0.211 -0.334,0.211 C 7.162,0.927 7.011,0.733 7.011,0.481 7.011,0.227 7.22,0.106 7.266,0.054 7.387,-0.11 7.26,-0.194 7.146,-0.13 7.068,-0.106 6.31,0.116 6.204,0.116 6.028,0.129 6.065,0.26 6.171,0.26 6.22,0.256 6.259,0.253 6.287,0.253 c 0.19,0 0.312,0.155 0.312,0.307 0,0.321 -0.249,0.361 -0.249,0.361 0,0 0.057,0.081 0.057,0.168 0,0.194 -0.139,0.375 -0.336,0.375 -0.339,0 -0.328,-0.399 -0.328,-0.399 0,0 -0.046,0.014 -0.062,0.014 -0.093,0 -0.306,-0.103 -0.306,-0.339 0,-0.203 0.154,-0.316 0.233,-0.332 0.107,-0.039 0.146,-0.155 0,-0.171 -0.067,0.013 -1.091,0.101 -1.171,0.101 -0.151,0 -0.186,0.277 0.054,0.276 0.236,0 0.458,0.199 0.458,0.489 0.006,0.492 -0.454,0.523 -0.454,0.523 0,0 0.03,0.109 0.03,0.173 0,0.317 -0.268,0.52 -0.499,0.52 -0.234,0 -0.502,-0.203 -0.502,-0.52 0,-0.064 0.03,-0.173 0.03,-0.173 0,0 -0.46,-0.031 -0.453,-0.523 0,-0.29 0.223,-0.489 0.457,-0.489 0.241,0.001 0.207,-0.276 0.054,-0.276 -0.079,0 -1.103,-0.088 -1.17,-0.101 -0.147,0.016 -0.108,0.132 0,0.171 0.078,0.016 0.234,0.129 0.234,0.332 0,0.236 -0.215,0.339 -0.308,0.339 -0.016,0 -0.061,-0.014 -0.061,-0.014 0,0 0.011,0.399 -0.329,0.399 -0.196,0 -0.335,-0.181 -0.335,-0.375 0,-0.087 0.056,-0.168 0.056,-0.168 0,0 -0.248,-0.04 -0.248,-0.361 0,-0.152 0.123,-0.307 0.311,-0.307 0.028,0 0.067,0.003 0.116,0.007 0.106,0 0.144,-0.131 -0.033,-0.144 -0.106,0 -0.864,-0.222 -0.941,-0.246 -0.114,-0.064 -0.242,0.02 -0.122,0.184 0.047,0.052 0.257,0.173 0.257,0.427 0,0.252 -0.152,0.446 -0.409,0.446 -0.225,0 -0.336,-0.211 -0.336,-0.211 0,0 -0.098,0.499 -0.461,0.499 -0.297,0 -0.456,-0.095 -0.456,-0.095 l 0.381,-0.684 z"
           style="fill:#a48327;fill-opacity:1;fill-rule:nonzero;stroke:none"
           id="path386"
           inkscape:connector-curvature="0" />
      </g>
      <g
         id="g388"
         transform="translate(148.8929,509.6689)">
        <path
           d="m 0,0 c 0.337,0 0.681,-0.086 0.892,-0.379 0.226,-1.372 1.505,-1.957 1.505,-1.957 l 0.323,0.328 c 0,0 0.38,-0.386 1.378,-0.386 0,1.101 -0.638,1.708 -1.026,2.03 C 2.587,0.061 1.987,0.52 1.641,0.676 1.177,0.968 0.646,1.007 0.231,1.007 c -1.315,0 -2.025,-0.864 -2.025,-1.829 0,-1.151 1.041,-1.743 1.437,-2.143 1.13,-1.051 1.335,-1.35 1.335,-1.871 0,-0.487 -0.234,-0.753 -0.539,-0.753 h -6.072 l 0.873,-1.649 h -2.547 v -2.703 l -2.151,1.601 -1.801,-1.973 c 0,0 -0.337,-4.175 -0.351,-4.257 0,-0.294 -0.196,-0.415 -0.408,-0.415 h -1.027 c 0,0 -0.363,-0.693 -0.379,-0.717 -0.095,-0.251 -0.113,-0.828 -0.113,-0.828 h 3.08 c 0,0 2.332,4.252 2.63,4.589 0.332,0.375 0.506,0.507 0.506,0.507 0,0 1.252,0.958 2.939,0.958 0.874,0 1.898,-0.202 2.699,-0.69 0.584,-0.355 0.895,-0.663 1.197,-1.049 0.553,-0.705 0.756,-1.795 0.829,-2.713 H -0.29 c -0.336,0 -0.702,-0.222 -0.773,-0.515 -0.029,-0.115 -0.281,-1.087 -0.281,-1.087 h 3.375 l 0.677,1.602 -0.634,3.515 c 0,0 -1.816,1.845 -1.816,3.503 v 0.141 c 1.569,0.253 2.013,1.345 2.013,2.475 0,1.022 -0.166,1.667 -1.224,2.742 -0.542,0.551 -1.78,1.123 -1.78,1.81 C -0.733,-0.521 -0.542,0 0,0"
           style="fill:#a48327;fill-opacity:1;fill-rule:nonzero;stroke:none"
           id="path390"
           inkscape:connector-curvature="0" />
      </g>
      <g
         id="g392"
         transform="translate(137.3107,499.2623)">
        <path
           d="m 0,0 v 1.995 h -2.952 c -0.466,0 -0.991,-0.374 -1.056,-0.688 -0.064,-0.182 -0.716,-2.043 -0.716,-2.043 0,0 -0.072,-0.387 -0.072,-0.502 0,-1.529 1.323,-1.669 1.323,-1.669 0,0 0.584,1.925 0.591,1.971 0.121,0.285 0.478,0.579 0.731,0.579 h 1.799 C -0.083,-0.357 0,-0.256 0,0"
           style="fill:#a48327;fill-opacity:1;fill-rule:nonzero;stroke:none"
           id="path394"
           inkscape:connector-curvature="0" />
      </g>
      <g
         id="g396"
         transform="translate(143.873,498.4686)">
        <path
           d="m 0,0 0.314,-1.013 c 0,0 0.057,-0.115 0.057,-0.315 0,-0.592 -0.477,-1.943 -0.745,-2.4 h -1.505 c -0.287,0 -0.661,-0.836 -0.661,-1.602 h 3.15 l 2.63,3.002 c 0,0 0.29,1.375 0.295,1.408 C 3.058,-0.435 1.659,0.149 0,0"
           style="fill:#a48327;fill-opacity:1;fill-rule:nonzero;stroke:none"
           id="path398"
           inkscape:connector-curvature="0" />
      </g>
    </g>
  </g>
</svg>
