<?xml version="1.0" encoding="UTF-8" standalone="no"?>
<svg
   xmlns:dc="http://purl.org/dc/elements/1.1/"
   xmlns:cc="http://creativecommons.org/ns#"
   xmlns:rdf="http://www.w3.org/1999/02/22-rdf-syntax-ns#"
   xmlns:svg="http://www.w3.org/2000/svg"
   xmlns="http://www.w3.org/2000/svg"
   xmlns:sodipodi="http://sodipodi.sourceforge.net/DTD/sodipodi-0.dtd"
   xmlns:inkscape="http://www.inkscape.org/namespaces/inkscape"
   viewBox="0 0 700 700"
   version="1.1"
   id="svg91"
   sodipodi:docname="rc-celta-vigo.svg"
   width="700"
   height="700"
   style="fill:none"
   inkscape:export-filename="C:\Users\suitedoalex\sites\rc-celta-vigo-0.png"
   inkscape:export-xdpi="561.73712"
   inkscape:export-ydpi="561.73712"
   inkscape:version="0.92.0 r15299">
  <metadata
     id="metadata95">
    <rdf:RDF>
      <cc:Work
         rdf:about="">
        <dc:format>image/svg+xml</dc:format>
        <dc:type
           rdf:resource="http://purl.org/dc/dcmitype/StillImage" />
        <dc:title></dc:title>
      </cc:Work>
    </rdf:RDF>
  </metadata>
  <sodipodi:namedview
     pagecolor="#ffffff"
     bordercolor="#666666"
     borderopacity="1"
     objecttolerance="10"
     gridtolerance="10"
     guidetolerance="10"
     inkscape:pageopacity="0"
     inkscape:pageshadow="2"
     inkscape:window-width="1422"
     inkscape:window-height="808"
     id="namedview93"
     showgrid="false"
     inkscape:zoom="0.47683188"
     inkscape:cx="40.565478"
     inkscape:cy="297.49846"
     inkscape:window-x="0"
     inkscape:window-y="0"
     inkscape:window-maximized="0"
     inkscape:current-layer="svg91" />
  <g
     clip-path="url(#clip0)"
     id="g84"
     transform="translate(0,638)"
     inkscape:export-filename="C:\Users\suitedoalex\sites\rc-celta-vigo-4.png"
     inkscape:export-xdpi="138.44804"
     inkscape:export-ydpi="138.44804" />
  <defs
     id="defs89">
    <clipPath
       id="clip0">
      <path
         d="M 0,0.03 H 151.184 V 61.97 H 0 Z"
         id="path86"
         inkscape:connector-curvature="0"
         style="fill:#ffffff" />
    </clipPath>
  </defs>
  <path
     d="m 350.64786,207.94003 h -10.96672 c 0,-19.42006 -0.64786,-43.69515 -4.51938,-45.31088 -4.51158,-1.94357 -9.35098,0.64785 -6.12731,7.43863 3.87152,7.44644 1.61573,12.62148 -5.79948,13.26934 -6.12732,0.64785 -14.19039,-0.64786 -18.38975,-14.88508 -4.8394,-16.82864 6.45515,-21.0358 25.15711,-38.5123 16.12615,-14.88507 20.64553,-21.67585 20.64553,-21.67585 0,0 4.51157,6.79078 20.95774,22.00368 18.70977,17.14867 29.99651,21.35583 25.15711,38.5123 -4.19155,14.23722 -12.25463,15.2051 -18.38194,14.88508 -7.41522,-0.64786 -9.35098,-5.8307 -5.80729,-13.26934 3.5515,-6.79078 -1.2879,-9.3822 -6.12731,-7.44644 -3.87152,1.62354 -4.51157,25.89082 -4.51157,45.31089 h -11.28674 v -0.32783 z m 0,383.79608 -35.8038,-206.45528 a 31.752745,31.752745 0 0 0 23.54137,-29.1301 h 24.50924 c 0.64786,13.91719 10.32667,25.89082 23.54918,29.12229 z M 226.47808,268.44821 c -2.57582,-2.26359 -4.19155,-5.17504 -6.12731,-7.11861 -2.57582,-2.59142 -5.47946,-4.52718 -9.03096,-4.52718 3.5515,0 6.44734,-1.95138 8.71093,-4.52719 1.93576,-1.95137 3.54369,-5.18285 6.12731,-7.12641 1.60793,-1.29572 3.86372,-2.2636 6.12731,-2.2636 3.87153,0 7.0952,2.2636 8.70313,5.8229 1.93576,0 7.74305,0 11.28674,-0.32003 4.19936,-0.32783 7.103,-0.32783 2.26359,-3.88713 l -2.26359,-1.61574 a 16.485201,16.485201 0 0 1 -7.09519,-8.41432 c -0.31222,-0.32783 -0.31222,-0.96788 -0.64005,-1.61574 -0.32783,-0.64785 -0.32783,-1.29571 -0.64786,-2.26359 -0.32002,-0.97569 -0.32002,-2.26359 -0.32002,-3.56711 0,-9.70223 7.41521,-17.46869 17.09403,-18.11655 h 3.54369 c 0.32783,0 0.96788,0.32003 1.28791,0.32003 1.93576,0.32783 3.55149,1.29571 5.48726,2.26359 l 0.64785,0.32783 c 9.02315,5.8229 13.22251,16.82864 13.22251,16.82864 0,0 -2.2636,-1.29571 -11.61458,-2.91145 -7.09519,-0.97568 -11.28674,2.2636 -10.31886,8.73435 1.61574,10.03006 15.15827,12.62148 15.15827,12.62148 h 23.54137 v 19.09224 h -23.54137 c 0,0 -13.54253,2.59142 -15.15827,12.62148 -0.96788,6.79078 3.22367,10.03006 10.31886,8.41432 9.35098,-1.94357 11.61458,-2.91145 11.61458,-2.91145 0,0 -4.19936,11.31797 -13.22251,16.82864 l -0.64785,0.32003 a 15.189489,15.189489 0 0 1 -5.48726,2.26359 c -0.31222,0 -0.96008,0.32783 -1.28791,0.32783 a 6.5800304,6.5800304 0 0 1 -3.54369,0 c -9.67882,-0.32783 -17.09403,-8.41432 -17.09403,-17.79652 0,-1.29571 0,-2.26359 0.32002,-3.56711 a 6.0102294,6.0102294 0 0 1 0.64786,-2.26359 c 0.32002,-0.64786 0.32002,-0.96788 0.64005,-1.61574 1.61574,-3.5593 3.87152,-6.47856 7.103,-8.41432 l 2.25578,-1.61574 c 4.83941,-3.5593 1.60794,-3.5593 -2.26359,-3.88713 -3.22367,-0.32003 -9.35098,-0.32003 -11.28674,-0.32003 -1.28791,3.55931 -4.83941,5.8229 -8.70313,5.8229 -2.26359,0.32002 -4.19155,-0.64786 -5.80728,-1.94357 z m 247.36387,0 c 2.57581,-2.26359 4.19155,-5.17504 6.12731,-7.11861 2.26359,-2.59142 5.15943,-4.52718 8.71093,-4.52718 -3.5515,0 -6.44734,-1.95138 -8.71093,-4.52719 -1.93576,-1.95137 -3.54369,-5.18285 -6.12731,-7.12641 a 10.162752,10.162752 0 0 0 -6.12731,-2.2636 c -3.87153,0 -7.0952,2.2636 -8.70313,5.8229 -1.93576,0 -8.06307,0 -11.29455,-0.32003 -4.19155,-0.32783 -7.09519,-0.32783 -2.25578,-3.88713 l 2.26359,-1.61574 c 3.22367,-1.94357 5.79948,-4.85501 7.09519,-8.41432 0.31222,-0.32783 0.31222,-0.96788 0.64005,-1.61574 0.32003,-0.64785 0.32003,-1.29571 0.64786,-2.26359 0.32002,-1.29571 0.32002,-2.26359 0.32002,-3.56711 0,-9.70223 -7.41521,-17.46869 -17.09403,-18.11655 h -3.54369 c -0.32783,0 -0.96788,0.32003 -1.29571,0.32003 -1.92796,0.32783 -3.54369,1.29571 -5.47946,2.26359 l -0.64785,0.32783 c -9.03096,5.8229 -13.22251,16.82864 -13.22251,16.82864 0,0 2.2636,-1.29571 11.61458,-2.91145 7.09519,-0.97568 11.28674,2.2636 10.31886,8.73435 -1.61574,10.03006 -15.15827,12.62148 -15.15827,12.62148 h -23.54137 v 19.09224 h 23.54137 c 0,0 13.54253,2.59142 15.15827,12.62148 0.96788,6.79078 -3.22367,10.03006 -10.31886,8.41432 -9.35098,-1.94357 -11.61458,-2.91145 -11.61458,-2.91145 0,0 4.19155,11.31797 13.22251,16.82864 l 0.64785,0.32003 c 1.93577,1.29571 3.87153,1.94357 5.47946,2.26359 0.32783,0 0.96788,0.32783 1.29571,0.32783 a 6.6346688,6.6346688 0 0 0 3.54369,0 c 9.35098,-0.64785 17.09403,-8.41432 17.09403,-18.12435 0,-1.29571 0,-2.26359 -0.32002,-3.55931 a 6.0102294,6.0102294 0 0 0 -0.64786,-2.26359 c -0.32002,-0.64785 -0.32002,-0.97568 -0.64005,-1.62354 -1.61573,-3.55931 -3.87152,-6.47075 -7.103,-8.41432 l -2.25578,-1.61574 c -4.83941,-3.5593 -1.60794,-3.5593 2.26359,-3.87933 3.22367,-0.32783 9.35098,-0.32783 11.28674,-0.32783 1.28791,3.55931 4.83941,5.8229 8.70313,5.8229 2.26359,0.64785 4.19155,-0.31222 6.12731,-1.61574 z"
     id="path8"
     inkscape:connector-curvature="0"
     style="fill:#d50032;stroke-width:7.80549288"
     inkscape:export-filename="C:\Users\suitedoalex\sites\rc-celta-vigo-4.png"
     inkscape:export-xdpi="138.44804"
     inkscape:export-ydpi="138.44804" />
  <path
     d="m 384.83591,344.1771 c -9.35878,11.31797 -20.96555,18.44438 -33.22017,24.91513 L 350,370.06792 l -1.61574,-0.64785 c -12.25462,-6.47856 -24.18922,-13.9172 -33.5402,-24.92294 -22.24565,-26.8509 -33.5402,-66.33889 -33.22018,-101.29188 h 136.42441 c 0.96788,34.30514 -11.28675,74.7532 -33.22018,100.97185 z"
     id="path10"
     inkscape:connector-curvature="0"
     style="fill:#ffffff;stroke-width:7.80549288"
     inkscape:export-filename="C:\Users\suitedoalex\sites\rc-celta-vigo-4.png"
     inkscape:export-xdpi="138.44804"
     inkscape:export-ydpi="138.44804" />
  <path
     d="m 414.82462,234.79093 c 2.90364,35.59304 -9.35098,79.61602 -32.2523,107.4426 -9.03095,10.67792 -20.3177,17.79653 -32.25229,24.27509 -11.9346,-6.47856 -23.54137,-13.59717 -32.57233,-24.27509 -23.22134,-28.15441 -34.50808,-71.1939 -32.25229,-107.4426 z"
     id="path12"
     inkscape:connector-curvature="0"
     style="fill:#6cace4;stroke-width:7.80549288"
     inkscape:export-filename="C:\Users\suitedoalex\sites\rc-celta-vigo-4.png"
     inkscape:export-xdpi="138.44804"
     inkscape:export-ydpi="138.44804" />
  <path
     d="m 385.79599,224.76087 c -18.70196,-7.44644 -21.28558,-9.05437 -35.47596,-9.05437 -17.09403,0 -18.70197,1.61573 -35.47597,9.05437 a 22.612513,22.612513 0 0 1 -5.15162,-4.52719 c 0,-1.29571 0.31222,-2.91145 1.2801,-4.52718 2.57581,-5.18285 9.35878,-9.71784 14.51821,-10.03787 6.12731,-4.85501 16.12615,-7.44644 23.22134,-6.15073 0.64005,0 1.28791,0.32784 1.60794,0.32784 0.64785,0 0.96788,-0.32784 1.61573,-0.32784 7.09519,-1.29571 17.09403,1.29572 23.22134,6.15073 5.47946,0.32003 11.9346,4.85502 14.51822,10.03006 0.96008,1.61574 1.2801,3.23928 1.2801,4.52719 a 22.612513,22.612513 0 0 1 -5.15162,4.53499 z"
     id="path14"
     inkscape:connector-curvature="0"
     style="fill:#c09a4e;stroke-width:7.80549288"
     inkscape:export-filename="C:\Users\suitedoalex\sites\rc-celta-vigo-4.png"
     inkscape:export-xdpi="138.44804"
     inkscape:export-ydpi="138.44804" />
  <path
     d="m 350.32003,187.22425 c 18.06191,-8.09429 27.09286,-1.62354 28.7086,7.76647 22.24565,-5.50287 20.3177,27.82658 6.76736,33.00943 l -1.93576,3.87933 c -11.28675,-2.2636 -19.34982,-3.23148 -33.5402,-3.23148 -10.31887,0 -25.47713,0.64786 -34.50028,1.93577 l -0.97569,-2.58362 c -13.87036,-4.85502 -15.79832,-38.5123 6.45514,-33.01724 1.93577,-9.3822 10.63889,-15.84515 29.02083,-7.75866 z m -34.18806,32.36158 c 9.03095,0.32002 8.3909,-5.8229 7.41521,-10.67792 -0.64005,-3.56711 -2.57581,-4.85501 -2.57581,-10.35789 -5.79948,-4.85501 -12.25462,4.20716 -12.89467,10.35789 -0.64786,10.67792 7.41522,10.67792 8.05527,10.67792 z m 31.28441,-30.41801 c -29.9887,-13.26934 -23.86139,30.41801 -2.57581,20.06012 1.28791,-0.64786 1.28791,-1.94357 0.96788,-3.23928 -0.96788,-4.84721 -0.32002,-11.6458 1.60793,-16.82084 z m 5.48726,0 c 1.93577,4.85502 2.57582,11.6458 1.60793,16.82084 -0.31222,1.29571 -0.31222,2.59142 0.96789,3.23928 21.28557,10.67791 27.41289,-33.32946 -2.57582,-20.06012 z m 31.28442,30.41801 c 0.64005,0 9.03095,0 8.06307,-11.00575 -0.64785,-6.15073 -7.103,-14.88507 -12.90248,-10.35789 0,5.50287 -1.93576,6.79859 -2.57581,10.35789 -0.97569,5.18285 -1.61574,11.32577 7.41522,11.00575 z"
     id="path16"
     inkscape:connector-curvature="0"
     style="fill:#c09a4e;stroke-width:7.80549288"
     inkscape:export-filename="C:\Users\suitedoalex\sites\rc-celta-vigo-4.png"
     inkscape:export-xdpi="138.44804"
     inkscape:export-ydpi="138.44804" />
  <path
     d="m 386.44385,229.29586 -5.15944,8.40651 0.32003,0.32784 v 0.32002 c 0,0.32783 0,0.32783 -0.32003,0.64786 0,0.32783 -0.32002,0.32783 -0.64785,0.32783 h -0.32003 c -0.32002,0 -0.64785,0 -0.64785,-0.32783 -1.60793,-0.96788 -3.5437,-1.61574 -5.15163,-2.2636 -2.59142,-0.96788 -4.8394,-1.61573 -6.78297,-2.26359 -2.57581,-0.64785 -4.83941,-1.29571 -7.09519,-1.61574 -2.57582,-0.32783 -4.83941,-0.64785 -6.76737,-0.64785 h -7.09519 c -1.93576,0 -4.51938,0.32002 -6.77517,0.64785 -2.26359,0.32003 -4.51157,0.64786 -7.09519,1.61574 -2.26359,0.64786 -4.51157,1.29571 -6.77517,2.26359 -1.60793,0.64786 -3.54369,1.29572 -5.15162,2.2636 -0.32783,0.32783 -0.64786,0.32783 -0.64786,0.32783 -0.32783,0 -0.32783,0 -0.64785,-0.32783 a 0.98349209,0.98349209 0 0 1 0,-1.29572 l -5.15943,-8.40651 c 19.02979,-13.26934 52.56999,-13.26934 71.91981,0 z M 347.41638,174.9228 v -0.31222 h 5.48726 l -0.96788,3.23147 2.57581,-0.96788 v 5.50287 l -2.57581,-0.96788 0.96788,4.19936 h -5.48726 l 0.96788,-4.19936 -2.57581,0.96788 v -5.50287 l 2.57581,0.96788 -0.96788,-2.91145 z"
     id="path18"
     inkscape:connector-curvature="0"
     style="fill:#c09a4e;stroke-width:7.80549288"
     inkscape:export-filename="C:\Users\suitedoalex\sites\rc-celta-vigo-4.png"
     inkscape:export-xdpi="138.44804"
     inkscape:export-ydpi="138.44804" />
  <path
     d="m 360.32667,212.13939 a 2.4743412,2.4743412 0 0 1 -0.65566,-1.61574 c 0,-0.64786 0.32783,-1.29571 0.64785,-1.61574 l 0.64786,-0.64785 c 0.32002,0 0.32002,-0.32783 0.64005,-0.32783 h 1.29571 c 0.32002,0 0.32002,0 0.64005,0.32783 0.32783,0.32002 0.64786,0.32002 0.64786,0.64785 a 2.4743412,2.4743412 0 0 1 0.64785,1.61574 v 0.64786 c 0,0.64785 -0.32783,0.96788 -0.64785,1.61573 l -0.64786,0.64786 c -0.32003,0 -0.32003,0.32783 -0.64005,0.32783 h -0.32783 c 0.32783,3.23147 4.8394,6.14292 8.3909,4.20716 0.64005,-0.32783 1.60793,-0.97569 2.25579,-1.62354 -0.32002,-0.32003 -0.32002,-0.64786 -0.64786,-0.96788 h -0.64005 l -0.32783,-0.32784 c -0.32002,0 -0.64005,0.32784 -0.64005,0.32784 h -0.32783 c -0.32002,0 -0.32002,0.32002 -0.64005,0.32002 -0.32783,0 -0.32783,0.32783 -0.64785,0.32783 0,0 -0.32003,0 -0.32003,0.32003 0,0 -0.32783,0.32783 -0.64785,0.32783 0,0 -0.32003,0 -0.32003,0.32002 h -0.32783 c -0.64005,0 -0.96008,-0.64785 -0.64005,-1.29571 0.32002,-0.32002 0.32002,-0.64786 0.64005,-0.96788 l 0.32783,-0.32783 v -0.32003 c 0,-0.32002 0,-0.32002 -0.32783,-0.64785 -0.31222,-0.96788 0,-1.61574 0.32783,-1.94357 0,-0.32002 0.32003,-0.32002 0.32003,-0.64786 0.32002,-0.32002 0.32002,-0.32002 0.32002,-0.64785 0.32783,-0.32003 0.64786,-0.32003 0.64786,-0.64005 0.32002,0 0.32002,-0.32783 0.32002,-0.32783 0,-0.96788 0.32783,-1.29571 0.32783,-1.61574 h 0.96788 c 0.31222,0 0.64005,0.64786 0.64005,1.29571 v 0.32003 c 0,0.64785 0,0.96788 0.32783,1.61573 0,0.32784 0.31222,0.32784 0.31222,0.64786 0.32783,0.32783 0.32783,0.64786 0.65567,0.97569 a 1.7718469,1.7718469 0 0 1 1.60793,-0.97569 v 0.32783 a 5.6745932,5.6745932 0 0 1 -1.28791,-1.62354 c -0.32002,-0.64005 -0.32002,-0.64005 -0.64786,-1.61574 0,0 -0.32002,-0.64785 -0.64005,-0.96788 0,-0.32783 0,-0.64786 0.31222,-0.97569 0.32783,0 0.65567,-0.32002 1.29572,0.32783 l 0.64785,0.64786 c 0.32003,0.32003 0.64005,0 0.96788,0 0.32003,0 0.64005,-0.32783 0.96788,-0.32783 h 0.64005 c 0,0 0.64786,0 0.96789,0.64786 0.32783,0.32783 0.32783,0.64785 0.32783,0.97568 0,0.32003 0.32002,0.64786 0.64005,0.64786 h 0.96788 c 0.64785,0.32002 1.2879,0.32002 1.2879,0.64005 0,0.32783 -0.31222,0.64785 -0.64005,0.97569 h -0.96788 c -0.64785,0 -0.96788,0.32002 -1.61573,0.64785 a 4.5662133,4.5662133 0 0 1 -1.93577,0.64786 h -0.31222 a 1.7796523,1.7796523 0 0 1 0.96008,1.61573 c 0.64786,0 0.96788,-0.32002 1.61574,-0.64785 0.64005,-0.32003 0.96788,-0.96788 1.60793,-1.29571 0.32002,0 0.64785,-0.32003 0.96788,-0.32003 0.64785,0 0.96788,0.64786 0.64785,1.29571 l -0.64785,0.64786 c -0.32003,0.31222 0,0.96788 0,1.2879 a 2.1465105,2.1465105 0 0 1 -0.64005,2.2636 c -0.64786,0.97568 -1.61574,0.97568 -1.29571,1.62354 0.32783,1.29571 -0.32003,1.94357 -0.64005,1.94357 -0.32783,0 -1.29572,0 -1.29572,-1.62354 0,-0.64786 0,-1.61574 -0.32002,-2.2636 -0.32003,-0.64785 -0.64786,-0.64785 -0.64786,-1.61573 -0.31222,0.32002 -0.64005,0.32002 -1.2879,0.32002 0,4.21497 3.5515,6.15073 6.77516,5.50287 0.96789,0 1.60794,-0.32002 2.57582,-0.96788 -0.32003,-0.32783 -0.32003,-0.64785 -0.32003,-0.97568 0,-0.96789 0.96788,-1.93577 1.93576,-1.93577 0.96789,0 1.93577,0.96788 1.93577,1.93577 0,0.97568 -0.96788,1.95137 -1.93577,1.95137 h -0.64785 c -0.32003,3.5515 2.57581,6.46295 6.12731,4.19935 -0.31222,-0.32002 -0.31222,-0.64785 -0.31222,-0.96788 -0.65566,0.32003 -2.26359,0.64786 -2.59142,0.64786 -0.64005,0 -0.64005,-0.32783 -0.64005,-0.64786 0,-0.32783 0.32002,-0.64785 0.64005,-0.64785 0.32783,-0.32783 0,-0.97569 0.32783,-1.62355 0.32002,-0.64005 0.32002,-0.64005 0.96788,-0.64005 0.64005,-0.32783 0.64005,0 0.64005,-0.32783 0.32783,0 0.32783,-0.64785 0.32783,-0.64785 l 0.32003,-0.32003 h 0.64785 c 0.32003,0.32003 0.32003,0.64786 0.32003,0.96788 v 1.94357 c 0.32002,0 0.32002,-0.32783 0.64785,-0.32783 h 0.32003 c 0,-0.32002 0.32002,-1.28791 0.32002,-1.93576 v -0.97569 c 0.32783,-0.32002 0.64786,0 0.96788,0 0.32783,0.32783 0.96788,1.29571 1.29572,1.29571 h 0.96007 c 0.64786,0.32003 1.61574,1.29572 1.61574,1.61574 0,0.64786 0,0.32783 -0.32003,0.64786 -0.32783,0.32783 -1.61573,0 -2.57581,0 -0.32783,0 -0.64786,0.32783 -0.97569,0.32783 l -0.96788,0.96788 -0.64005,0.64785 h -0.32783 a 7.3449687,7.3449687 0 0 1 -3.87152,1.94357 h -0.64005 c -0.64786,0 -1.28791,-0.32783 -2.2636,-0.64785 -2.25578,-0.97569 -1.60793,-4.21497 -1.60793,-4.85502 -0.64785,0.64786 -1.2879,0.64786 -2.26359,0.96788 a 8.2738223,8.2738223 0 0 1 -4.8316,-0.32002 c -2.57581,-0.96789 -3.22367,-4.52719 -3.22367,-5.8229 0,0.32002 -0.96788,1.2879 -2.26359,1.61573 -1.28791,0.64786 -3.22367,1.29572 -4.83941,0.64786 -2.57581,-0.64786 -3.54369,-2.59142 -4.8316,-4.21497 -0.32002,0.32783 -0.32002,0.65567 -0.64785,0.97569 -1.28791,0.97569 -3.22367,1.94357 -5.15163,1.94357 -2.90364,-0.32003 -4.8394,-2.91145 -5.16723,-3.87933 -0.64006,0.64005 -2.57582,3.5593 -5.15163,3.87933 -1.94357,0.32783 -3.87933,-0.96788 -5.16724,-1.94357 l -0.64785,-0.64786 c -1.28791,1.62355 -1.92796,3.55931 -4.83941,4.21497 -1.60793,0.64005 -3.54369,0 -4.8394,-0.65566 -1.2801,-0.64005 -2.24799,-1.28791 -2.24799,-1.61574 0,0.96788 -0.64785,4.52719 -3.23147,5.8229 a 8.4143212,8.4143212 0 0 1 -4.8394,0.32783 15.712457,15.712457 0 0 1 -2.25579,-0.97569 c 0,0.64786 0.32783,3.88714 -1.60793,4.85502 -0.96788,0.64786 -1.61574,0.97569 -2.2636,0.97569 h -0.64005 c -1.61573,0 -2.90364,-0.97569 -3.87152,-1.95138 h -0.32003 l -0.64785,-0.64005 c -0.64005,-0.32002 -0.96788,-0.64785 -0.96788,-0.64785 -0.32003,-0.32003 -0.64005,-0.32003 -0.96788,-0.32003 -0.96789,-0.32783 -2.25579,0 -2.57582,0 -0.32783,-0.32783 -0.32783,0 -0.32783,-0.64785 0,-0.64786 0.96788,-1.62355 1.61574,-1.62355 0.64786,-0.32002 0.32002,0 0.96788,0 0.64786,0 0.96788,-0.96788 1.28791,-1.2879 0.32783,-0.32783 0.64785,-0.32783 0.96788,0 0.32783,0.32002 0,0 0,0.96788 0,0.64786 0,1.61574 0.32783,1.94357 h 0.31222 c 0.32783,0 0.65566,0 0.65566,0.32002 v -1.94357 c 0,-0.32002 0,-0.64005 0.31222,-0.96788 0.32783,-0.32002 0.64786,0 0.64786,0 0,0 0.32783,0 0.32783,0.32003 0,0.32783 0.32002,0.64785 0.32002,0.64785 0.32003,0.32784 0.32003,0 0.64786,0.32784 0.64005,0.32002 0.64005,0.32002 0.96788,0.64785 0.32002,0.64786 0,1.29571 0.32002,1.61574 l 0.64786,0.64785 c 0,0.32003 0,0.64786 -0.64786,0.64786 -0.32002,0 -1.93576,-0.64786 -2.57581,-0.64786 0,0.32003 0,0.64786 -0.32783,0.96788 3.5515,2.2636 6.44734,-0.32002 6.12731,-4.20716 h -0.64005 a 2.0840666,2.0840666 0 0 1 -1.93576,-1.93576 c 0,-0.97568 0.96788,-1.95137 1.93576,-1.95137 0.96008,0 1.92796,0.97569 1.92796,1.95137 0,0.32003 0,0.96788 -0.31222,0.96788 0.64005,0.32003 1.60793,0.64786 2.57581,0.96788 3.22367,0.64786 6.76736,-1.2879 6.76736,-5.49506 -0.64005,0 -0.96788,-0.32783 -1.2879,-0.64786 0,0.96788 -0.32003,0.96788 -0.64786,1.61574 -0.31222,0.64785 -0.31222,1.61574 -0.31222,2.26359 0,1.61574 -0.97569,1.61574 -1.29571,1.61574 -0.32783,0 -0.96788,-0.64005 -0.64786,-1.93576 0,-0.64786 -0.64005,-0.64786 -1.2879,-1.61574 -0.32003,-0.32783 -0.64786,-0.97569 -0.64786,-2.26359 0,-0.32783 0.32783,-0.65567 0,-1.30352 l -0.64005,-0.64005 c -0.32783,-0.64786 0,-1.29571 0.64005,-1.29571 0.32783,0 0.96788,0 0.96788,0.32002 0.64786,0.32783 0.96788,0.64786 1.61574,1.29571 0.64005,0.32003 0.96788,0.64786 1.28791,0.64786 0,-0.64786 0.32002,-1.29571 0.96788,-1.61574 h -0.32003 c -0.96788,0.32003 -1.61574,-0.32783 -2.26359,-0.64785 -0.64005,-0.32783 -0.64005,-0.64786 -1.28791,-0.64786 h -0.96788 c -0.32002,-0.32783 -0.64005,-0.64785 -0.32002,-0.97569 0,-0.32002 0.64785,-0.64785 1.2879,-0.64785 h 0.96788 c 0.64786,0 0.64786,-0.64005 0.64786,-0.64005 0,-0.32783 0,-0.64786 0.32002,-0.97569 a 4.6520737,4.6520737 0 0 1 0.96789,-0.64785 h 0.64785 c 0.32003,0 0.64005,0 0.96788,0.32783 0.32003,0 0.64005,0.32002 0.96788,0 l 0.64005,-0.64786 c 0.64786,-0.32783 0.96789,-0.32783 1.29572,-0.32783 0.31222,0 0.31222,0.64786 0.31222,0.97569 0,0.32002 -0.64005,0.64785 -0.64005,0.96788 -0.32003,0.64785 -0.32003,0.96788 -0.64006,1.61573 a 5.7682591,5.7682591 0 0 1 -1.29571,1.62355 l -0.32002,0.32002 c 0.64785,0 1.2879,0.32783 1.61573,0.97569 a 6.9312776,6.9312776 0 0 1 0.96789,-1.62354 c 0.31222,-0.64786 0.31222,-1.29572 0.31222,-1.94357 0,-1.61574 0.97568,-1.61574 1.29571,-1.28791 0.32002,0.32003 0.64785,0.32003 0.64785,1.61574 0,0.64786 0.96788,0.32002 1.60793,1.29571 0.32784,0.32003 0.96789,0.96788 0.64786,2.58362 0,0.32783 -0.32002,0.97569 0,1.29571 0.32003,0.32783 0.32003,0.64786 0.64786,0.97569 0.32002,0.64005 -0.32783,1.2879 -0.96788,1.2879 -0.32784,0 -0.64786,-0.32002 -0.96789,-0.64005 -0.96788,-0.64785 -0.96788,-0.64785 -1.61573,-0.97568 l -1.28791,-0.64786 c -0.32002,0 -0.32002,0 -0.64785,-0.32002 0,0.32002 -0.32003,0.64785 -0.64006,0.96788 a 3.738831,3.738831 0 0 0 2.25579,1.61573 c 3.87153,1.95138 8.06308,-0.96788 8.3831,-4.19935 -1.2879,-0.32783 -2.26359,-1.29571 -2.26359,-2.59142 0,-1.29572 0.97569,-2.59143 2.58362,-2.59143 1.29571,0 2.58361,1.29571 2.58361,2.59143 a 2.4353137,2.4353137 0 0 1 -1.61573,2.26359 c 0.32783,0.32783 0.32783,0.64785 0.64785,0.96788 0.96788,1.62354 2.90365,2.59142 5.80729,1.95137 2.90364,-0.32783 3.87152,-2.91925 4.19155,-3.88713 -0.96788,-0.32783 -1.61574,-0.64786 -1.93576,-1.62355 a 2.4587302,2.4587302 0 0 1 -0.64786,1.29572 c -0.31222,0.32783 -0.96788,1.29571 -0.96788,1.62354 -0.31222,0.64005 -0.64005,0.96788 -0.64005,1.2879 -0.32002,0.32784 -0.64786,0.32784 -0.64786,0.32784 -0.32002,0 -0.64005,-0.64786 -0.64005,-0.97569 0,-0.64005 0,-1.61574 -0.32783,-1.61574 -0.32002,-0.64785 -1.2879,-0.96788 -1.2879,-2.26359 0,-1.61574 0.96788,-1.61574 0.96788,-2.26359 0,-0.32783 -0.32003,-1.62355 -0.32003,-1.95138 0,-0.64005 0.31222,-0.96007 0.64005,-0.96007 0.64786,0 1.29572,0.32002 1.29572,0.64005 0.31221,0.64785 0.64005,0.64785 0.96007,0.97568 0.64786,0.64786 0.96788,0.64786 1.29571,1.29572 0.32003,0.32002 0.32003,0.32002 0.32003,0.64785 A 2.9114488,2.9114488 0 0 1 350,206.95654 h -0.32003 c -0.96788,-0.31222 -1.61573,-0.64005 -1.93576,-1.28791 -0.64785,-0.64785 -0.64785,-0.96788 -1.29571,-0.96788 -0.64005,-0.32783 -0.64005,-0.32783 -0.96007,-0.64785 -0.32784,-0.32784 -0.32784,-0.64786 0,-0.97569 0.31221,-0.32003 0.64005,-0.64786 1.60793,-0.32003 0.64785,0 0.64785,0 0.96788,0.32003 0.64785,0.32783 0.64785,0 0.96788,0 0.32002,-0.32003 0.64785,-0.96788 0.96788,-0.96788 0.64786,-0.32783 0.96788,-0.32783 0.96788,-0.32783 0,0 0.32003,0 0.96788,0.32783 0.64005,0.32002 0.64005,0.96788 0.96788,0.96788 0.32003,0.32783 0.32003,0.32783 0.96788,0 0.64005,-0.32003 0.64005,-0.32003 0.96789,-0.32003 0.64005,0 1.2879,0 1.60793,0.32003 0.32783,0.32783 0.32783,0.64785 0,0.97569 -0.32003,0.32002 -0.32003,0.32002 -0.96788,0.64785 -0.64005,0.32003 -0.64005,0.64005 -1.28791,0.96788 -0.64786,0.64786 -0.96788,0.96788 -1.93576,1.29571 h -0.32003 a 2.9114488,2.9114488 0 0 1 1.93576,1.94357 c 0,-0.32783 0.32003,-0.64785 0.32003,-0.64785 0,0 0,-0.32783 0.32002,-0.32783 l 0.64786,-0.64786 0.32003,-0.32003 c 0,0 0.32783,0 0.32783,-0.32783 0.32002,-0.32002 0.64005,-0.64785 0.64005,-0.96788 l 0.64785,-0.64785 c 0.32003,0 0.32003,-0.32003 0.64786,-0.32003 0.31222,0 0.64005,0.64005 0.64005,0.96788 0,0.64786 -0.32003,1.61574 -0.32003,1.94357 l 0.32003,0.32003 c 0.32002,0.32783 0.64785,0.64785 0.64785,1.62354 v 0.32002 a 2.4743412,2.4743412 0 0 1 -0.64785,1.61574 c -0.32003,0.32783 -0.64005,0.32783 -0.64005,0.64786 0,0.64785 -0.32783,1.29571 -0.32783,1.62354 0,0.31222 -0.32003,0.64005 -0.64005,0.96788 h -0.64786 c 0,0 -0.32002,0 -0.32002,-0.32783 0,0 -0.32783,-0.32003 -0.32783,-0.64005 0,-0.32783 -0.32003,-0.32783 -0.32003,-0.64786 0,-0.32783 -0.32002,-0.32783 -0.32002,-0.64785 -0.32784,-0.32783 -0.64786,-0.64786 -0.64786,-0.97569 -0.32003,-0.64786 -0.64786,-0.96788 -0.64786,-1.61574 a 3.3095289,3.3095289 0 0 1 -1.92795,1.61574 c 0.31222,0.97569 1.2879,3.5593 4.19155,3.88714 a 6.7439457,6.7439457 0 0 0 5.79948,-1.94357 c 0.32783,-0.32003 0.32783,-0.64786 0.64785,-0.96788 h -0.32002 c -1.29571,0 -1.29571,-0.32783 -1.61574,-0.32783 z"
     id="path20"
     inkscape:connector-curvature="0"
     style="fill:#ffffff;stroke-width:7.80549288"
     inkscape:export-filename="C:\Users\suitedoalex\sites\rc-celta-vigo-4.png"
     inkscape:export-xdpi="138.44804"
     inkscape:export-ydpi="138.44804" />
  <path
     d="m 320.65135,205.66863 c 0,-1.61573 1.2879,-3.23928 3.22367,-3.23928 1.61573,0 3.22366,1.62355 3.22366,3.23928 a 3.2392795,3.2392795 0 0 1 -3.22366,3.23928 3.2392795,3.2392795 0 0 1 -3.22367,-3.23928 z m 1.2879,-17.4765 c 0,-1.61573 1.28791,-2.91144 3.22367,-2.91144 1.61574,0 2.90365,1.29571 2.90365,2.91144 0,1.61574 -1.28791,3.23928 -2.90365,3.23928 a 3.2392795,3.2392795 0 0 1 -3.22367,-3.23928 z"
     id="path22"
     inkscape:connector-curvature="0"
     style="fill:#ffffff;stroke-width:7.80549288"
     inkscape:export-filename="C:\Users\suitedoalex\sites\rc-celta-vigo-4.png"
     inkscape:export-xdpi="138.44804"
     inkscape:export-ydpi="138.44804" />
  <path
     d="m 327.09868,184.96066 c 0,-1.29571 0.96789,-2.26359 2.2636,-2.26359 1.2879,0 2.25578,0.96788 2.25578,2.26359 0,1.28791 -0.96788,2.26359 -2.26359,2.26359 a 2.2089545,2.2089545 0 0 1 -2.25579,-2.26359 z"
     id="path24"
     inkscape:connector-curvature="0"
     style="fill:#ffffff;stroke-width:7.80549288"
     inkscape:export-filename="C:\Users\suitedoalex\sites\rc-celta-vigo-4.png"
     inkscape:export-xdpi="138.44804"
     inkscape:export-ydpi="138.44804" />
  <path
     d="m 331.61806,183.66495 c 0,-1.29571 0.96789,-2.26359 2.25579,-2.26359 1.28791,0 2.26359,0.96788 2.26359,2.26359 0,1.29571 -0.97568,2.26359 -2.26359,2.26359 a 2.2089545,2.2089545 0 0 1 -2.26359,-2.26359 z"
     id="path26"
     inkscape:connector-curvature="0"
     style="fill:#ffffff;stroke-width:7.80549288"
     inkscape:export-filename="C:\Users\suitedoalex\sites\rc-celta-vigo-4.png"
     inkscape:export-xdpi="138.44804"
     inkscape:export-ydpi="138.44804" />
  <path
     d="m 336.12964,183.33712 c 0,-0.96788 0.96788,-1.93576 1.93576,-1.93576 0.96788,0 1.93576,0.96788 1.93576,1.93576 0,0.97568 -0.96788,1.95137 -1.93576,1.95137 -0.96788,0 -1.93576,-0.65566 -1.93576,-1.95137 z m 3.87152,0.32783 c 0,-0.97569 0.96788,-1.94357 1.93577,-1.94357 0.96788,0 1.93576,0.96788 1.93576,1.94357 0,0.96788 -0.96788,1.94357 -1.93576,1.94357 -1.28791,0 -1.93577,-0.64786 -1.93577,-1.95138 z"
     id="path28"
     inkscape:connector-curvature="0"
     style="fill:#ffffff;stroke-width:7.80549288"
     inkscape:export-filename="C:\Users\suitedoalex\sites\rc-celta-vigo-4.png"
     inkscape:export-xdpi="138.44804"
     inkscape:export-ydpi="138.44804" />
  <path
     d="m 343.54486,184.63283 c 0,-0.64786 0.64785,-1.29571 1.29571,-1.29571 0.64005,0 1.28791,0.64785 1.28791,1.29571 0,0.64786 -0.64005,1.61574 -1.28791,1.61574 -0.64786,0 -1.28791,-0.64005 -1.28791,-1.61574 z m 2.58362,1.29571 c 0,-0.64785 0.64785,-1.29571 1.2879,-1.29571 0.64786,0 1.29571,0.64786 1.29571,1.29571 0,0.64786 -0.64785,1.29571 -1.29571,1.29571 -0.64005,0 -1.2879,-0.64785 -1.2879,-1.29571 z"
     id="path30"
     inkscape:connector-curvature="0"
     style="fill:#ffffff;stroke-width:7.80549288"
     inkscape:export-filename="C:\Users\suitedoalex\sites\rc-celta-vigo-4.png"
     inkscape:export-xdpi="138.44804"
     inkscape:export-ydpi="138.44804" />
  <path
     d="m 348.38426,187.22425 c 0,-0.97568 0.96788,-1.94356 1.93577,-1.94356 0.96788,0 1.93576,0.96788 1.93576,1.94356 0,0.96788 -0.64005,1.94357 -1.93576,1.94357 -0.96789,-0.32783 -1.93577,-0.97569 -1.93577,-1.95137 z"
     id="path32"
     inkscape:connector-curvature="0"
     style="fill:#ffffff;stroke-width:7.80549288"
     inkscape:export-filename="C:\Users\suitedoalex\sites\rc-celta-vigo-4.png"
     inkscape:export-xdpi="138.44804"
     inkscape:export-ydpi="138.44804" />
  <path
     d="m 348.06424,191.10358 c 0,-1.29571 0.96788,-2.26359 2.26359,-2.26359 1.28791,0 2.24798,0.96788 2.24798,2.26359 0,1.29571 -0.96007,2.2636 -2.25578,2.2636 a 2.2089545,2.2089545 0 0 1 -2.25579,-2.2636 z"
     id="path34"
     inkscape:connector-curvature="0"
     style="fill:#ffffff;stroke-width:7.80549288"
     inkscape:export-filename="C:\Users\suitedoalex\sites\rc-celta-vigo-4.png"
     inkscape:export-xdpi="138.44804"
     inkscape:export-ydpi="138.44804" />
  <path
     d="m 347.74421,195.9586 c 0,-1.61574 1.28791,-2.59142 2.57582,-2.59142 1.61573,0 2.57581,1.29571 2.57581,2.59142 a 2.5445906,2.5445906 0 0 1 -2.57581,2.59142 c -1.60794,0 -2.57582,-0.96788 -2.57582,-2.59142 z"
     id="path36"
     inkscape:connector-curvature="0"
     style="fill:#ffffff;stroke-width:7.80549288"
     inkscape:export-filename="C:\Users\suitedoalex\sites\rc-celta-vigo-4.png"
     inkscape:export-xdpi="138.44804"
     inkscape:export-ydpi="138.44804" />
  <path
     d="m 346.77633,202.10933 a 3.5905267,3.5905267 0 0 1 3.5437,-3.55931 3.5905267,3.5905267 0 0 1 3.55149,3.55931 3.5905267,3.5905267 0 0 1 -3.55149,3.5593 c -1.93577,-0.32002 -3.5437,-1.61573 -3.5437,-3.5593 z m -41.93111,18.44438 a 2.9036435,2.9036435 0 1 1 5.80729,0 2.9036435,2.9036435 0 1 1 -5.80729,0 z"
     id="path38"
     inkscape:connector-curvature="0"
     style="fill:#ffffff;stroke-width:7.80549288"
     inkscape:export-filename="C:\Users\suitedoalex\sites\rc-celta-vigo-4.png"
     inkscape:export-xdpi="138.44804"
     inkscape:export-ydpi="138.44804" />
  <path
     d="m 301.94158,215.37867 c 0,-1.61574 1.61574,-3.23928 3.23148,-3.23928 1.60793,0 3.22366,1.29571 3.22366,3.23928 0,1.61573 -1.61573,3.23147 -3.22366,3.23147 -1.93577,0 -3.22367,-1.28791 -3.22367,-3.23147 z"
     id="path40"
     inkscape:connector-curvature="0"
     style="fill:#ffffff;stroke-width:7.80549288"
     inkscape:export-filename="C:\Users\suitedoalex\sites\rc-celta-vigo-4.png"
     inkscape:export-xdpi="138.44804"
     inkscape:export-ydpi="138.44804" />
  <path
     d="m 300.9737,209.87579 a 2.9036445,2.9036445 0 1 1 5.80729,0 2.8880323,2.8880323 0 0 1 -2.90365,2.91145 c -1.60793,0 -2.90364,-1.61573 -2.90364,-2.91145 z m 0.96788,-5.82289 c 0,-1.62355 1.29571,-2.59143 2.58362,-2.59143 1.61574,0 2.57581,1.29571 2.57581,2.59143 a 2.5445906,2.5445906 0 0 1 -2.57581,2.58361 c -1.28791,0.32783 -2.57581,-0.96788 -2.57581,-2.58361 z"
     id="path42"
     inkscape:connector-curvature="0"
     style="fill:#ffffff;stroke-width:7.80549288"
     inkscape:export-filename="C:\Users\suitedoalex\sites\rc-celta-vigo-4.png"
     inkscape:export-xdpi="138.44804"
     inkscape:export-ydpi="138.44804" />
  <path
     d="m 304.5252,199.84574 c 0,-1.29572 0.96788,-2.59143 2.57581,-2.59143 1.29571,0 2.58362,0.97569 2.58362,2.59143 a 2.5445906,2.5445906 0 0 1 -2.57581,2.58361 c -1.61574,-0.32002 -2.58362,-1.2879 -2.58362,-2.58361 z"
     id="path44"
     inkscape:connector-curvature="0"
     style="fill:#ffffff;stroke-width:7.80549288"
     inkscape:export-filename="C:\Users\suitedoalex\sites\rc-celta-vigo-4.png"
     inkscape:export-xdpi="138.44804"
     inkscape:export-ydpi="138.44804" />
  <path
     d="m 307.74887,196.60646 c 0,-1.29572 0.96788,-2.2636 2.26359,-2.2636 1.28791,0 2.25579,0.96788 2.25579,2.2636 0,1.29571 -0.96788,2.26359 -2.26359,2.26359 -1.28791,-0.32003 -2.25579,-1.28791 -2.25579,-2.26359 z"
     id="path46"
     inkscape:connector-curvature="0"
     style="fill:#ffffff;stroke-width:7.80549288"
     inkscape:export-filename="C:\Users\suitedoalex\sites\rc-celta-vigo-4.png"
     inkscape:export-xdpi="138.44804"
     inkscape:export-ydpi="138.44804" />
  <path
     d="m 311.62039,194.67069 c 0,-0.97568 0.96788,-1.95137 1.93576,-1.95137 0.96789,0 1.93577,0.97569 1.93577,1.95137 0,0.96788 -0.96788,1.93577 -1.93577,1.93577 -0.96788,0 -1.93576,-0.96789 -1.93576,-1.94357 z m 3.87153,-0.64785 c 0,-0.97569 0.64005,-1.62355 1.60793,-1.62355 0.96788,0 1.61573,0.64786 1.61573,1.62355 0,0.96788 -0.64785,1.61573 -1.61573,1.61573 -0.96008,0 -1.60793,-0.64785 -1.60793,-1.61573 z m 58.04945,11.64579 c 0,-1.61573 1.2879,-3.23928 3.22366,-3.23928 1.61574,0 3.22367,1.62355 3.22367,3.23928 a 3.2392795,3.2392795 0 0 1 -3.22367,3.23928 c -1.60793,0 -3.22366,-1.62354 -3.22366,-3.23928 z m -1.28791,-17.4765 c 0,-1.61573 1.28791,-2.91144 3.22367,-2.91144 1.61574,0 2.90364,1.29571 2.90364,2.91144 0,1.61574 -1.2879,3.23928 -2.90364,3.23928 -1.60793,0 -3.22367,-1.62354 -3.22367,-3.23928 z"
     id="path48"
     inkscape:connector-curvature="0"
     style="fill:#ffffff;stroke-width:7.80549288"
     inkscape:export-filename="C:\Users\suitedoalex\sites\rc-celta-vigo-4.png"
     inkscape:export-xdpi="138.44804"
     inkscape:export-ydpi="138.44804" />
  <path
     d="m 368.70196,184.96066 c 0,-1.29571 0.96788,-2.26359 2.26359,-2.26359 1.28791,0 2.25579,0.96788 2.25579,2.26359 0,1.28791 -0.96788,2.26359 -2.26359,2.26359 -0.96008,0 -2.25579,-0.97568 -2.25579,-2.26359 z"
     id="path50"
     inkscape:connector-curvature="0"
     style="fill:#ffffff;stroke-width:7.80549288"
     inkscape:export-filename="C:\Users\suitedoalex\sites\rc-celta-vigo-4.png"
     inkscape:export-xdpi="138.44804"
     inkscape:export-ydpi="138.44804" />
  <path
     d="m 364.51041,183.66495 c 0,-1.29571 0.96788,-2.26359 2.26359,-2.26359 1.28791,0 2.25579,0.96788 2.25579,2.26359 0,1.29571 -0.96788,2.26359 -2.26359,2.26359 a 2.2089545,2.2089545 0 0 1 -2.25579,-2.26359 z"
     id="path52"
     inkscape:connector-curvature="0"
     style="fill:#ffffff;stroke-width:7.80549288"
     inkscape:export-filename="C:\Users\suitedoalex\sites\rc-celta-vigo-4.png"
     inkscape:export-xdpi="138.44804"
     inkscape:export-ydpi="138.44804" />
  <path
     d="m 360.63889,183.33712 c 0,-0.96788 0.96788,-1.93576 1.93576,-1.93576 0.96788,0 1.93576,0.96788 1.93576,1.93576 0,0.97568 -0.96788,1.95137 -1.93576,1.95137 -0.96788,0 -1.92796,-0.65566 -1.92796,-1.95137 z"
     id="path54"
     inkscape:connector-curvature="0"
     style="fill:#ffffff;stroke-width:7.80549288"
     inkscape:export-filename="C:\Users\suitedoalex\sites\rc-celta-vigo-4.png"
     inkscape:export-xdpi="138.44804"
     inkscape:export-ydpi="138.44804" />
  <path
     d="m 357.09519,183.66495 c 0,-0.97569 0.64786,-1.94357 1.93576,-1.94357 0.96789,0 1.93577,0.96788 1.93577,1.94357 0,0.96788 -0.96788,1.94357 -1.93577,1.94357 -1.2879,0 -1.93576,-0.64786 -1.93576,-1.95138 z m -2.90364,0.96788 c 0,-0.64786 0.64786,-1.29571 1.61574,-1.29571 0.64005,0 1.2879,0.64785 1.2879,1.29571 0,0.64786 -0.64785,1.61574 -1.2879,1.61574 -0.96788,0 -1.61574,-0.64005 -1.61574,-1.61574 z"
     id="path56"
     inkscape:connector-curvature="0"
     style="fill:#ffffff;stroke-width:7.80549288"
     inkscape:export-filename="C:\Users\suitedoalex\sites\rc-celta-vigo-4.png"
     inkscape:export-xdpi="138.44804"
     inkscape:export-ydpi="138.44804" />
  <path
     d="m 351.93576,185.92854 c 0,-0.64785 0.64005,-1.29571 1.28791,-1.29571 0.64785,0 1.2879,0.64786 1.2879,1.29571 0,0.64786 -0.64005,1.29571 -1.2879,1.29571 -0.64005,0 -1.28791,-0.64785 -1.28791,-1.29571 z m 40.31537,29.45013 c 0,-1.61574 1.28791,-3.23928 3.22367,-3.23928 a 3.23928,3.23928 0 0 1 0,6.47856 c -1.93576,0 -3.22367,-1.29572 -3.22367,-3.23928 z"
     id="path58"
     inkscape:connector-curvature="0"
     style="fill:#ffffff;stroke-width:7.80549288"
     inkscape:export-filename="C:\Users\suitedoalex\sites\rc-celta-vigo-4.png"
     inkscape:export-xdpi="138.44804"
     inkscape:export-ydpi="138.44804" />
  <path
     d="m 393.85906,209.87579 a 2.8880323,2.8880323 0 0 1 2.90365,-2.91145 2.8880323,2.8880323 0 0 1 2.90364,2.91145 2.8880323,2.8880323 0 0 1 -2.90364,2.91145 c -1.60793,-0.32002 -2.90365,-1.61573 -2.90365,-2.91145 z m -0.64005,-5.82289 c 0,-1.29572 1.28791,-2.59143 2.57582,-2.59143 1.61573,0 2.57581,1.29571 2.57581,2.59143 a 2.5445906,2.5445906 0 0 1 -2.57581,2.58361 c -1.28791,0.32783 -2.57582,-0.96788 -2.57582,-2.58361 z"
     id="path60"
     inkscape:connector-curvature="0"
     style="fill:#ffffff;stroke-width:7.80549288"
     inkscape:export-filename="C:\Users\suitedoalex\sites\rc-celta-vigo-4.png"
     inkscape:export-xdpi="138.44804"
     inkscape:export-ydpi="138.44804" />
  <path
     d="m 391.28325,199.84574 c 0,-1.29572 0.96788,-2.2636 2.25579,-2.2636 1.2879,0 2.26359,0.96788 2.26359,2.2636 0,1.29571 -0.97569,2.26359 -2.26359,2.26359 -0.96788,0 -2.26359,-0.96788 -2.26359,-2.26359 z"
     id="path62"
     inkscape:connector-curvature="0"
     style="fill:#ffffff;stroke-width:7.80549288"
     inkscape:export-filename="C:\Users\suitedoalex\sites\rc-celta-vigo-4.png"
     inkscape:export-xdpi="138.44804"
     inkscape:export-ydpi="138.44804" />
  <path
     d="m 388.37961,196.60646 c 0,-1.29572 0.96788,-2.2636 2.26359,-2.2636 1.2801,0 2.24798,0.96788 2.24798,2.2636 0,1.29571 -0.96788,2.26359 -2.25578,2.26359 -1.28791,-0.32003 -2.2636,-1.28791 -2.2636,-2.26359 z"
     id="path64"
     inkscape:connector-curvature="0"
     style="fill:#ffffff;stroke-width:7.80549288"
     inkscape:export-filename="C:\Users\suitedoalex\sites\rc-celta-vigo-4.png"
     inkscape:export-xdpi="138.44804"
     inkscape:export-ydpi="138.44804" />
  <path
     d="m 385.14813,194.67069 c 0,-0.97568 0.64786,-1.95137 1.93577,-1.95137 0.96788,0 1.93576,0.97569 1.93576,1.95137 0,0.96788 -0.96008,1.93577 -1.92796,1.93577 -1.29571,0 -1.93576,-0.96789 -1.93576,-1.94357 z m -3.54369,-0.64785 c 0,-0.97569 0.64786,-1.62355 1.61574,-1.62355 0.96788,0 1.60793,0.64786 1.60793,1.62355 0,0.96788 -0.64005,1.61573 -1.60793,1.61573 -0.64786,0 -1.61574,-0.64785 -1.61574,-1.61573 z m -62.88105,-0.64786 c 0,-1.62354 1.60793,-3.23928 3.21586,-3.23928 a 3.23928,3.23928 0 0 1 0,6.47856 c -1.60793,-0.32783 -3.22367,-1.62354 -3.22367,-3.23928 z"
     id="path66"
     inkscape:connector-curvature="0"
     style="fill:#ffffff;stroke-width:7.80549288"
     inkscape:export-filename="C:\Users\suitedoalex\sites\rc-celta-vigo-4.png"
     inkscape:export-xdpi="138.44804"
     inkscape:export-ydpi="138.44804" />
  <path
     d="m 318.72339,193.37498 c 0,-1.62354 1.60793,-3.23928 3.21586,-3.23928 a 3.23928,3.23928 0 0 1 0,6.47856 c -1.60793,-0.32783 -3.22367,-1.62354 -3.22367,-3.23928 z"
     id="path68"
     inkscape:connector-curvature="0"
     style="fill:#ffffff;stroke-width:7.80549288"
     inkscape:export-filename="C:\Users\suitedoalex\sites\rc-celta-vigo-4.png"
     inkscape:export-xdpi="138.44804"
     inkscape:export-ydpi="138.44804" />
  <path
     d="m 317.42768,199.84574 a 3.5905267,3.5905267 0 0 1 3.54369,-3.55931 3.5905267,3.5905267 0 0 1 3.5515,3.55931 3.5905267,3.5905267 0 0 1 -3.5515,3.5593 3.5905267,3.5905267 0 0 1 -3.54369,-3.5593 z m 58.04945,-6.47076 c 0,-1.62354 1.2879,-3.23928 2.90364,-3.23928 1.61574,0 3.22367,1.29571 3.22367,3.23928 0,1.61574 -1.28791,2.91145 -3.22367,2.91145 -1.93576,0 -2.90364,-1.29571 -2.90364,-2.91145 z m 0.32002,6.47076 a 3.5905267,3.5905267 0 0 1 3.5515,-3.55931 3.5905267,3.5905267 0 0 1 3.5437,3.55931 3.5905267,3.5905267 0 0 1 -3.5437,3.5593 3.5905267,3.5905267 0 0 1 -3.5515,-3.5593 z M 350,229.61588 342.58478,225.0887 350,220.56151 l 7.41522,4.52719 c -2.57581,1.2879 -4.83941,2.91145 -7.41522,4.52718 z"
     id="path70"
     inkscape:connector-curvature="0"
     style="fill:#ffffff;stroke-width:7.80549288"
     inkscape:export-filename="C:\Users\suitedoalex\sites\rc-celta-vigo-4.png"
     inkscape:export-xdpi="138.44804"
     inkscape:export-ydpi="138.44804" />
  <path
     d="m 350,221.52159 c 1.93576,0.97569 3.54369,2.26359 5.47946,3.23928 L 350,228.00015 l -5.15943,-3.23928 5.15162,-3.23928 z m 24.50925,5.8307 -11.28675,-3.88713 -1.93576,5.8307 11.61458,3.87933 z"
     id="path72"
     inkscape:connector-curvature="0"
     style="fill:#ffffff;stroke-width:7.80549288"
     inkscape:export-filename="C:\Users\suitedoalex\sites\rc-celta-vigo-4.png"
     inkscape:export-xdpi="138.44804"
     inkscape:export-ydpi="138.44804" />
  <path
     d="m 373.54137,228.00015 -9.99103,-3.23928 -0.97569,3.5593 9.67881,3.55931 z m 11.93459,2.91145 v 3.5593 l -3.22366,1.61574 -2.90365,-4.85502 z"
     id="path74"
     inkscape:connector-curvature="0"
     style="fill:#ffffff;stroke-width:7.80549288"
     inkscape:export-filename="C:\Users\suitedoalex\sites\rc-celta-vigo-4.png"
     inkscape:export-xdpi="138.44804"
     inkscape:export-ydpi="138.44804" />
  <path
     d="m 386.12382,231.23162 h -6.45514 l 3.22367,4.85502 c 0.32783,0.64785 -0.31222,0.97568 -0.64005,0.97568 l -3.22367,-6.47855 c 0,0 0.64005,0 7.41522,-0.64786 0,0 0,1.29571 -0.32003,1.29571 z m -60.63307,-3.87933 11.60677,-3.88713 1.61574,5.8307 -11.28675,3.87933 z"
     id="path76"
     inkscape:connector-curvature="0"
     style="fill:#ffffff;stroke-width:7.80549288"
     inkscape:export-filename="C:\Users\suitedoalex\sites\rc-celta-vigo-4.png"
     inkscape:export-xdpi="138.44804"
     inkscape:export-ydpi="138.44804" />
  <path
     d="m 326.77866,228.00015 9.67881,-3.23928 1.28791,3.5593 -9.99884,3.55931 z m -11.60677,2.91145 0.31222,3.5593 3.23147,1.61574 2.57582,-4.85502 z"
     id="path78"
     inkscape:connector-curvature="0"
     style="fill:#ffffff;stroke-width:7.80549288"
     inkscape:export-filename="C:\Users\suitedoalex\sites\rc-celta-vigo-4.png"
     inkscape:export-xdpi="138.44804"
     inkscape:export-ydpi="138.44804" />
  <path
     d="m 314.84406,231.23162 h 6.45514 l -3.23147,4.85502 c -0.31222,0.64785 0.32783,0.97568 0.64785,0.97568 l 3.22367,-6.47855 c 0,0 -0.64005,0 -7.41521,-0.64786 -0.32003,0 -0.32003,1.29571 0.32002,1.29571 z m 75.14348,-10.67791 a 2.903645,2.903645 0 1 1 5.80729,0 2.8880323,2.8880323 0 0 1 -2.90365,2.91145 2.8880323,2.8880323 0 0 1 -2.90364,-2.91145 z m -82.23867,37.21659 c 2.90364,36.56873 17.09403,66.01885 46.12265,88.99042 -2.57581,2.59142 -4.8394,4.85502 -6.12731,5.8307 -30.96439,-25.24296 -48.37844,-63.42743 -48.70627,-103.23544 h 98.0526 v 8.41432 z"
     id="path80"
     inkscape:connector-curvature="0"
     style="fill:#ffffff;stroke-width:7.80549288"
     inkscape:export-filename="C:\Users\suitedoalex\sites\rc-celta-vigo-4.png"
     inkscape:export-xdpi="138.44804"
     inkscape:export-ydpi="138.44804" />
  <path
     d="m 397.40276,267.80816 h -77.07144 c 5.15163,33.32945 16.12615,52.09386 41.60328,70.86607 1.60793,-1.94357 3.86372,-3.88714 5.47945,-5.50287 -23.22134,-16.50081 -33.22017,-34.953 -36.76387,-56.95668 h 66.76038 v -8.40652 z"
     id="path82"
     inkscape:connector-curvature="0"
     style="fill:#ffffff;stroke-width:7.80549288"
     inkscape:export-filename="C:\Users\suitedoalex\sites\rc-celta-vigo-4.png"
     inkscape:export-xdpi="138.44804"
     inkscape:export-ydpi="138.44804" />
</svg>
