<?xml version="1.0" encoding="UTF-8" standalone="no"?>
<svg
   xmlns:dc="http://purl.org/dc/elements/1.1/"
   xmlns:cc="http://creativecommons.org/ns#"
   xmlns:rdf="http://www.w3.org/1999/02/22-rdf-syntax-ns#"
   xmlns:svg="http://www.w3.org/2000/svg"
   xmlns="http://www.w3.org/2000/svg"
   xmlns:sodipodi="http://sodipodi.sourceforge.net/DTD/sodipodi-0.dtd"
   xmlns:inkscape="http://www.inkscape.org/namespaces/inkscape"
   viewBox="-16 -1 700 700"
   enable-background="new -16 -1 100 100"
   version="1.1"
   id="svg34"
   sodipodi:docname="rcd-espanyol-logo.svg"
   width="700"
   height="700"
   inkscape:version="0.92.0 r15299"
   inkscape:export-filename="C:\Users\suitedoalex\sites\espanyol-logo-0.png"
   inkscape:export-xdpi="561.73712"
   inkscape:export-ydpi="561.73712">
  <metadata
     id="metadata40">
    <rdf:RDF>
      <cc:Work
         rdf:about="">
        <dc:format>image/svg+xml</dc:format>
        <dc:type
           rdf:resource="http://purl.org/dc/dcmitype/StillImage" />
        <dc:title></dc:title>
      </cc:Work>
    </rdf:RDF>
  </metadata>
  <defs
     id="defs38" />
  <sodipodi:namedview
     pagecolor="#ffffff"
     bordercolor="#666666"
     borderopacity="1"
     objecttolerance="10"
     gridtolerance="10"
     guidetolerance="10"
     inkscape:pageopacity="0"
     inkscape:pageshadow="2"
     inkscape:window-width="1920"
     inkscape:window-height="1017"
     id="namedview36"
     showgrid="false"
     inkscape:zoom="0.59"
     inkscape:cx="394.64234"
     inkscape:cy="384.62626"
     inkscape:window-x="-8"
     inkscape:window-y="-8"
     inkscape:window-maximized="1"
     inkscape:current-layer="svg34" />
  <path
     d="M 125.93676,29.127887 H 542.06319 V 628.87211 H 125.93676 Z"
     id="path2"
     inkscape:connector-curvature="0"
     style="fill:none;stroke-width:6.12283802"
     inkscape:export-filename="C:\Users\suitedoalex\sites\espanyol-logo-4.png"
     inkscape:export-xdpi="92.27964"
     inkscape:export-ydpi="92.27964" />
  <path
     d="m 504.72613,306.70675 a 207.56421,207.56421 0 0 0 -85.87281,-70.12486 31.526493,31.526493 0 0 0 14.4499,-7.54946 c 6.36775,-5.9759 8.66381,-15.26424 5.87792,-23.73212 1.0715,-1.3654 1.92257,-2.72467 2.74916,-4.04108 l 0.90005,-1.40825 a 130.27562,130.27562 0 0 0 13.24983,-27.23438 c 3.32469,-9.69246 6.28202,-20.54825 5.38198,-34.25116 -0.42247,-5.61464 -1.98993,-10.00472 -3.36756,-13.88047 l -0.52658,-1.5001 c -1.70826,-4.62274 -3.93697,-7.78824 -6.09222,-10.85579 l -0.42247,-0.61229 c -7.26782,-10.3782 -17.9093,-17.04598 -30.75502,-19.27469 -5.83505,-1.04088 -13.22533,-0.86332 -18.78486,0.45309 a 23.266784,23.266784 0 0 0 -2.63283,0.79597 48.756159,48.756159 0 0 0 -6.05549,-5.57178 c -6.95554,-5.51056 -19.3053,-10.996623 -33.16128,-9.87002 -0.39799,0.03671 -0.79598,0.08572 -1.18784,0.134704 a 23.658646,23.658646 0 0 0 -0.60004,-2.142996 18.460357,18.460357 0 0 0 -0.94292,-2.467504 32.757183,32.757183 0 0 0 -0.5633,-1.255176 l -0.56942,-1.040886 a 29.879449,29.879449 0 0 0 -0.79595,-1.347024 11.572164,11.572164 0 0 0 -0.98579,-1.426621 25.752657,25.752657 0 0 0 -1.45111,-1.81236 l -0.69801,-0.728618 -0.12245,-0.122457 h 4.80643 V 39.083621 H 346.861 v -9.949612 h -26.0037 v 9.955735 h -9.66797 v 26.756802 h 4.77583 a 25.495497,25.495497 0 0 0 -6.36163,11.082333 26.677205,26.677205 0 0 0 -0.47147,1.793993 41.776124,41.776124 0 0 0 -3.91861,-0.208177 c -11.89054,0 -22.87493,3.979845 -30.91421,11.168055 a 44.641611,44.641611 0 0 0 -4.40844,4.53091 35.757374,35.757374 0 0 0 -4.59212,-1.16334 73.425073,73.425073 0 0 0 -4.77582,-0.52044 l -1.17559,-0.12247 -0.46533,-0.0612 -2.31444,-0.33676 -0.0183,0.18369 c -3.09816,-0.11021 -5.97589,0.46533 -8.06378,0.8572 -0.33675,0.0735 -0.65514,0.11021 -1.20008,0.18368 l -1.45723,0.24492 c -19.25633,4.54315 -33.58989,19.97881 -37.3983,40.25153 a 53.391147,53.391147 0 0 0 -0.82046,13.71516 c 1.32865,19.53797 7.53109,32.77555 14.3152,45.73148 l 0.7531,1.40825 c 1.86746,3.53288 4.14516,7.83723 7.16372,11.49257 -1.46948,4.5064 -1.45112,9.8945 0.10409,14.7193 2.24097,6.80859 7.56171,12.10484 14.97034,14.91523 1.17558,0.44697 2.39403,0.82046 3.64921,1.1266 a 207.63768,207.63768 0 0 0 -85.67688,70.41875 c -24.17296,34.37362 -36.95132,74.67413 -36.95132,116.55435 0,113.07044 93.3549,205.05996 208.09689,205.05996 114.69913,0 208.02954,-91.98952 208.02954,-205.05996 0,-42.119 -12.91306,-82.60934 -37.33706,-117.1054"
     id="path4"
     inkscape:connector-curvature="0"
     style="fill:#fefefe;stroke-width:6.12283802"
     inkscape:export-filename="C:\Users\suitedoalex\sites\espanyol-logo-4.png"
     inkscape:export-xdpi="92.27964"
     inkscape:export-ydpi="92.27964" />
  <path
     d="m 136.22312,424.63873 c 0,-107.45581 88.54848,-194.58379 197.81053,-194.58379 109.19469,0 197.74318,87.12798 197.74318,194.58379 0,107.45581 -88.54849,194.57767 -197.74318,194.57767 -109.26205,0 -197.81053,-87.12186 -197.81053,-194.57767"
     id="path6"
     inkscape:connector-curvature="0"
     style="fill:#e01517;stroke-width:6.12283802"
     inkscape:export-filename="C:\Users\suitedoalex\sites\espanyol-logo-4.png"
     inkscape:export-xdpi="92.27964"
     inkscape:export-ydpi="92.27964" />
  <path
     d="m 159.9981,424.82242 c 0,-3.72881 3.67371,-6.73512 8.22298,-6.73512 4.46354,0 8.16786,3.00019 8.16786,6.73512 0,3.68594 -3.6982,6.72287 -8.16786,6.72287 -4.54927,0 -8.22298,-3.03693 -8.22298,-6.72287 m 328.3678,0 c 0,-3.72881 3.64921,-6.73512 8.16786,-6.73512 4.55539,0 8.1985,3.00019 8.1985,6.73512 0,3.68594 -3.64311,6.72287 -8.1985,6.72287 -4.51865,0 -8.16786,-3.03693 -8.16786,-6.72287 m -279.3606,-85.18705 -7.79438,1.64705 c 1.42662,2.81037 1.2307,5.64525 -0.43471,8.35155 -2.77977,4.35945 -8.63321,3.09203 -13.04165,0.6184 -4.40232,-2.5226 -8.43727,-6.93718 -6.42898,-11.68849 1.2062,-2.91448 3.18388,-4.54927 6.12283,-5.10033 l -2.27769,-7.3474 c -5.02685,1.13884 -8.17399,3.83289 -10.71496,8.52298 -4.32273,8.03929 0.85719,18.66854 9.09241,23.377 8.25359,4.66561 19.50736,4.01046 24.10561,-4.46967 2.50424,-4.70846 3.06142,-8.84138 1.37152,-13.91109 m 12.08647,-34.16544 c 3.80229,3.47778 5.29014,9.80267 1.78176,13.58046 l -2.43077,2.55935 -14.12539,-14.1009 2.38178,-2.52261 c 3.33083,-3.53288 8.86588,-2.79814 12.39262,0.4837 m 6.02488,-6.41061 c -6.93717,-6.39836 -17.68276,-6.63715 -24.11785,0.24491 l -8.33931,8.86588 25.61796,25.38529 8.26583,-8.84138 c 6.73511,-7.13311 5.7126,-18.95632 -1.42663,-25.6547 m 195.4716,11.1497 18.85222,-31.06116 -7.21271,-4.67786 -10.72109,17.62154 0.33676,-24.22195 -7.22495,-4.68398 -18.83385,31.01831 7.26781,4.65335 10.65374,-17.5603 -0.34288,24.23419 z m -42.49249,-36.24109 -6.18406,-1.61031 5.63301,-9.69245 z m 9.57612,16.4582 -3.94923,-37.91263 -7.01677,-1.82459 -20.79316,31.57547 7.81887,4.05332 3.888,-6.62492 10.9109,2.82263 0.41022,7.69642 z M 343.9649,258.50164 c 0,3.1349 -3.22062,4.92889 -6.22081,4.92889 h -1.37764 v -9.87614 h 1.37764 c 3.00019,0 6.22081,1.83685 6.22081,4.94725 m 8.62707,0.007 c 0,-7.78824 -7.28005,-13.12736 -14.84176,-13.12736 h -9.90674 v 36.60845 h 8.5291 v -10.37869 h 1.37764 c 7.56171,0 14.84176,-5.27789 14.84176,-13.10288 m -38.37794,13.73966 c -1.02864,-5.43708 -5.2289,-7.85561 -10.43332,-9.34958 l -2.49199,-0.68575 c -2.61446,-0.75312 -4.81868,-1.14498 -4.64723,-3.31859 0.0551,-1.38376 0.94291,-2.59607 2.18585,-2.86548 1.95318,-0.48983 3.99209,-0.63066 5.31462,0.80209 l 3.82065,-6.88819 c -3.31245,-2.48588 -6.67389,-2.83488 -10.78844,-1.89808 -5.1738,1.1266 -9.98022,6.71063 -8.9271,12.6008 1.10211,5.93915 6.19631,7.88622 11.82932,9.6251 l 2.09402,0.69188 c 1.75113,0.58779 3.37368,1.18783 3.68594,3.06142 a 3.7655453,3.7655453 0 0 1 -2.4675,4.1819 c -2.40015,0.7776 -5.19829,0.20205 -6.26367,-2.1185 l -4.1023,7.16372 c 3.44716,3.31857 8.16175,3.77166 12.06199,2.96957 6.18408,-1.35314 10.32311,-7.61069 9.12916,-13.97231 m -32.12653,18.41749 -3.20225,-7.42088 -11.63339,5.29626 -2.77977,-6.36163 9.48427,-4.30435 -3.21448,-7.4515 -9.4904,4.3166 -2.03278,-4.69009 11.10682,-5.07583 -3.25736,-7.46375 -18.87669,8.69444 14.51111,33.4062 z m 193.58577,24.27706 -3.67983,-8.17399 -16.52554,4.91663 5.92691,-16.64187 -7.69028,-4.37783 -6.98004,23.30964 -9.87002,9.44754 5.91467,6.52083 9.82103,-9.46591 z m 6.71675,38.58612 c -5.08808,3.03693 -10.6415,3.94923 -13.20084,-0.60616 -2.54711,-4.56764 0.97353,-9.01282 6.12283,-12.08036 5.1187,-3.06142 10.63538,-3.93086 13.17635,0.62453 2.58384,4.54315 -0.97353,9.00057 -6.09834,12.06199 m 4.29823,7.70866 c 8.2842,-4.9044 13.34166,-15.28261 8.59647,-23.78723 -4.78806,-8.523 -16.06633,-9.23324 -24.33216,-4.2615 -8.23522,4.87991 -13.28656,15.27648 -8.54749,23.77498 4.81256,8.49238 16.06633,9.1965 24.28318,4.27375 m -7.08412,40.86381 7.70252,-1.97768 -3.04917,-12.40486 26.79967,-6.87595 -2.03279,-8.52299 -34.51443,8.83525 z m -301.05995,70.41836 c -4.91052,1.42663 -10.8558,-0.59392 -12.14159,-5.66362 l -0.82046,-3.4594 19.08489,-4.89827 0.85107,3.43491 c 1.12048,4.78194 -2.35117,9.20874 -6.97391,10.58638 m 2.09401,8.59035 c 8.93934,-2.60833 14.78053,-11.87219 12.59468,-21.12992 l -2.90835,-11.97015 -34.48995,8.82301 2.90223,11.92729 c 2.27769,9.68021 12.6008,15.10504 21.90139,12.34977 m 1.70827,41.51896 6.9433,-3.95536 -6.18406,-11.46807 5.90853,-3.38593 5.0391,9.37407 6.9188,-3.96148 -5.00848,-9.31284 4.37783,-2.53486 5.85956,10.93539 6.93717,-3.98597 -9.98635,-18.53994 -31.13463,17.69499 z m 48.01529,33.60213 c -1.53071,1.97768 -3.97985,1.16334 -6.86983,-1.08374 l -1.02863,-0.89393 4.12679,-5.46158 1.08375,0.8572 c 3.04917,2.4369 4.18802,4.6105 2.68792,6.58205 m 7.12698,-11.89055 c -1.10211,1.50009 -2.70015,1.40826 -5.33298,-0.66127 l -1.02252,-0.78372 3.4288,-4.54927 0.94904,0.73475 c 2.64505,2.14911 3.06142,3.88188 1.97766,5.25951 m -0.88169,18.00114 c 2.52262,-3.31857 2.14301,-7.46373 -0.0612,-11.07009 3.44103,0.81435 6.63103,-0.0245 8.81688,-2.93284 3.83289,-5.02072 0.28165,-11.46807 -5.05747,-15.79692 l -7.59232,-6.04936 -21.88301,28.83244 8.28419,6.56369 c 5.75547,4.70234 13.32941,5.98201 17.49294,0.45308 m 31.58773,12.25793 -5.83505,-2.6818 7.20044,-8.55361 z m 6.6739,17.9093 2.52261,-38.03507 -6.61267,-3.00631 -25.80776,27.38745 7.05352,5.32075 4.91051,-5.77384 10.29249,4.70234 -0.91842,7.65355 z m 35.41449,-16.648 c -0.37349,2.53486 -3.38592,3.50226 -5.89016,3.12265 l -1.3409,-0.20205 1.23068,-8.07602 1.35315,0.18368 c 3.94311,0.66127 5.05745,2.30218 4.64723,4.97174 z m 8.78628,23.377 -7.67192,-13.13349 a 11.419093,11.419093 0 0 0 7.44537,-8.89648 c 1.09599,-7.2372 -4.95949,-13.20084 -12.00076,-14.40091 l -9.75368,-1.53684 -5.55341,36.11862 8.43726,1.38376 1.81849,-11.92729 1.32253,0.19594 7.89846,14.74991 z m 41.32304,-3.02468 -5.56567,-5.84732 c -1.43275,2.73692 -3.90637,4.16966 -6.99229,4.16966 -5.03909,0 -7.27393,-5.8167 -7.60456,-10.97825 -0.37961,-5.14319 1.06538,-10.97212 6.04936,-11.89055 2.96959,-0.56942 5.41872,0.25104 7.4515,2.5471 l 4.78806,-5.99426 c -3.72268,-3.73493 -7.59233,-4.97174 -12.83348,-4.55539 -8.89648,0.63677 -14.72542,10.88028 -14.08251,20.51763 0.66126,9.69858 7.3474,19.07264 16.72759,18.4175 5.25339,-0.41636 8.90872,-2.21647 12.062,-6.38612 m 38.25547,-5.75547 -2.29606,-7.84948 -12.18445,3.85126 -1.98992,-6.64939 9.93736,-3.10428 -2.31443,-7.81275 -9.94961,3.15939 -1.4205,-4.91665 11.6089,-3.6737 -2.35729,-7.76987 -19.7584,6.15956 10.37209,35.03489 z m 52.80948,-55.86478 c 4.10842,4.34722 6.30653,9.67409 2.65119,13.28656 -3.6737,3.68595 -8.74953,1.24294 -12.8151,-3.15326 -4.18802,-4.35946 -6.36163,-9.66184 -2.70629,-13.2988 3.69819,-3.64922 8.73729,-1.24294 12.8702,3.1655 m 6.23917,-6.24529 c -6.6494,-7.01678 -17.65214,-9.55775 -24.50359,-2.70629 -6.81472,6.79634 -4.81868,18.23993 1.81848,25.27507 6.6494,7.04126 17.6399,9.60061 24.52809,2.77977 6.88207,-6.8086 4.78194,-18.24606 -1.84298,-25.34855 m -21.55238,42.84762 -3.85128,-7.11474 -10.83742,6.21468 -13.37839,-24.84035 -7.52498,4.24925 17.32764,31.9857 z m 60.48751,-111.63158 -1.34702,6.45959 -9.6251,-5.50443 z m 15.68671,-10.36597 -36.74927,5.32075 -1.49398,7.26169 31.41016,20.27884 3.62473,-8.16175 -6.54532,-3.6982 2.34505,-11.35786 7.48211,-0.64902 z m -13.42126,49.12353 -31.11626,-17.72562 -4.11455,7.69642 17.62765,10.0292 -23.5117,0.91843 -4.19414,7.67192 31.12851,17.71337 4.15128,-7.65967 -17.66438,-10.03534 23.57292,-0.9368 z M 169.06603,378.76031 c 2.48587,0.57554 3.23285,3.69819 2.6818,6.26978 l -0.30614,1.32866 -7.73314,-1.80012 0.30001,-1.37763 c 0.88169,-3.97985 2.61445,-5.00236 5.05747,-4.42069 z m 23.32189,-7.35965 -13.22533,6.93104 c -1.19396,-4.29823 -4.34109,-7.35964 -8.14338,-8.27195 -6.93718,-1.62255 -13.15185,4.19415 -14.71931,11.24154 l -2.25932,9.91899 34.65526,8.27195 1.91645,-8.54748 -11.43134,-2.71854 0.27553,-1.3164 14.8234,-7.127 -1.89196,-8.39441 z"
     id="path8"
     inkscape:connector-curvature="0"
     style="fill:#f5d10d;stroke-width:6.12283802"
     inkscape:export-filename="C:\Users\suitedoalex\sites\espanyol-logo-4.png"
     inkscape:export-xdpi="92.27964"
     inkscape:export-ydpi="92.27964" />
  <path
     d="m 203.43964,424.59587 c 0,-69.28603 58.49146,-125.48756 130.60013,-125.48756 72.05355,0 130.50217,56.21377 130.50217,125.48756 0,69.27379 -58.45473,125.45083 -130.50829,125.45083 -72.10255,0 -130.60014,-56.17704 -130.59401,-125.45083"
     id="path10"
     inkscape:connector-curvature="0"
     style="fill:#fefefe;stroke-width:6.12283802"
     inkscape:export-filename="C:\Users\suitedoalex\sites\espanyol-logo-4.png"
     inkscape:export-xdpi="92.27964"
     inkscape:export-ydpi="92.27964" />
  <g
     transform="matrix(6.122838,0,0,6.122838,203.43351,298.92462)"
     id="g28"
     inkscape:export-filename="C:\Users\suitedoalex\sites\espanyol-logo-4.png"
     inkscape:export-xdpi="92.27964"
     inkscape:export-ydpi="92.27964">
    <path
       d="M 0,20.525 C 0,9.209 9.554,0.03 21.33,0.03 c 11.77,0 21.316,9.181 21.316,20.495 0,11.314 -9.547,20.489 -21.316,20.489 C 9.553,41.014 0,31.839 0,20.525"
       id="path12"
       inkscape:connector-curvature="0"
       style="fill:#fefefe" />
    <defs
       id="defs17">
      <filter
         id="a"
         filterUnits="userSpaceOnUse"
         x="-6.3239999"
         y="-12.587"
         width="57.386002"
         height="64.107002">
        <feColorMatrix
           values="1 0 0 0 0 0 1 0 0 0 0 0 1 0 0 0 0 0 1 0"
           id="feColorMatrix14" />
      </filter>
    </defs>
    <mask
       maskUnits="userSpaceOnUse"
       x="-6.324"
       y="-12.587"
       width="57.386"
       height="64.107"
       id="b">
      <g
         id="g21"
         style="filter:url(#a)">
        <path
           d="M 0,20.525 C 0,9.209 9.554,0.03 21.33,0.03 c 11.77,0 21.316,9.181 21.316,20.495 0,11.314 -9.547,20.489 -21.316,20.489 C 9.553,41.014 0,31.839 0,20.525"
           id="path19"
           inkscape:connector-curvature="0"
           style="fill:#ffffff" />
      </g>
    </mask>
    <g
       mask="url(#b)"
       id="g26">
      <path
         d="M 45.32,7.86 51.062,13.773 14.378,51.52 8.633,45.605 Z M 36.782,-1.268 42.52,4.65 5.836,42.391 0.096,36.473 Z m -6.425,-11.319 5.74,5.919 -36.679,37.74 -5.742,-5.91 z"
         id="path24"
         inkscape:connector-curvature="0"
         style="fill:#0077bd" />
    </g>
  </g>
  <path
     d="m 427.73144,150.33559 a 56.317863,56.317863 0 0 1 -2.5471,12.23343 c -0.10408,0.35512 -0.2694,0.66739 -0.38574,1.01639 -0.12246,0.49595 -0.30614,0.88169 -0.37961,1.2613 -0.23267,0.59392 -0.33675,1.01027 -0.5082,1.5001 -0.17144,0.52044 -0.42859,0.94904 -0.63065,1.42662 a 9.4842756,9.4842756 0 0 1 -0.64903,1.66542 c -0.24491,0.59391 -0.51432,1.15721 -0.7531,1.81235 -0.31839,0.61228 -0.67351,1.29192 -0.99802,1.94094 -0.36125,0.71637 -0.75312,1.39601 -1.10824,2.08789 -0.43472,0.80209 -0.85719,1.61031 -1.28579,2.43076 -1.29192,2.3022 -2.82263,4.60438 -4.35334,6.74125 -2.50424,3.50839 -5.03297,6.49021 -4.76969,12.8947 a 21.797303,21.797303 0 0 0 -12.20894,3.86963 c -1.01639,0.71025 -1.83685,1.92257 -2.80426,2.61445 -0.0306,0.0612 -0.2694,0.11021 -0.38573,0.098 0,0 -0.049,-0.34288 -0.0735,-0.40411 0,0 0.12858,-0.24491 0.0735,-0.33675 a 30.626436,30.626436 0 0 0 -0.34289,-2.35117 13.806999,13.806999 0 0 0 -3.50839,-6.6739 c -0.86943,-0.87556 -1.6899,-1.71439 -2.70016,-2.44914 -2.00829,-1.54907 -1.54908,-0.93066 0,-2.52872 2.70016,-2.73079 4.25536,-7.92908 6.06161,-11.78647 4.65336,-10.28636 8.56585,-21.57075 10.21901,-35.07161 0.52044,-4.4513 0.90006,-9.8394 0.23267,-14.65196 1.74501,-0.55105 3.82678,-0.78372 5.97588,-0.97352 6.66165,-0.56331 11.59666,2.78589 14.52338,6.56368 0.50208,0.71637 1.23069,1.42049 1.65929,2.31443 1.7695,3.56962 1.89808,7.57395 1.71439,12.39262 0.0919,0.007 -0.0674,2.01442 -0.0674,2.36342 m -54.52999,14.24784 c -1.21233,2.90835 -2.4675,5.81058 -3.69819,8.69444 -1.26131,2.93896 -3.1104,5.62688 -3.37369,9.67408 -0.12857,2.07564 0.45309,3.62472 0.74086,5.26564 -5.48605,1.57357 -10.12717,4.40844 -12.45997,9.32508 -2.74915,-6.26979 -4.97787,-8.24134 -10.69047,-11.22317 1.00414,-1.5307 1.91644,-3.53899 2.27157,-5.88404 0.29389,-1.91645 0.14082,-4.21251 0.14082,-6.38612 v -56.87504 c 3.64922,-1.82461 7.78213,-3.39818 12.67428,-3.78392 6.67389,-0.53268 11.65788,1.53072 15.1234,4.59214 1.97769,1.77562 3.71045,3.6737 4.78806,6.47795 4.43294,11.59054 -1.98991,31.4469 -5.51667,40.12296 m -58.58944,31.99795 c -0.14695,0.44085 -0.24491,0.84495 -0.36737,1.38989 -0.7225,-0.71638 -1.10211,-1.5552 -1.71439,-2.4124 -2.41852,-3.31858 -6.63716,-5.89017 -11.14357,-6.85758 1.68378,-7.02289 -0.43472,-10.18228 -2.58996,-15.15402 -1.43274,-3.15326 -2.99406,-6.42898 -4.16353,-9.75981 -6.84533,-18.96242 -14.19886,-47.70915 12.45998,-49.895 6.01875,-0.50208 10.88641,1.92869 15.09279,3.66145 0.43472,4.60438 0.0919,9.94349 0.0919,14.72543 v 33.47355 c 0,4.83704 -0.60004,11.30277 0.17144,15.69284 0.37349,2.0634 1.29191,3.68595 2.19197,5.18604 -4.26762,2.18585 -8.45564,4.87991 -10.02921,9.94961 m -33.645,-4.17577 a 15.552008,15.552008 0 0 0 -3.12264,3.15326 c -1.83685,2.26545 -3.19,4.8799 -3.19,9.04955 -2.68793,-2.04502 -5.10645,-4.40844 -8.70668,-5.43707 -1.9838,-0.64903 -3.95535,-0.86945 -6.59429,-1.29805 0.58779,-5.91466 -2.09401,-8.93934 -4.22476,-12.13546 -1.56745,-2.30832 -3.30633,-4.67785 -4.62887,-7.13924 -2.04503,-3.77165 -4.24924,-7.66578 -5.70035,-11.93952 -2.75529,-7.91071 -6.22693,-22.91167 -1.30417,-31.06728 2.69405,-4.635 7.04126,-7.7209 13.5131,-8.19236 2.60221,-0.098 5.20441,0.25104 7.69641,1.01639 -0.62453,4.5309 -0.35513,9.47203 0.18368,13.81924 1.68378,14.21111 5.79221,25.48326 10.48843,36.36353 1.52458,3.6431 2.92671,7.92908 5.29625,10.73335 0.60004,0.66126 1.28579,1.40213 1.91645,1.94706 -0.61841,0.36736 -1.06538,0.72862 -1.62256,1.1266 m 171.09047,-51.79921 c -0.36738,-5.02073 -1.97768,-9.04956 -3.33695,-12.91919 -1.40825,-3.8084 -3.39817,-6.4902 -5.46157,-9.44754 -5.63301,-8.06378 -14.14988,-13.81312 -25.24446,-15.74794 -4.83705,-0.85719 -11.05172,-0.67351 -15.50915,0.39186 -1.13885,0.22655 -6.61267,2.42465 -7.11474,2.24709 -0.23267,-0.0612 -1.92257,-2.51037 -2.19809,-2.841 -1.53072,-1.95931 -4.01046,-4.19414 -5.90855,-5.67587 -6.01875,-4.77582 -16.10918,-8.96384 -27.13029,-8.05766 -3.44716,0.31839 -6.45347,1.22457 -9.56387,1.68378 0.0612,-1.13272 0.17756,-2.31443 0.23878,-3.57574 v -0.58166 c 0,-0.42248 -0.0612,-0.85108 -0.0796,-1.27355 -0.0367,-0.15308 -0.0367,-0.27553 -0.0367,-0.4286 -0.0122,-0.14083 -0.0122,-0.2939 -0.0612,-0.48983 0,-0.15308 -0.0674,-0.26329 -0.0796,-0.40411 a 20.119645,20.119645 0 0 0 -0.47758,-2.14912 2.3572927,2.3572927 0 0 0 -0.14695,-0.42859 10.525159,10.525159 0 0 0 -0.698,-1.818482 9.9189977,9.9189977 0 0 0 -0.36125,-0.826589 c -0.31839,-0.551049 -0.6429,-1.151087 -0.99802,-1.696025 a 4.4268118,4.4268118 0 0 0 -0.41636,-0.587795 18.056249,18.056249 0 0 0 -1.04087,-1.32865 c -0.12859,-0.09797 -0.20206,-0.232672 -0.34901,-0.342882 a 16.76433,16.76433 0 0 0 -7.427,-4.696216 v -9.741434 h 9.58824 v -9.839402 h -9.58836 V 40.17964 h -9.56388 v 9.857768 h -9.55161 v 9.833279 h 9.55161 v 9.735311 a 2.8654882,2.8654882 0 0 0 -0.27552,0.116334 c -1.35926,0.446968 -2.63283,1.040883 -3.82676,1.836852 -0.1837,0.09185 -0.36738,0.17144 -0.53269,0.306144 -0.71639,0.465334 -1.40825,1.040877 -2.10014,1.732762 -2.28382,2.191974 -3.93086,4.959502 -4.75744,8.00867 -0.89393,2.93896 -1.01028,6.06161 -0.32451,9.05568 -3.75331,-0.61841 -7.39027,-1.61643 -11.73136,-1.61643 -10.54965,0 -19.44613,3.77167 -25.37917,9.08017 -2.60832,2.26545 -4.65948,5.21053 -7.16372,7.59232 l -0.11021,0.20818 c -0.48983,0.13469 -1.5307,-0.61229 -1.9593,-0.79597 -1.91646,-0.66739 -3.99822,-1.42662 -6.04325,-1.794 -2.18585,-0.33063 -4.21251,-0.39186 -6.30039,-0.69187 h -0.15308 c -2.54098,-0.28778 -5.2289,0.20204 -7.31679,0.5939 -0.90006,0.1837 -1.69602,0.26329 -2.52873,0.398 -15.49078,3.65532 -27.68747,16.34185 -30.90197,33.41844 -0.65514,3.25736 -0.91843,7.35965 -0.65514,11.28439 1.21232,17.84808 6.88207,29.79373 13.20697,41.86797 2.82875,5.31462 6.04936,11.93341 10.85579,14.99483 -0.74699,1.14497 -1.66542,2.16748 -2.16137,3.52063 -1.27355,2.98182 -1.2062,7.01678 -0.2143,10.10268 3.75943,11.40072 21.10543,14.27846 31.65508,7.81275 4.70234,-2.841 7.27393,-6.17182 7.95969,-13.19472 8.77402,9.17201 27.81605,8.7924 34.83895,-1.95931 0.85107,-1.34702 1.396,-2.96957 2.00828,-4.70233 1.20008,1.82459 2.30832,3.74717 3.94311,5.07583 7.61069,6.52082 22.45857,6.50857 30.106,0 1.65929,-1.39601 2.75527,-3.30022 3.97984,-5.13707 3.8329,11.41298 17.91543,15.88876 30.36928,10.79457 2.58996,-1.04088 4.65336,-2.94508 6.69838,-4.65336 0,11.17418 11.55992,17.74398 22.96064,16.61126 a 23.260661,23.260661 0 0 0 13.56822,-5.99426 c 3.33694,-3.12264 5.65749,-8.73116 3.52675,-14.8785 -0.54494,-1.61643 -1.68378,-2.69404 -2.36341,-4.17577 3.48389,-2.24708 4.7207,-4.73295 6.97391,-8.24746 a 119.72597,119.72597 0 0 0 12.22729,-25.13425 c 2.90223,-8.41891 5.68199,-18.32565 4.88604,-30.43663"
     id="path30"
     inkscape:connector-curvature="0"
     style="fill:#f5d10d;stroke-width:6.12283802"
     inkscape:export-filename="C:\Users\suitedoalex\sites\espanyol-logo-4.png"
     inkscape:export-xdpi="92.27964"
     inkscape:export-ydpi="92.27964" />
  <path
     d="m 257.00834,127.39331 c -6.47183,0.47147 -10.81904,3.55737 -13.51309,8.19236 -4.92276,8.15562 -1.45113,23.15657 1.30416,31.06728 1.45112,4.27374 3.65533,8.16786 5.69423,11.93953 1.32254,2.46139 3.06142,4.83704 4.64112,7.13924 2.12463,3.19611 4.80642,6.2208 4.22476,12.13546 2.63281,0.4286 4.60438,0.64902 6.58816,1.29804 3.60024,1.03476 6.01876,3.39206 8.70668,5.43708 0,-4.16353 1.35315,-6.77186 3.18388,-9.04955 0.92455,-1.22457 1.91645,-2.24096 3.12264,-3.15326 0.56332,-0.39186 1.01028,-0.75924 1.62869,-1.13273 a 26.144518,26.144518 0 0 1 -1.91646,-1.94707 c -2.36953,-2.80425 -3.77166,-7.09024 -5.29625,-10.73333 -4.69009,-10.88028 -8.80464,-22.15242 -10.48843,-36.36965 -0.5388,-4.34722 -0.8082,-9.2761 -0.18368,-13.81313 a 23.217802,23.217802 0 0 0 -7.69641,-1.01027 m 101.79832,-14.00293 c -4.89215,0.38574 -9.03119,1.95931 -12.67428,3.78392 v 56.87504 c 0,2.17361 0.14694,4.46967 -0.14082,6.38612 -0.35513,2.34505 -1.26743,4.34722 -2.27158,5.88404 5.71261,2.98183 7.94745,4.95951 10.69048,11.22317 2.3328,-4.92276 6.98004,-7.75151 12.45997,-9.32508 -0.28777,-1.64092 -0.87557,-3.19 -0.74086,-5.26564 0.26329,-4.0472 2.11238,-6.73512 3.37369,-9.67408 1.23069,-2.88386 2.48586,-5.78609 3.69819,-8.69444 3.52676,-8.67606 9.94961,-28.53242 5.51055,-40.12296 -1.07149,-2.81037 -2.80425,-4.70233 -4.78194,-6.47795 -3.4594,-3.06142 -8.44951,-5.12482 -15.1234,-4.59214 m -51.71349,0.50208 c -26.65884,2.18585 -19.30531,30.93258 -12.45998,49.895 1.16946,3.33083 2.73079,6.60655 4.16353,9.75981 2.15524,4.97174 4.27374,8.13113 2.59608,15.1479 4.50029,0.97966 8.71893,3.54512 11.14357,6.8637 0.60616,0.85108 0.97965,1.6899 1.71439,2.4124 a 13.653929,13.653929 0 0 1 0.36737,-1.38989 c 1.56745,-5.0697 5.75548,-7.76376 10.02309,-9.94961 -0.90006,-1.50009 -1.83073,-3.12264 -2.19197,-5.18604 -0.77148,-4.39007 -0.17144,-10.84967 -0.17144,-15.69284 v -33.47355 c 0,-4.77581 0.34287,-10.12105 -0.0919,-14.72543 -4.20638,-1.73276 -9.07404,-4.16353 -15.09279,-3.66145 m 102.79632,12.8151 c -2.14911,0.1898 -4.22476,0.42247 -5.97588,0.97965 0.66739,4.80643 0.28777,10.19453 -0.23879,14.64583 -1.65317,13.50086 -5.55954,24.78525 -10.2129,35.07162 -1.80624,3.85738 -3.36144,9.05567 -6.06161,11.78646 -1.54908,1.59194 -2.00829,0.97966 0,2.5226 1.01027,0.73475 1.83685,1.5797 2.70017,2.46139 1.62868,1.80011 2.90835,3.78391 3.50838,6.66777 0.13471,0.70412 0.26941,1.65929 0.34289,2.35117 0.049,0.098 -0.0735,0.39798 -0.0735,0.39798 l 0.0735,0.34288 c 0.12246,0.0122 0.36124,-0.0367 0.38574,-0.098 0.96741,-0.69188 1.78787,-1.91033 2.80426,-2.61445 a 21.827918,21.827918 0 0 1 12.21506,-3.86964 c -0.26941,-6.41061 2.26545,-9.39243 4.76357,-12.90082 1.53071,-2.14299 3.06142,-4.43905 4.35946,-6.73512 0.42248,-0.82658 0.84495,-1.6348 1.27967,-2.43689 0.35512,-0.69188 0.74698,-1.37152 1.10823,-2.08789 0.32452,-0.64902 0.67352,-1.33478 0.99803,-1.94094 0.24491,-0.65514 0.50819,-1.22457 0.7531,-1.81235 a 9.1842569,9.1842569 0 0 0 0.64903,-1.67154 c 0.19593,-0.47146 0.45308,-0.90006 0.63064,-1.4205 0.1837,-0.48983 0.27553,-0.90618 0.50821,-1.5001 0.0796,-0.37961 0.26327,-0.76535 0.37961,-1.2613 0.12858,-0.349 0.28778,-0.66127 0.38574,-1.01639 a 55.962739,55.962739 0 0 0 2.55322,-12.23343 c 0,-0.349 0.15307,-2.3573 0.0612,-2.3573 0.17144,-4.81866 0.049,-8.823 -1.70828,-12.39262 -0.44084,-0.89394 -1.16334,-1.59193 -1.67153,-2.31443 -2.92061,-3.77779 -7.85561,-7.12698 -14.51725,-6.56368"
     id="path32"
     inkscape:connector-curvature="0"
     style="fill:#e01517;stroke-width:6.12283802"
     inkscape:export-filename="C:\Users\suitedoalex\sites\espanyol-logo-4.png"
     inkscape:export-xdpi="92.27964"
     inkscape:export-ydpi="92.27964" />
</svg>
