<?xml version="1.0" encoding="UTF-8" standalone="no"?>
<!-- Generator: Adobe Illustrator 26.3.1, SVG Export Plug-In . SVG Version: 6.00 Build 0)  -->

<svg
   xmlns:dc="http://purl.org/dc/elements/1.1/"
   xmlns:cc="http://creativecommons.org/ns#"
   xmlns:rdf="http://www.w3.org/1999/02/22-rdf-syntax-ns#"
   xmlns:svg="http://www.w3.org/2000/svg"
   xmlns="http://www.w3.org/2000/svg"
   xmlns:sodipodi="http://sodipodi.sourceforge.net/DTD/sodipodi-0.dtd"
   xmlns:inkscape="http://www.inkscape.org/namespaces/inkscape"
   version="1.1"
   id="Layer_1"
   x="0px"
   y="0px"
   viewBox="0 0 700.00001 699.99998"
   xml:space="preserve"
   sodipodi:docname="real-valladolid-logo.svg"
   width="700"
   height="700"
   inkscape:version="0.92.0 r15299"
   inkscape:export-filename="C:\Users\suitedoalex\sites\real-valladolid-logo-0.png"
   inkscape:export-xdpi="561.73712"
   inkscape:export-ydpi="561.73712"><metadata
     id="metadata153"><rdf:RDF><cc:Work
         rdf:about=""><dc:format>image/svg+xml</dc:format><dc:type
           rdf:resource="http://purl.org/dc/dcmitype/StillImage" /><dc:title></dc:title></cc:Work></rdf:RDF></metadata><defs
     id="defs151" /><sodipodi:namedview
     pagecolor="#ffffff"
     bordercolor="#666666"
     borderopacity="1"
     objecttolerance="10"
     gridtolerance="10"
     guidetolerance="10"
     inkscape:pageopacity="0"
     inkscape:pageshadow="2"
     inkscape:window-width="1920"
     inkscape:window-height="1017"
     id="namedview149"
     showgrid="false"
     inkscape:zoom="0.50840215"
     inkscape:cx="730.07046"
     inkscape:cy="91.262741"
     inkscape:window-x="-8"
     inkscape:window-y="-8"
     inkscape:window-maximized="1"
     inkscape:current-layer="g146" /><style
     type="text/css"
     id="style2">
	.st0{fill:#63257E;}
	.st1{fill:#C8342C;}
	.st2{fill:none;}
	.st3{fill:#F4CF45;}
	.st4{fill:#FFFFFF;}
	.st5{fill:#5B2C7A;}
</style><g
     id="g146"
     transform="translate(0,393.45999)"><g
       id="g144"
       transform="matrix(2.059522,0,0,2.059522,178.1492,-340.8045)"
       inkscape:export-filename="C:\Users\suitedoalex\sites\real-valladolid-logo-4.png"
       inkscape:export-xdpi="109.64668"
       inkscape:export-ydpi="109.64668"><g
         id="g138"><g
           id="g88"><path
             class="st1"
             d="m 80.47,43.2 v -9.54 c -7.18,0.2 -13.91,1.11 -19.7,2.55 0,0.11 -0.01,0.21 -0.01,0.31 0,2.49 0.59,4.92 1.68,7.12 2.5,0.04 4.62,1.84 5.06,4.31 0.21,1.15 0.02,2.27 -0.46,3.24 0.31,0.06 0.62,0.09 0.95,0.05 0.79,-0.1 1.49,-0.49 1.98,-1.12 0.12,-0.15 0.23,-0.32 0.31,-0.49 -0.42,-0.55 -0.68,-1.23 -0.68,-1.98 0,-1.81 1.47,-3.28 3.28,-3.28 1.81,0 3.28,1.47 3.28,3.28 0,0.58 -0.17,1.13 -0.43,1.6 0.54,0.78 1.45,1.29 2.48,1.29 0.3,0 0.59,-0.07 0.87,-0.16 -0.55,-0.83 -0.87,-1.82 -0.87,-2.89 0,-1.77 0.89,-3.34 2.26,-4.29 z"
             id="path78"
             inkscape:connector-curvature="0"
             style="fill:#c8342c" /><path
             class="st1"
             d="m 109.72,49.81 c -0.18,1 -0.63,1.88 -1.27,2.59 0.21,0.1 0.44,0.17 0.68,0.21 0.93,0.16 1.84,-0.17 2.46,-0.8 -0.13,-0.35 -0.21,-0.73 -0.21,-1.13 0,-1.81 1.47,-3.28 3.28,-3.28 1.81,0 3.28,1.47 3.28,3.28 0,0.91 -0.38,1.74 -0.98,2.33 0.3,0.83 0.97,1.51 1.88,1.76 0.25,0.07 0.5,0.09 0.75,0.09 -0.14,-0.47 -0.22,-0.96 -0.22,-1.48 0,-2.13 1.32,-3.97 3.2,-4.75 0.24,-1.07 0.37,-2.17 0.37,-3.29 0,-0.42 -0.02,-0.83 -0.05,-1.23 -0.02,-0.02 -0.03,-0.04 -0.05,-0.06 -0.27,-0.27 -0.55,-0.54 -0.86,-0.81 -0.03,-0.03 -0.07,-0.06 -0.11,-0.09 -0.28,-0.24 -0.57,-0.47 -0.87,-0.7 -0.1,-0.07 -0.2,-0.15 -0.31,-0.22 -0.26,-0.19 -0.52,-0.37 -0.8,-0.55 -0.12,-0.08 -0.23,-0.15 -0.35,-0.23 -0.3,-0.19 -0.6,-0.37 -0.92,-0.55 -0.1,-0.06 -0.2,-0.12 -0.31,-0.18 -0.87,-0.49 -1.82,-0.96 -2.83,-1.42 -0.04,-0.02 -0.08,-0.03 -0.11,-0.05 -0.46,-0.21 -0.94,-0.41 -1.43,-0.6 -0.1,-0.04 -0.21,-0.08 -0.31,-0.12 -0.44,-0.17 -0.9,-0.34 -1.36,-0.51 -0.06,-0.02 -0.12,-0.04 -0.19,-0.07 -0.21,3.17 -1.11,6.26 -2.61,9.03 0.33,0.91 0.43,1.87 0.25,2.83 z"
             id="path80"
             inkscape:connector-curvature="0"
             style="fill:#c8342c" /><path
             class="st1"
             d="m 104.47,43.64 c 1.09,-2.2 1.68,-4.63 1.68,-7.12 0,-0.11 -0.01,-0.21 -0.01,-0.31 -5.79,-1.43 -12.53,-2.35 -19.7,-2.55 v 9.53 c 1.36,0.95 2.26,2.52 2.26,4.31 0,1.07 -0.32,2.06 -0.87,2.89 0.28,0.09 0.57,0.15 0.87,0.16 0.01,0 0.03,0 0.04,0 1.01,0 1.91,-0.51 2.44,-1.29 -0.27,-0.48 -0.44,-1.02 -0.44,-1.6 0,-1.81 1.47,-3.28 3.28,-3.28 1.81,0 3.28,1.47 3.28,3.28 0,0.75 -0.26,1.43 -0.68,1.98 0.09,0.17 0.19,0.34 0.31,0.49 0.49,0.62 1.19,1.02 1.98,1.12 0.32,0.04 0.64,0.01 0.94,-0.05 -0.49,-1 -0.66,-2.12 -0.46,-3.24 0.46,-2.48 2.58,-4.28 5.08,-4.32 z"
             id="path82"
             inkscape:connector-curvature="0"
             style="fill:#c8342c" /><path
             class="st1"
             d="m 53.29,38.55 c -0.1,0.04 -0.21,0.08 -0.31,0.12 -0.5,0.2 -1,0.41 -1.47,0.62 -0.02,0.01 -0.04,0.02 -0.07,0.03 -1.03,0.46 -1.99,0.94 -2.88,1.45 -0.06,0.03 -0.11,0.07 -0.17,0.1 -0.38,0.22 -0.74,0.43 -1.09,0.66 -0.07,0.04 -0.13,0.08 -0.2,0.13 -0.35,0.23 -0.69,0.46 -1.02,0.7 -0.03,0.02 -0.07,0.05 -0.1,0.07 -0.73,0.55 -1.39,1.11 -1.95,1.69 -0.03,0.41 -0.05,0.82 -0.05,1.24 0,1.12 0.13,2.23 0.37,3.3 1.88,0.79 3.2,2.62 3.2,4.75 0,0.51 -0.08,1.01 -0.22,1.48 0.25,0 0.5,-0.02 0.75,-0.09 0.91,-0.26 1.58,-0.93 1.88,-1.76 -0.6,-0.6 -0.98,-1.42 -0.98,-2.33 0,-1.81 1.47,-3.28 3.28,-3.28 1.81,0 3.28,1.47 3.28,3.28 0,0.4 -0.08,0.77 -0.21,1.13 0.62,0.63 1.52,0.95 2.46,0.8 0.24,-0.04 0.46,-0.12 0.67,-0.21 -0.64,-0.71 -1.1,-1.59 -1.27,-2.59 C 57,48.85 57.1,47.89 57.45,47 c -1.5,-2.77 -2.4,-5.85 -2.61,-9.03 -0.06,0.02 -0.13,0.05 -0.19,0.07 -0.47,0.17 -0.92,0.34 -1.36,0.51 z"
             id="path84"
             inkscape:connector-curvature="0"
             style="fill:#c8342c" /><path
             class="st1"
             d="m 51.67,59.44 c 0.04,0.02 0.07,0.03 0.11,0.05 8.86,-2.01 19.87,-3.43 31.74,-3.43 11.86,0 22.76,1.42 31.6,3.43 0.47,-0.21 0.94,-0.42 1.39,-0.64 -1.28,-0.58 -2.34,-1.5 -3.09,-2.62 -1.13,0.68 -2.45,1.07 -3.82,1.07 -0.41,0 -0.82,-0.03 -1.24,-0.1 -1.84,-0.31 -3.46,-1.28 -4.61,-2.74 -1.27,0.92 -2.82,1.46 -4.46,1.46 -0.31,0 -0.62,-0.02 -0.93,-0.06 -1.84,-0.22 -3.49,-1.09 -4.72,-2.46 -1.33,1.12 -3.03,1.8 -4.9,1.8 -0.04,0 -0.07,0 -0.11,0 -1.96,-0.03 -3.78,-0.79 -5.18,-2.15 -1.4,1.36 -3.23,2.12 -5.18,2.15 -0.04,0 -0.07,0 -0.11,0 -1.86,0 -3.57,-0.68 -4.9,-1.8 -1.23,1.36 -2.88,2.23 -4.72,2.46 -0.31,0.04 -0.62,0.06 -0.93,0.06 -1.65,0 -3.2,-0.54 -4.46,-1.46 -1.15,1.46 -2.77,2.43 -4.61,2.74 -0.42,0.07 -0.83,0.1 -1.24,0.1 -1.38,0 -2.69,-0.39 -3.82,-1.06 -0.75,1.12 -1.81,2.04 -3.1,2.63 0.02,0.01 0.04,0.02 0.07,0.03 0.4,0.18 0.81,0.36 1.22,0.54 z"
             id="path86"
             inkscape:connector-curvature="0"
             style="fill:#c8342c" /></g><g
           id="g94"><g
             id="g92"><path
               class="st2"
               d="m 164.42,83.04 c -0.33,-5.4 -2.39,-6.88 -4.84,-8.2 -10.15,-5.62 -42.53,-10.05 -76.13,-10.35 -33.6,0.3 -65.98,4.73 -76.13,10.35 -2.46,1.33 -4.51,2.8 -4.84,8.2 -4.72,67.43 9.85,109.39 22.98,135.58 14.8,29.53 36.13,51.44 57.09,58.68 0.8,0.26 1.05,0.25 1.94,-0.05 20.92,-7.29 42.19,-29.16 56.96,-58.64 13.12,-26.18 27.69,-68.14 22.97,-135.57 z"
               id="path90"
               inkscape:connector-curvature="0"
               style="fill:none" /></g></g><path
           class="st1"
           d="M 158.48,76.88 C 148.63,71.43 116.38,67.1 83.45,66.81 50.52,67.1 18.27,71.43 8.44,76.87 6.54,77.89 5.07,78.69 4.79,83.18 1.7,127.38 6.47,165.49 19.34,199 L 160.79,78.6 c -0.63,-0.81 -1.42,-1.24 -2.31,-1.72 z"
           id="path96"
           inkscape:connector-curvature="0"
           style="fill:#c8342c" /><g
           id="g108"><path
             class="st3"
             d="m 4.04,118.48 c 0.24,7.8 0.77,15.4 1.59,22.8 21.78,-0.43 49.06,-2.76 81.12,-9.03 C 53.76,131.52 26,125.64 4.04,118.48 Z"
             id="path98"
             inkscape:connector-curvature="0"
             style="fill:#f4cf45" /><path
             class="st3"
             d="M 136.85,89.57 C 97.48,84.78 66.58,76.66 44.31,69.05 27.59,70.89 14.19,73.68 8.44,76.86 c -1.9,1.02 -3.37,1.82 -3.65,6.31 0,0.03 0,0.06 -0.01,0.09 17.93,4.38 63.64,12.76 132.07,6.31 z"
             id="path100"
             inkscape:connector-curvature="0"
             style="fill:#f4cf45" /><path
             class="st3"
             d="M 60.23,154.73 C 39.92,152.9 21.84,149.21 6.02,144.59 c 0.75,6.11 1.71,12.08 2.86,17.93 15.31,-0.83 32.46,-3.17 51.35,-7.79 z"
             id="path102"
             inkscape:connector-curvature="0"
             style="fill:#f4cf45" /><path
             class="st3"
             d="m 9.53,165.68 c 0.99,4.68 2.12,9.28 3.37,13.8 7.51,-0.92 15.42,-2.42 23.75,-4.62 -8.33,-1.09 -17.58,-4.45 -27.12,-9.18 z"
             id="path104"
             inkscape:connector-curvature="0"
             style="fill:#f4cf45" /><path
             class="st3"
             d="M 4.56,86.8 C 3.97,96.47 3.77,105.85 3.95,114.94 28,117.37 64.07,118.38 110.33,112.13 62.73,108.28 27.34,96.78 4.56,86.8 Z"
             id="path106"
             inkscape:connector-curvature="0"
             style="fill:#f4cf45" /></g><path
           class="st3"
           d="m 83.45,64.49 c 10.54,0.09 20.96,0.6 30.62,1.41 l 0.87,-4.41 c -7.23,-1.66 -18.08,-3.44 -31.42,-3.44 -10.74,0 -21.86,1.22 -31.56,3.44 l 0.87,4.41 c 9.66,-0.82 20.08,-1.32 30.62,-1.41 z"
           id="path110"
           inkscape:connector-curvature="0"
           style="fill:#f4cf45" /><path
           class="st0"
           d="m 164.42,83.04 c -0.33,-5.4 -2.39,-6.88 -4.84,-8.2 -6.74,-3.73 -23.31,-6.94 -43.52,-8.76 l 1.04,-5.27 c 0.86,-0.41 1.68,-0.83 2.45,-1.28 0.02,0 0.04,0 0.06,0 1.26,0 2.51,-0.32 3.64,-0.96 0.08,-0.04 0.15,-0.09 0.22,-0.14 0.37,0.08 0.74,0.13 1.13,0.13 2.89,0 5.24,-2.32 5.24,-5.16 0,-1.37 -0.55,-2.62 -1.44,-3.55 0.32,-1.46 0.49,-2.97 0.49,-4.5 0,-11.32 -9.09,-20.56 -20.35,-20.81 -3.93,-6.02 -10.72,-10 -18.42,-10 -0.05,0 -0.1,0 -0.15,0 -0.7,-1.96 -2.25,-3.51 -4.2,-4.21 V 8.62 h 2.49 V 3.98 H 85.77 V 1.57 h -4.64 v 2.41 h -2.42 v 4.64 h 2.42 v 1.71 c -1.96,0.7 -3.51,2.25 -4.21,4.21 -0.05,0 -0.1,0 -0.15,0 -7.7,0 -14.49,3.99 -18.42,10 C 47.09,24.79 38,34.03 38,45.35 c 0,1.53 0.17,3.03 0.49,4.5 -0.89,0.93 -1.45,2.17 -1.45,3.55 0,2.85 2.35,5.16 5.24,5.16 0.39,0 0.77,-0.05 1.14,-0.13 1.15,0.7 2.49,1.1 3.88,1.1 0.02,0 0.03,0 0.05,0 0.77,0.45 1.58,0.88 2.44,1.29 l 1.04,5.26 c -20.21,1.82 -36.78,5.03 -43.52,8.76 -2.46,1.33 -4.51,2.8 -4.84,8.2 -4.72,67.43 9.85,109.39 22.98,135.58 14.8,29.53 36.13,51.44 57.09,58.68 0.8,0.26 1.05,0.25 1.94,-0.05 20.92,-7.29 42.19,-29.16 56.96,-58.64 13.13,-26.18 27.7,-68.14 22.98,-135.57 z m -42.18,-42.1 c -2.57,-1.96 -6.02,-3.69 -10.15,-5.12 -0.05,-1.7 -0.29,-3.36 -0.72,-4.95 5.17,1.18 9.31,5.06 10.87,10.07 z m -12.52,8.87 c 0.17,-0.96 0.07,-1.92 -0.27,-2.81 1.5,-2.78 2.4,-5.86 2.61,-9.03 4.78,1.7 8.53,3.8 10.81,6.14 0.03,0.41 0.05,0.82 0.05,1.24 0,1.12 -0.12,2.22 -0.37,3.29 -1.88,0.79 -3.2,2.62 -3.2,4.75 0,0.51 0.08,1.01 0.22,1.48 -0.25,0 -0.5,-0.02 -0.75,-0.09 -0.91,-0.26 -1.58,-0.93 -1.88,-1.76 0.6,-0.6 0.98,-1.42 0.98,-2.33 0,-1.81 -1.47,-3.28 -3.28,-3.28 -1.81,0 -3.28,1.47 -3.28,3.28 0,0.4 0.08,0.77 0.21,1.13 -0.62,0.63 -1.52,0.95 -2.46,0.8 -0.24,-0.04 -0.46,-0.12 -0.68,-0.21 0.66,-0.72 1.11,-1.6 1.29,-2.6 z M 86.44,23.1 c 1.18,-0.57 2.18,-1.46 2.88,-2.57 0.27,-0.01 0.54,-0.02 0.81,-0.02 8,0 14.64,5.89 15.83,13.56 -5.75,-1.36 -12.38,-2.21 -19.52,-2.39 z m 0,10.56 c 7.18,0.2 13.91,1.11 19.7,2.55 0,0.1 0.01,0.21 0.01,0.31 0,2.49 -0.59,4.92 -1.68,7.12 -2.5,0.04 -4.62,1.84 -5.07,4.31 -0.2,1.12 -0.03,2.24 0.46,3.24 -0.3,0.06 -0.62,0.09 -0.94,0.05 -0.79,-0.1 -1.49,-0.49 -1.98,-1.12 -0.12,-0.15 -0.23,-0.32 -0.31,-0.49 0.42,-0.55 0.68,-1.23 0.68,-1.98 0,-1.81 -1.47,-3.28 -3.28,-3.28 -1.81,0 -3.28,1.47 -3.28,3.28 0,0.59 0.17,1.13 0.44,1.6 -0.54,0.78 -1.43,1.29 -2.44,1.29 -0.01,0 -0.03,0 -0.04,0 -0.3,0 -0.59,-0.07 -0.87,-0.16 0.55,-0.83 0.87,-1.82 0.87,-2.89 0,-1.78 -0.9,-3.36 -2.26,-4.31 V 33.66 Z M 76.78,20.51 c 0.27,0 0.54,0.01 0.81,0.02 0.7,1.11 1.69,2 2.88,2.57 v 8.57 C 73.32,31.86 66.7,32.7 60.95,34.06 62.13,26.39 68.78,20.51 76.78,20.51 Z m -16.02,15.7 c 5.79,-1.43 12.53,-2.35 19.7,-2.55 v 9.54 c -1.36,0.95 -2.26,2.52 -2.26,4.31 0,1.07 0.32,2.06 0.87,2.89 -0.28,0.09 -0.57,0.15 -0.87,0.16 -1.03,0 -1.94,-0.51 -2.48,-1.29 0.27,-0.48 0.43,-1.02 0.43,-1.6 0,-1.81 -1.47,-3.28 -3.28,-3.28 -1.81,0 -3.28,1.47 -3.28,3.28 0,0.75 0.26,1.43 0.68,1.98 -0.09,0.17 -0.19,0.34 -0.31,0.49 -0.49,0.62 -1.19,1.02 -1.98,1.12 -0.33,0.04 -0.64,0.01 -0.95,-0.05 0.48,-0.97 0.67,-2.1 0.46,-3.24 -0.45,-2.47 -2.57,-4.27 -5.06,-4.31 -1.09,-2.2 -1.68,-4.63 -1.68,-7.12 0.01,-0.12 0.01,-0.22 0.01,-0.33 z m -5.23,-5.34 c -0.42,1.59 -0.66,3.25 -0.72,4.95 -4.14,1.42 -7.59,3.15 -10.15,5.12 1.56,-5.01 5.7,-8.89 10.87,-10.07 z m -7.46,23.91 c -0.25,0.07 -0.5,0.09 -0.75,0.09 0.14,-0.47 0.22,-0.96 0.22,-1.48 0,-2.13 -1.32,-3.96 -3.2,-4.75 -0.24,-1.07 -0.37,-2.17 -0.37,-3.3 0,-0.42 0.02,-0.83 0.05,-1.24 2.28,-2.34 6.03,-4.45 10.81,-6.15 0.21,3.17 1.11,6.26 2.61,9.03 -0.34,0.89 -0.44,1.85 -0.27,2.81 0.18,1 0.63,1.88 1.27,2.59 -0.21,0.09 -0.44,0.17 -0.67,0.21 -0.94,0.16 -1.84,-0.17 -2.46,-0.8 0.13,-0.35 0.21,-0.73 0.21,-1.13 0,-1.81 -1.47,-3.28 -3.28,-3.28 -1.81,0 -3.28,1.47 -3.28,3.28 0,0.91 0.38,1.74 0.98,2.33 -0.29,0.86 -0.96,1.54 -1.87,1.79 z m 2.32,4.08 c 1.29,-0.58 2.35,-1.5 3.1,-2.63 1.13,0.68 2.45,1.06 3.82,1.06 0.41,0 0.82,-0.03 1.24,-0.1 1.84,-0.31 3.46,-1.28 4.61,-2.74 1.27,0.92 2.82,1.46 4.46,1.46 0.31,0 0.62,-0.02 0.93,-0.06 1.84,-0.22 3.49,-1.09 4.72,-2.46 1.33,1.12 3.03,1.8 4.9,1.8 0.04,0 0.07,0 0.11,0 1.96,-0.03 3.78,-0.79 5.18,-2.15 1.4,1.36 3.23,2.12 5.18,2.15 0.04,0 0.07,0 0.11,0 1.86,0 3.57,-0.68 4.9,-1.8 1.23,1.36 2.88,2.23 4.72,2.46 0.31,0.04 0.62,0.06 0.93,0.06 1.65,0 3.2,-0.54 4.46,-1.46 1.15,1.46 2.77,2.43 4.61,2.74 0.42,0.07 0.83,0.1 1.24,0.1 1.38,0 2.69,-0.39 3.82,-1.07 0.75,1.12 1.81,2.04 3.09,2.62 -0.45,0.22 -0.91,0.43 -1.39,0.64 -8.84,-2.01 -19.73,-3.43 -31.6,-3.43 -11.87,0 -22.88,1.42 -31.74,3.43 -0.49,-0.19 -0.95,-0.41 -1.4,-0.62 z m 64.55,2.63 -0.87,4.41 C 104.42,65.08 93.99,64.58 83.45,64.49 72.91,64.58 62.49,65.09 52.83,65.9 l -0.87,-4.41 c 9.7,-2.22 20.82,-3.44 31.56,-3.44 13.34,0 24.19,1.78 31.42,3.44 z M 83.45,192.96 c 11.91,0 21.6,9.69 21.6,21.6 0,11.91 -9.69,21.6 -21.6,21.6 -11.91,0 -21.6,-9.69 -21.6,-21.6 -0.01,-11.91 9.68,-21.6 21.6,-21.6 z m 64.12,6.02 V 89.85 l -26.52,22.58 v 133.83 c -7.6,9.37 -15.86,17 -24.3,22.38 V 234.4 c 1.27,-0.86 2.47,-1.84 3.58,-2.95 4.51,-4.51 6.99,-10.51 6.99,-16.88 0,-6.38 -2.48,-12.37 -6.99,-16.88 -1.11,-1.11 -2.31,-2.1 -3.58,-2.95 V 133.12 L 70.23,155.7 v 38.99 c -1.3,0.87 -2.53,1.87 -3.66,3.01 -4.51,4.51 -6.99,10.51 -6.99,16.88 0,6.38 2.48,12.37 6.99,16.88 1.13,1.13 2.36,2.14 3.66,3.01 v 34.22 C 61.79,263.32 53.53,255.71 45.92,246.35 V 176.39 L 19.34,199 C 6.47,165.49 1.7,127.38 4.79,83.18 5.07,78.69 6.55,77.89 8.44,76.87 18.27,71.43 50.51,67.1 83.45,66.81 c 32.93,0.29 65.18,4.62 75.03,10.07 1.87,1.01 3.35,1.81 3.63,6.32 3.09,44.18 -1.68,82.27 -14.54,115.78 z"
           id="path112"
           inkscape:connector-curvature="0"
           style="fill:#63257e" /><path
           class="st4"
           d="m 122.24,40.94 c -2.57,-1.96 -6.02,-3.69 -10.15,-5.12 -0.05,-1.7 -0.29,-3.36 -0.72,-4.95 5.17,1.18 9.31,5.06 10.87,10.07 z"
           id="path114"
           inkscape:connector-curvature="0"
           style="fill:#ffffff" /><path
           class="st4"
           d="m 86.44,23.1 c 1.18,-0.57 2.18,-1.46 2.88,-2.57 0.27,-0.01 0.54,-0.02 0.81,-0.02 8,0 14.64,5.89 15.83,13.56 -5.75,-1.36 -12.38,-2.21 -19.52,-2.39 z"
           id="path116"
           inkscape:connector-curvature="0"
           style="fill:#ffffff" /><path
           class="st4"
           d="m 76.78,20.51 c 0.27,0 0.54,0.01 0.81,0.02 0.7,1.11 1.69,2 2.88,2.57 v 8.57 C 73.32,31.86 66.7,32.7 60.95,34.06 62.13,26.39 68.78,20.51 76.78,20.51 Z"
           id="path118"
           inkscape:connector-curvature="0"
           style="fill:#ffffff" /><path
           class="st4"
           d="m 55.53,30.87 c -0.42,1.59 -0.66,3.25 -0.72,4.95 -4.14,1.42 -7.59,3.15 -10.15,5.12 1.56,-5.01 5.7,-8.89 10.87,-10.07 z"
           id="path120"
           inkscape:connector-curvature="0"
           style="fill:#ffffff" /><path
           class="st4"
           d="M 70.22,268.68 C 61.78,263.31 53.52,255.7 45.91,246.34 v -69.96 l 24.31,-20.69 v 38.99 c -1.3,0.87 -2.53,1.87 -3.66,3.01 -4.51,4.51 -6.99,10.51 -6.99,16.88 0,6.38 2.48,12.37 6.99,16.88 1.13,1.13 2.36,2.14 3.66,3.01 z"
           id="path122"
           inkscape:connector-curvature="0"
           style="fill:#ffffff" /><path
           class="st4"
           d="m 160.79,78.59 c 0.7,0.89 1.18,2.24 1.32,4.61 3.09,44.18 -1.67,82.27 -14.54,115.78 V 89.85 Z"
           id="path124"
           inkscape:connector-curvature="0"
           style="fill:#ffffff" /><path
           class="st4"
           d="m 121.05,112.42 v 133.83 c -7.6,9.37 -15.86,17 -24.3,22.38 V 234.4 c 1.27,-0.86 2.47,-1.84 3.58,-2.95 4.51,-4.51 6.99,-10.51 6.99,-16.88 0,-6.38 -2.48,-12.37 -6.99,-16.88 -1.11,-1.11 -2.31,-2.1 -3.58,-2.95 v -61.62 z"
           id="path126"
           inkscape:connector-curvature="0"
           style="fill:#ffffff" /><path
           class="st5"
           d="m 69.57,204.66 c 1.05,-1.47 2.33,-2.76 3.78,-3.83 l 1.56,5.73 h -3.44 v 20.13 c 0.7,0.69 1.46,1.33 2.27,1.89 v -9.46 l 12.48,-0.01 -2.77,10.19 -2.15,-7.91 h -2.36 l 3.39,12.47 c 0.37,0.02 0.74,0.03 1.12,0.03 0.38,0 0.75,-0.01 1.12,-0.03 l 4.01,-14.76 h 1.53 l 3.9,8.84 c 0.63,-0.5 1.22,-1.04 1.77,-1.61 l -3.43,-7.78 c 2.18,-0.99 3.69,-3.18 3.69,-5.72 0,-2.71 -1.73,-5.03 -4.15,-5.91 l 1.66,-6.1 c 1.45,1.07 2.73,2.37 3.78,3.83 l 1.63,-1.63 c -1.79,-2.4 -4.12,-4.37 -6.8,-5.73 l -2.52,9.25 H 79.62 l 0.62,2.27 h 8.77 l -1.56,5.73 h 2.36 l 1.48,-5.43 c 1.45,0.6 2.48,2.03 2.48,3.7 0,2.21 -1.8,4 -4,4 h -9.7 l -5.31,-19.53 c -2.69,1.36 -5.02,3.33 -6.8,5.73 z m 8.13,12.18 h -3.97 v -8.01 h 1.79 z"
           id="path128"
           inkscape:connector-curvature="0"
           style="fill:#5b2c7a" /><g
           id="g134"><polygon
             class="st4"
             points="75.52,208.83 73.73,208.83 73.73,216.84 77.7,216.84 "
             id="polygon130"
             style="fill:#ffffff" /><path
             class="st4"
             d="m 83.45,192.96 c -11.91,0 -21.6,9.69 -21.6,21.6 0,11.91 9.69,21.6 21.6,21.6 11.91,0 21.6,-9.69 21.6,-21.6 0,-11.91 -9.69,-21.6 -21.6,-21.6 z m 13.87,11.7 c -1.05,-1.47 -2.33,-2.76 -3.78,-3.83 l -1.66,6.1 c 2.42,0.87 4.15,3.19 4.15,5.91 0,2.54 -1.52,4.73 -3.69,5.72 l 3.43,7.78 c -0.55,0.58 -1.14,1.12 -1.77,1.61 l -3.9,-8.84 h -1.53 l -4.01,14.76 c -0.37,0.02 -0.74,0.03 -1.12,0.03 -0.38,0 -0.75,-0.01 -1.12,-0.03 L 78.93,221.4 h 2.36 l 2.15,7.91 2.77,-10.19 -12.48,0.01 v 9.46 c -0.81,-0.56 -1.57,-1.2 -2.27,-1.89 v -20.13 h 3.44 l -1.56,-5.73 c -1.45,1.07 -2.73,2.37 -3.78,3.83 l -1.63,-1.63 c 1.79,-2.4 4.12,-4.37 6.8,-5.73 l 5.31,19.53 h 9.7 c 2.21,0 4,-1.8 4,-4 0,-1.67 -1.02,-3.1 -2.48,-3.7 l -1.48,5.43 h -2.36 l 1.56,-5.73 h -8.77 l -0.62,-2.27 H 89.6 l 2.52,-9.25 c 2.69,1.36 5.02,3.33 6.8,5.73 z"
             id="path132"
             inkscape:connector-curvature="0"
             style="fill:#ffffff" /></g><path
           class="st3"
           d="m 126.16,50.63 c 0.5,-1.7 0.75,-3.46 0.75,-5.28 0,-10.38 -8.45,-18.83 -18.83,-18.83 h -0.64 c -3.46,-5.97 -9.92,-9.99 -17.3,-9.99 -0.7,0 -1.39,0.04 -2.08,0.11 -0.11,-2.27 -1.84,-4.1 -4.07,-4.36 V 6.87 h 2.66 V 5.8 H 83.99 V 3.41 H 82.93 V 5.8 h -2.66 v 1.06 h 2.66 v 5.41 c -2.22,0.26 -3.96,2.09 -4.07,4.36 -0.69,-0.07 -1.38,-0.11 -2.08,-0.11 -7.38,0 -13.84,4.02 -17.3,9.99 H 58.84 C 48.45,26.52 40,34.97 40,45.35 c 0,1.81 0.25,3.57 0.75,5.27 -1.01,0.54 -1.71,1.57 -1.71,2.77 0,1.75 1.46,3.17 3.25,3.17 0.46,0 0.9,-0.1 1.3,-0.27 1.02,0.89 2.34,1.4 3.72,1.4 0.5,0 1.01,-0.07 1.52,-0.21 2.09,-0.59 3.57,-2.29 3.99,-4.28 1.05,1.39 2.7,2.25 4.49,2.25 0.31,0 0.62,-0.03 0.93,-0.08 1.48,-0.25 2.78,-1.06 3.65,-2.29 0.22,-0.31 0.41,-0.64 0.56,-0.98 0.15,-0.01 0.3,-0.01 0.46,-0.04 0.1,-0.02 0.18,-0.05 0.28,-0.08 1.07,1.28 2.68,2.08 4.43,2.08 0.23,0 0.47,-0.01 0.71,-0.04 1.53,-0.19 2.9,-0.96 3.86,-2.18 0.38,-0.48 0.67,-1.01 0.87,-1.57 0.98,1.83 2.9,3.08 5.11,3.08 0.03,0 0.06,0 0.08,0 1.55,-0.02 2.99,-0.64 4.07,-1.75 0.27,-0.28 0.51,-0.58 0.71,-0.9 0.14,0.02 0.28,0.04 0.42,0.04 0.14,0 0.28,-0.02 0.42,-0.04 0.21,0.32 0.44,0.62 0.71,0.9 1.08,1.11 2.52,1.73 4.07,1.75 0.03,0 0.06,0 0.08,0 2.21,0 4.13,-1.25 5.11,-3.08 0.21,0.56 0.5,1.09 0.87,1.57 0.95,1.22 2.32,1.99 3.86,2.18 0.24,0.03 0.47,0.04 0.71,0.04 1.75,0 3.35,-0.8 4.43,-2.08 0.09,0.03 0.18,0.06 0.27,0.08 0.15,0.03 0.31,0.04 0.46,0.04 0.15,0.34 0.34,0.67 0.56,0.98 0.87,1.23 2.17,2.04 3.65,2.29 0.31,0.05 0.63,0.08 0.93,0.08 1.79,0 3.45,-0.87 4.49,-2.25 0.42,1.99 1.9,3.69 3.99,4.28 0.51,0.14 1.02,0.21 1.53,0.21 0.95,0 1.9,-0.24 2.75,-0.72 0.35,-0.19 0.66,-0.42 0.96,-0.68 0.4,0.17 0.83,0.26 1.29,0.26 1.8,0 3.25,-1.42 3.25,-3.17 0.02,-1.18 -0.67,-2.21 -1.68,-2.75 z m -65.07,1.9 c -0.72,1.01 -1.79,1.68 -3.01,1.88 -2.14,0.36 -4.19,-0.82 -5.02,-2.73 0.29,-0.24 0.48,-0.59 0.48,-1 0,-0.71 -0.58,-1.29 -1.29,-1.29 -0.71,0 -1.29,0.58 -1.29,1.29 0,0.61 0.42,1.11 0.98,1.25 0.06,2.08 -1.29,4.01 -3.38,4.6 -1.46,0.41 -2.96,0.06 -4.08,-0.8 0.65,-0.58 1.07,-1.41 1.07,-2.34 0,-1.61 -1.24,-2.93 -2.83,-3.13 -0.48,-1.58 -0.73,-3.22 -0.73,-4.92 0,-9.16 7.36,-16.64 16.47,-16.84 -1.08,2.45 -1.68,5.16 -1.68,8.01 0,3.7 1.03,7.31 2.94,10.43 -0.51,0.69 -0.75,1.58 -0.59,2.5 0.23,1.25 1.14,2.19 2.28,2.53 -0.09,0.21 -0.2,0.39 -0.32,0.56 z m 21.37,-8.11 c -1.31,0.42 -2.26,1.64 -2.26,3.08 0,1.28 0.75,2.38 1.82,2.91 -0.13,0.18 -0.27,0.35 -0.42,0.5 -0.89,0.92 -2.09,1.43 -3.37,1.45 -2.24,0.04 -4.17,-1.51 -4.7,-3.61 0.38,-0.22 0.64,-0.64 0.64,-1.11 0,-0.71 -0.58,-1.29 -1.29,-1.29 -0.71,0 -1.29,0.58 -1.29,1.29 0,0.54 0.33,1 0.8,1.19 -0.1,0.87 -0.43,1.69 -0.98,2.4 -0.79,1.01 -1.92,1.65 -3.19,1.8 -1.57,0.19 -3.05,-0.4 -4.06,-1.47 1.04,-0.7 1.63,-1.97 1.39,-3.28 -0.28,-1.57 -1.65,-2.68 -3.2,-2.68 -0.19,0 -0.39,0.02 -0.58,0.05 -0.14,0.03 -0.28,0.08 -0.42,0.12 -1.67,-2.78 -2.58,-5.99 -2.58,-9.27 0,-9.93 8.08,-18.01 18.01,-18.01 0.83,0 1.65,0.06 2.46,0.17 0.58,1.33 1.76,2.34 3.22,2.66 z m 22.1,1.21 c -1.54,0 -2.92,1.1 -3.2,2.68 -0.24,1.31 0.35,2.58 1.4,3.28 -1.01,1.07 -2.49,1.66 -4.06,1.47 -1.27,-0.16 -2.4,-0.8 -3.19,-1.8 -0.55,-0.71 -0.87,-1.53 -0.97,-2.4 0.46,-0.2 0.79,-0.66 0.79,-1.19 0,-0.71 -0.58,-1.29 -1.29,-1.29 -0.71,0 -1.29,0.58 -1.29,1.29 0,0.48 0.26,0.89 0.64,1.11 -0.53,2.1 -2.44,3.65 -4.7,3.61 -1.28,-0.02 -2.48,-0.53 -3.37,-1.45 -0.15,-0.16 -0.29,-0.33 -0.42,-0.5 1.08,-0.53 1.82,-1.63 1.82,-2.91 0,-1.45 -0.95,-2.66 -2.26,-3.08 v -23.1 c 1.45,-0.32 2.65,-1.33 3.23,-2.66 0.81,-0.11 1.62,-0.17 2.45,-0.17 9.93,0 18.01,8.08 18.01,18.01 0,3.29 -0.91,6.49 -2.58,9.27 -0.14,-0.04 -0.27,-0.09 -0.42,-0.12 -0.21,-0.04 -0.4,-0.05 -0.59,-0.05 z m 19.63,4.64 c -1.6,0.2 -2.84,1.52 -2.84,3.13 0,0.93 0.42,1.76 1.08,2.34 -0.18,0.14 -0.36,0.26 -0.56,0.38 -1.08,0.61 -2.33,0.76 -3.52,0.42 -2.09,-0.59 -3.44,-2.52 -3.38,-4.6 0.56,-0.14 0.98,-0.64 0.98,-1.25 0,-0.71 -0.58,-1.29 -1.29,-1.29 -0.71,0 -1.29,0.58 -1.29,1.29 0,0.4 0.19,0.76 0.48,1 -0.83,1.91 -2.87,3.09 -5.01,2.73 -1.22,-0.2 -2.29,-0.87 -3.01,-1.88 -0.12,-0.17 -0.23,-0.35 -0.33,-0.54 1.14,-0.34 2.05,-1.28 2.28,-2.53 0.16,-0.91 -0.07,-1.8 -0.58,-2.5 1.91,-3.12 2.94,-6.73 2.94,-10.44 0,-2.85 -0.6,-5.56 -1.68,-8.01 9.12,0.2 16.47,7.67 16.47,16.84 -0.01,1.68 -0.26,3.33 -0.74,4.91 z"
           id="path136"
           inkscape:connector-curvature="0"
           style="fill:#f4cf45" /></g><g
         id="g142"><path
           class="st4"
           d="m 85.77,1.57 v 2.41 h 2.49 v 4.64 h -2.49 v 1.71 c 1.96,0.7 3.51,2.25 4.2,4.21 0.05,0 0.1,0 0.15,0 7.7,0 14.49,3.99 18.42,10 11.26,0.25 20.35,9.49 20.35,20.81 0,1.53 -0.17,3.04 -0.49,4.5 0.89,0.93 1.44,2.17 1.44,3.55 0,2.85 -2.35,5.16 -5.24,5.16 -0.39,0 -0.77,-0.05 -1.14,-0.13 -0.08,0.05 -0.15,0.1 -0.22,0.14 -1.13,0.63 -2.38,0.96 -3.64,0.96 -0.02,0 -0.04,0 -0.06,0 -0.76,0.44 -1.59,0.87 -2.45,1.28 l -1.04,5.27 c 20.21,1.82 36.78,5.03 43.52,8.76 2.46,1.33 4.51,2.8 4.84,8.2 4.72,67.43 -9.85,109.39 -22.98,135.58 -14.77,29.47 -36.04,51.35 -56.96,58.64 -0.47,0.15 -0.76,0.23 -1.05,0.23 -0.26,0 -0.51,-0.06 -0.89,-0.18 C 61.57,270.07 40.24,248.16 25.44,218.63 12.33,192.43 -2.24,150.47 2.48,83.04 2.81,77.64 4.87,76.16 7.32,74.84 14.06,71.11 30.63,67.9 50.84,66.08 L 49.8,60.82 c -0.86,-0.41 -1.67,-0.85 -2.44,-1.29 -0.02,0 -0.03,0 -0.05,0 -1.39,0 -2.73,-0.39 -3.88,-1.1 -0.37,0.08 -0.75,0.13 -1.14,0.13 -2.89,0 -5.24,-2.32 -5.24,-5.16 0,-1.38 0.55,-2.62 1.45,-3.55 -0.32,-1.46 -0.49,-2.96 -0.49,-4.5 0,-11.32 9.09,-20.56 20.35,-20.81 3.93,-6.02 10.72,-10 18.42,-10 0.05,0 0.1,0 0.15,0 0.7,-1.96 2.25,-3.51 4.21,-4.21 V 8.62 H 78.72 V 3.98 h 2.42 V 1.57 h 4.63 m 3.14,-3.14 h -3.14 -4.64 -3.14 v 2.41 h -2.42 v 3.14 4.64 1.97 c -0.22,0.28 -0.43,0.58 -0.63,0.88 -7.26,0.52 -13.91,4.17 -18.29,10.03 -12.15,1.11 -21.78,11.48 -21.78,23.85 0,1.24 0.1,2.48 0.29,3.7 -0.81,1.3 -1.25,2.79 -1.25,4.35 0,4.58 3.76,8.3 8.38,8.3 0.19,0 0.37,-0.01 0.56,-0.02 1.14,0.53 2.37,0.86 3.63,0.96 0.18,0.1 0.36,0.2 0.54,0.29 l 0.07,0.35 c -19.72,1.97 -34.67,5.15 -41.29,8.81 -2.88,1.56 -6.03,3.82 -6.46,10.75 -3.74,53.54 3.88,98.42 23.31,137.18 15.15,30.22 37.15,52.74 58.87,60.24 l 0.03,0.01 0.03,0.01 c 0.54,0.17 1.14,0.33 1.85,0.33 0.78,0 1.43,-0.19 2.02,-0.39 l 0.03,-0.01 0.03,-0.01 c 21.67,-7.55 43.63,-30.05 58.73,-60.19 19.43,-38.76 27.05,-83.64 23.3,-137.2 -0.42,-6.91 -3.57,-9.17 -6.48,-10.74 -6.59,-3.65 -21.53,-6.83 -41.26,-8.8 l 0.07,-0.36 c 0.19,-0.1 0.36,-0.19 0.54,-0.29 1.26,-0.1 2.49,-0.42 3.64,-0.96 0.18,0.01 0.36,0.02 0.54,0.02 4.62,0 8.38,-3.72 8.38,-8.3 0,-1.55 -0.43,-3.04 -1.24,-4.34 0.19,-1.23 0.29,-2.47 0.29,-3.71 0,-12.37 -9.63,-22.74 -21.79,-23.85 C 105.85,15.62 99.2,11.97 91.93,11.45 91.76,11.18 91.57,10.92 91.38,10.66 V 8.62 3.98 0.84 h -2.49 v -2.41 z"
           id="path140"
           inkscape:connector-curvature="0"
           style="fill:#ffffff" /></g></g></g></svg>