<?xml version="1.0" encoding="UTF-8" standalone="no"?>
<svg
   xmlns:dc="http://purl.org/dc/elements/1.1/"
   xmlns:cc="http://creativecommons.org/ns#"
   xmlns:rdf="http://www.w3.org/1999/02/22-rdf-syntax-ns#"
   xmlns:svg="http://www.w3.org/2000/svg"
   xmlns="http://www.w3.org/2000/svg"
   xmlns:xlink="http://www.w3.org/1999/xlink"
   xmlns:sodipodi="http://sodipodi.sourceforge.net/DTD/sodipodi-0.dtd"
   xmlns:inkscape="http://www.inkscape.org/namespaces/inkscape"
   version="1.1"
   width="700"
   height="700"
   viewBox="0 0 700.03679 700.00561"
   id="svg90"
   sodipodi:docname="villarreal-cf-logo.svg"
   inkscape:export-filename="C:\Users\alex\sites\villarreal-cf-logo-0.png"
   inkscape:export-xdpi="561.73712"
   inkscape:export-ydpi="561.73712"
   inkscape:version="0.92.3 (2405546, 2018-03-11)">
  <metadata
     id="metadata96">
    <rdf:RDF>
      <cc:Work
         rdf:about="">
        <dc:format>image/svg+xml</dc:format>
        <dc:type
           rdf:resource="http://purl.org/dc/dcmitype/StillImage" />
        <dc:title>Villareal CF</dc:title>
      </cc:Work>
    </rdf:RDF>
  </metadata>
  <defs
     id="defs94" />
  <sodipodi:namedview
     pagecolor="#ffffff"
     bordercolor="#666666"
     borderopacity="1"
     objecttolerance="10"
     gridtolerance="10"
     guidetolerance="10"
     inkscape:pageopacity="0"
     inkscape:pageshadow="2"
     inkscape:window-width="1600"
     inkscape:window-height="838"
     id="namedview92"
     showgrid="false"
     inkscape:zoom="0.75626483"
     inkscape:cx="90.324269"
     inkscape:cy="361.35258"
     inkscape:window-x="-8"
     inkscape:window-y="-8"
     inkscape:window-maximized="1"
     inkscape:current-layer="svg90" />
  <title
     id="title2">Villareal CF</title>
  <path
     d="m 349.71181,91.720572 c 6.98186,0 12.76694,5.78525 12.76694,12.925568 0,2.10799 -0.50719,4.09719 -1.40271,5.85643 l 0.7925,-0.0237 c 7.13235,0 12.9176,5.78525 12.9176,12.9176 0,7.14031 -5.78525,12.92557 -12.9176,12.92557 -2.6469,0 -4.9769,-0.84796 -7.10862,-2.20307 0.0871,14.71649 11.84775,26.56358 26.46071,26.56358 12.47377,0 22.93494,-8.63026 25.72404,-20.24872 -1.94955,0.60229 -4.65187,0.84796 -6.88679,0.33284 -6.95017,-1.60875 -11.28513,-8.54299 -9.67638,-15.49316 1.60083,-6.95797 8.53519,-11.29292 15.49316,-9.68418 l 0.43587,0.10304 c -0.47549,-1.90989 -0.52305,-3.95451 -0.0476,-6.00709 1.60874,-6.95017 8.54298,-11.285118 15.50112,-9.67638 6.95017,1.60084 11.28512,8.54299 9.67638,15.49316 -0.46758,2.05258 -1.41065,3.88316 -2.6786,5.39684 l 0.76871,0.15065 c 6.95813,1.60875 11.29292,8.54299 9.68417,15.49316 -1.60083,6.95796 -8.54299,11.29292 -15.49315,9.68417 -2.23476,-0.51511 -4.19227,-1.57704 -5.77729,-3.01142 l -0.12677,0.42002 c -3.28884,14.23317 5.5475,28.60936 19.82729,31.73195 12.40242,2.71029 20.3267,-0.83211 24.48794,-5.00062 -2.07631,-0.37247 -4.26361,-1.28383 -6.08623,-2.81332 -5.46818,-4.58848 -6.18147,-12.74322 -1.5929,-18.20294 4.58848,-5.46818 12.74322,-6.18146 18.20294,-1.5929 l 3.32053,3.06701 c 4.5251,-7.92494 5.18297,-9.24035 7.48907,-12.74322 3.91485,-5.96743 9.89821,-4.27158 16.25389,-0.2219 l 9.89822,6.8312 -18.59949,19.34446 c 0.5389,1.19666 0.6657,2.48049 0.6657,3.81978 0,6.2923 -5.0957,11.388 -11.388,11.388 -1.82278,0 -3.51863,-0.0871 -5.04824,-0.85589 -10.73826,9.01851 -25.62946,13.04436 -40.43273,9.62876 -12.29159,-2.83705 -22.31606,-10.27867 -28.68734,-20.07451 l 0.42796,-0.54681 c -9.89025,5.72967 -21.95271,7.86156 -33.97352,5.08773 -9.11358,-2.10004 -16.98344,-6.7441 -22.87189,-12.99675 -5.89609,6.25282 -13.76561,10.89671 -22.87853,12.99675 -12.02214,2.77366 -23.90888,1.26798 -33.7993,-4.46172 l -0.1585,0.317 c -6.36364,9.80314 -15.98444,16.84075 -28.27586,19.67796 -14.80377,3.4156 -29.69447,-0.61022 -40.43273,-9.62876 -1.5295,0.76872 -3.21749,0.85589 -5.04824,0.85589 -6.2845,0 -11.3802,-5.09569 -11.3802,-11.38799 0,-1.33932 0.11888,-2.62318 0.65777,-3.81978 l -18.59119,-19.34447 9.89821,-6.8312 c 6.34789,-4.04958 12.33108,-5.7456 16.25389,0.2219 2.29814,3.50288 2.95601,4.81828 7.48111,12.74322 l 3.32053,-3.06701 c 5.46819,-4.58848 13.61496,-3.8752 18.20294,1.5929 4.58848,5.46022 3.8752,13.61496 -1.5929,18.20294 -1.82278,1.52951 -4.00212,2.44083 -6.08639,2.81332 4.16854,4.16854 12.09331,7.71091 24.49623,5.00063 14.27266,-3.12243 23.10916,-17.49779 19.82065,-31.73196 l -0.1268,-0.42002 c -1.57705,1.43442 -3.54236,2.49641 -5.77729,3.01143 -6.95016,1.60876 -13.8844,-2.72621 -15.49315,-9.68418 -1.60084,-6.95017 2.73401,-13.88441 9.68417,-15.49316 l 0.76872,-0.15065 c -1.26798,-1.51364 -2.20307,-3.34426 -2.67859,-5.39684 -1.60875,-6.95017 2.72621,-13.89237 9.68418,-15.49315 6.95017,-1.608748 13.89237,2.72621 15.49315,9.67637 0.47549,2.05258 0.42794,4.0972 -0.0396,6.00709 l 0.42794,-0.10304 c 6.95813,-1.60876 13.89237,2.72622 15.50112,9.68418 1.60875,6.95017 -2.73401,13.88441 -9.68418,15.49316 -2.23476,0.51513 -4.93724,0.26945 -6.88678,-0.33284 2.79755,11.61796 13.25043,20.24872 25.73233,20.24872 14.60549,0 26.36614,-11.84775 26.45407,-26.56358 -2.13172,1.35516 -4.46172,2.20307 -7.10065,2.20307 -7.14031,0 -12.92557,-5.78526 -12.92557,-12.92557 0,-7.13234 5.78526,-12.9176 12.92557,-12.9176 l 0.78456,0.0237 c -0.89551,-1.7594 -1.40271,-3.74844 -1.40271,-5.85643 0,-7.140308 5.78525,-12.925568 12.77491,-12.925568 z"
     id="path4"
     inkscape:connector-curvature="0"
     style="clip-rule:evenodd;fill:#ffe667;fill-rule:evenodd;stroke-width:1.65918696"
     inkscape:export-filename="C:\Users\alex\sites\villarreal-cf-logo-4.png"
     inkscape:export-xdpi="92.580315"
     inkscape:export-ydpi="92.580315" />
  <path
     d="m 349.71181,91.720572 c 6.98186,0 12.76694,5.78525 12.76694,12.925568 0,2.10799 -0.50719,4.09719 -1.40271,5.85643 l 0.7925,-0.0237 c 7.13235,0 12.9176,5.78525 12.9176,12.9176 0,7.14031 -5.78525,12.92557 -12.9176,12.92557 -2.6469,0 -4.9769,-0.84796 -7.10862,-2.20307 0.0871,14.71649 11.84775,26.56358 26.46071,26.56358 12.47377,0 22.93494,-8.63026 25.72404,-20.24872 -1.94955,0.60229 -4.65187,0.84796 -6.88679,0.33284 -6.95017,-1.60875 -11.28513,-8.54299 -9.67638,-15.49316 1.60083,-6.95797 8.53519,-11.29292 15.49316,-9.68418 l 0.43587,0.10304 c -0.47549,-1.90989 -0.52305,-3.95451 -0.0476,-6.00709 1.60874,-6.95017 8.54298,-11.285118 15.50112,-9.67638 6.95017,1.60084 11.28512,8.54299 9.67638,15.49316 -0.46758,2.05258 -1.41065,3.88316 -2.6786,5.39684 l 0.76871,0.15065 c 6.95813,1.60875 11.29292,8.54299 9.68417,15.49316 -1.60083,6.95796 -8.54299,11.29292 -15.49315,9.68417 -2.23476,-0.51511 -4.19227,-1.57704 -5.77729,-3.01142 l -0.12677,0.42002 c -3.28884,14.23317 5.5475,28.60936 19.82729,31.73195 12.40242,2.71029 20.3267,-0.83211 24.48794,-5.00062 -2.07631,-0.37247 -4.26361,-1.28383 -6.08623,-2.81332 -5.46818,-4.58848 -6.18147,-12.74322 -1.5929,-18.20294 4.58848,-5.46818 12.74322,-6.18146 18.20294,-1.5929 l 3.32053,3.06701 c 4.5251,-7.92494 5.18297,-9.24035 7.48907,-12.74322 3.91485,-5.96743 9.89821,-4.27158 16.25389,-0.2219 l 9.89822,6.8312 -18.59949,19.34446 c 0.5389,1.19666 0.6657,2.48049 0.6657,3.81978 0,6.2923 -5.0957,11.388 -11.388,11.388 -1.82278,0 -3.51863,-0.0871 -5.04824,-0.85589 -10.73826,9.01851 -25.62946,13.04436 -40.43273,9.62876 -12.29159,-2.83705 -22.31606,-10.27867 -28.68734,-20.07451 l 0.42796,-0.54681 c -9.89025,5.72967 -21.95271,7.86156 -33.97352,5.08773 -9.11358,-2.10004 -16.98344,-6.7441 -22.87189,-12.99675 -5.89609,6.25282 -13.76561,10.89671 -22.87853,12.99675 -12.02214,2.77366 -23.90888,1.26798 -33.7993,-4.46172 l -0.1585,0.317 c -6.36364,9.80314 -15.98444,16.84075 -28.27586,19.67796 -14.80377,3.4156 -29.69447,-0.61022 -40.43273,-9.62876 -1.5295,0.76872 -3.21749,0.85589 -5.04824,0.85589 -6.2845,0 -11.3802,-5.09569 -11.3802,-11.38799 0,-1.33932 0.11888,-2.62318 0.65777,-3.81978 l -18.59119,-19.34447 9.89821,-6.8312 c 6.34789,-4.04958 12.33108,-5.7456 16.25389,0.2219 2.29814,3.50288 2.95601,4.81828 7.48111,12.74322 l 3.32053,-3.06701 c 5.46819,-4.58848 13.61496,-3.8752 18.20294,1.5929 4.58848,5.46022 3.8752,13.61496 -1.5929,18.20294 -1.82278,1.52951 -4.00212,2.44083 -6.08639,2.81332 4.16854,4.16854 12.09331,7.71091 24.49623,5.00063 14.27266,-3.12243 23.10916,-17.49779 19.82065,-31.73196 l -0.1268,-0.42002 c -1.57705,1.43442 -3.54236,2.49641 -5.77729,3.01143 -6.95016,1.60876 -13.8844,-2.72621 -15.49315,-9.68418 -1.60084,-6.95017 2.73401,-13.88441 9.68417,-15.49316 l 0.76872,-0.15065 c -1.26798,-1.51364 -2.20307,-3.34426 -2.67859,-5.39684 -1.60875,-6.95017 2.72621,-13.89237 9.68418,-15.49315 6.95017,-1.608748 13.89237,2.72621 15.49315,9.67637 0.47549,2.05258 0.42794,4.0972 -0.0396,6.00709 l 0.42794,-0.10304 c 6.95813,-1.60876 13.89237,2.72622 15.50112,9.68418 1.60875,6.95017 -2.73401,13.88441 -9.68418,15.49316 -2.23476,0.51513 -4.93724,0.26945 -6.88678,-0.33284 2.79755,11.61796 13.25043,20.24872 25.73233,20.24872 14.60549,0 26.36614,-11.84775 26.45407,-26.56358 -2.13172,1.35516 -4.46172,2.20307 -7.10065,2.20307 -7.14031,0 -12.92557,-5.78526 -12.92557,-12.92557 0,-7.13234 5.78526,-12.9176 12.92557,-12.9176 l 0.78456,0.0237 c -0.89551,-1.7594 -1.40271,-3.74844 -1.40271,-5.85643 0,-7.140308 5.78525,-12.925568 12.77491,-12.925568 z"
     stroke-miterlimit="3.86400008"
     id="path6"
     inkscape:connector-curvature="0"
     style="fill:none;stroke:#005187;stroke-width:1.21250832;stroke-miterlimit:3.86400008"
     inkscape:export-filename="C:\Users\alex\sites\villarreal-cf-logo-4.png"
     inkscape:export-xdpi="92.580315"
     inkscape:export-ydpi="92.580315" />
  <circle
     cy="383.33267"
     cx="350.0184"
     r="206.79213"
     id="circle8"
     style="fill:#ffffff;stroke-width:7.92489195"
     inkscape:export-filename="C:\Users\alex\sites\villarreal-cf-logo-4.png"
     inkscape:export-xdpi="92.580315"
     inkscape:export-ydpi="92.580315" />
  <circle
     cx="350.0184"
     cy="383.33267"
     r="206.79213"
     stroke-miterlimit="3.864"
     id="circle10"
     style="fill:none;stroke:#005187;stroke-width:1.21250832;stroke-miterlimit:3.86400008"
     inkscape:export-filename="C:\Users\alex\sites\villarreal-cf-logo-4.png"
     inkscape:export-xdpi="92.580315"
     inkscape:export-ydpi="92.580315" />
  <path
     d="m 150.86588,384.41136 c 0,-109.68056 88.9092,-198.60468 198.60468,-198.60468 109.68885,0 198.60468,88.91749 198.60468,198.60468 0,109.68885 -88.91749,198.60468 -198.60468,198.60468 -109.68885,0 -198.60468,-88.91749 -198.60468,-198.60468"
     id="path12"
     inkscape:connector-curvature="0"
     style="fill:#00508a;stroke-width:1.65918696;fill-opacity:1"
     inkscape:export-filename="C:\Users\alex\sites\villarreal-cf-logo-4.png"
     inkscape:export-xdpi="92.580315"
     inkscape:export-ydpi="92.580315" />
  <path
     d="m 381.78389,199.40371 44.35505,57.94711 47.54068,0.19019 v 33.58526 h -21.63414 l 69.04209,92.39681 -149.16257,201.92305 -44.43468,0.1188 -149.28037,-202.4374 70.19854,-92.36528 h -23.98852 v -33.6732 l 49.10197,-0.0951 43.88882,-57.82765 c 0,0 17.15765,-2.24272 31.72365,-2.24272 12.11721,0 32.65778,2.48049 32.65778,2.48049"
     id="path14"
     inkscape:connector-curvature="0"
     style="fill:#ffffff;stroke-width:1.65918696"
     inkscape:export-filename="C:\Users\alex\sites\villarreal-cf-logo-4.png"
     inkscape:export-xdpi="92.580315"
     inkscape:export-ydpi="92.580315" />
  <path
     d="m 290.48713,239.79662 c -20.08114,-0.34076 -37.68346,-11.39596 -46.93176,-27.68187 -0.83212,-1.49782 -1.12533,-3.29681 -1.12533,-5.12739 0,-4.06551 2.25865,-7.57618 5.80102,-9.28796 30.81276,-14.10624 65.07994,-21.96764 101.17722,-21.96764 35.39211,0 68.86787,7.56042 99.34714,21.14302 l -0.19813,0.0166 c 3.45526,1.64837 6.05471,5.25415 6.05471,9.45438 0,1.94158 -0.83212,4.37461 -1.75941,5.92778 -9.67637,16.46793 -27.50766,27.53089 -47.914,27.53089 -2.52014,0 -6.83917,0.0793 -6.83917,0.0793 l -107.61154,-0.0871"
     id="path16"
     inkscape:connector-curvature="0"
     style="fill:#ffe667;stroke-width:1.65918696"
     inkscape:export-filename="C:\Users\alex\sites\villarreal-cf-logo-4.png"
     inkscape:export-xdpi="92.580315"
     inkscape:export-ydpi="92.580315" />
  <g
     transform="matrix(7.9248917,0,0,7.9248917,-178.84133,-1136.3445)"
     id="g32"
     inkscape:export-filename="C:\Users\alex\sites\villarreal-cf-logo-4.png"
     inkscape:export-xdpi="92.580315"
     inkscape:export-ydpi="92.580315">
    <defs
       id="defs19">
      <path
         id="SVGID_1_"
         d="m 59.222,173.65 c -2.534,-0.043 -4.755,-1.438 -5.922,-3.493 -0.105,-0.189 -0.142,-0.416 -0.142,-0.647 0,-0.513 0.285,-0.956 0.732,-1.172 3.888,-1.78 8.212,-2.772 12.767,-2.772 4.466,0 8.69,0.954 12.536,2.668 l -0.025,0.002 c 0.436,0.208 0.764,0.663 0.764,1.193 0,0.245 -0.105,0.552 -0.222,0.748 -1.221,2.078 -3.471,3.474 -6.046,3.474 -0.318,0 -0.863,0.01 -0.863,0.01 L 59.222,173.65"
         inkscape:connector-curvature="0" />
    </defs>
    <clipPath
       id="SVGID_2_">
      <use
         xlink:href="#SVGID_1_"
         height="842"
         width="595"
         y="0"
         x="0"
         overflow="visible"
         id="use21"
         style="overflow:visible" />
    </clipPath>
    <circle
       clip-path="url(#SVGID_2_)"
       cx="66.511002"
       cy="194.39999"
       r="25.632999"
       id="circle24" />
    <circle
       clip-path="url(#SVGID_2_)"
       cx="66.511002"
       cy="194.39999"
       r="25.632999"
       stroke-miterlimit="3.864"
       id="circle26"
       style="fill:none;stroke:#000000;stroke-width:0.296;stroke-miterlimit:3.86400008" />
    <path
       d="m 52.776,168.5 c 0.19,0.173 -1.178,1.628 0.302,2.774 2.153,1.667 2.183,-2.417 13.719,-2.417 7.907,0 11.016,2.619 11.016,2.619 l -1.324,0.334 -1.194,0.096 0.287,-0.86 -0.382,-0.525 -0.525,0.621 -0.335,0.048 -0.286,-0.895 -0.382,0.799 -0.909,0.435 1.428,2 c 2.863,-0.155 6.119,-2.824 6.119,-4.076 0,-2.181 -7.231,-4.174 -13.663,-4.174 -6.097,0 -14.061,3.047 -13.871,3.221 z"
       clip-path="url(#SVGID_2_)"
       id="path28"
       inkscape:connector-curvature="0"
       style="fill:#ffe667" />
    <path
       d="m 52.776,168.5 c 0.19,0.173 -1.178,1.628 0.302,2.774 2.153,1.667 2.183,-2.417 13.719,-2.417 7.907,0 11.016,2.619 11.016,2.619 l -1.324,0.334 -1.194,0.096 0.287,-0.86 -0.382,-0.525 -0.525,0.621 -0.335,0.048 -0.286,-0.895 -0.382,0.799 -0.909,0.435 1.428,2 c 2.863,-0.155 6.119,-2.824 6.119,-4.076 0,-2.181 -7.231,-4.174 -13.663,-4.174 -6.097,0 -14.061,3.047 -13.871,3.221 z"
       clip-path="url(#SVGID_2_)"
       stroke-miterlimit="3.86400008"
       id="path30"
       inkscape:connector-curvature="0"
       style="fill:none;stroke:#000000;stroke-width:0.083;stroke-miterlimit:3.86400008" />
  </g>
  <path
     d="m 290.48713,239.79662 c -20.08114,-0.34076 -37.68346,-11.39596 -46.93176,-27.68187 -0.83212,-1.49782 -1.12533,-3.29681 -1.12533,-5.12739 0,-4.06551 2.25865,-7.57618 5.80102,-9.28796 30.81276,-14.10624 65.07994,-21.96764 101.17722,-21.96764 35.39211,0 68.86787,7.56042 99.34714,21.14302 l -0.19813,0.0166 c 3.45526,1.64837 6.05471,5.25415 6.05471,9.45438 0,1.94158 -0.83212,4.37461 -1.75941,5.92778 -9.67637,16.46793 -27.50766,27.53089 -47.914,27.53089 -2.52014,0 -6.83917,0.0793 -6.83917,0.0793 l -107.61154,-0.0871 z"
     stroke-miterlimit="3.86400008"
     id="path34"
     inkscape:connector-curvature="0"
     style="fill:none;stroke:#000000;stroke-width:1.21250832;stroke-miterlimit:3.86400008"
     inkscape:export-filename="C:\Users\alex\sites\villarreal-cf-logo-4.png"
     inkscape:export-xdpi="92.580315"
     inkscape:export-ydpi="92.580315" />
  <path
     d="M 381.02067,205.3154 515.74665,383.38266 349.94409,607.87066 184.12661,383.00105 318.75138,205.08643 c 0,0 16.60182,-2.17138 30.685,-2.17138 11.721,0 31.58926,2.40118 31.58926,2.40118"
     id="path36"
     inkscape:connector-curvature="0"
     style="fill:#ffe667;stroke-width:1.65918696"
     inkscape:export-filename="C:\Users\alex\sites\villarreal-cf-logo-4.png"
     inkscape:export-xdpi="92.580315"
     inkscape:export-ydpi="92.580315" />
  <g
     transform="matrix(7.9248917,0,0,7.9248917,-178.84133,-1136.3445)"
     id="g60"
     inkscape:export-filename="C:\Users\alex\sites\villarreal-cf-logo-4.png"
     inkscape:export-xdpi="92.580315"
     inkscape:export-ydpi="92.580315">
    <defs
       id="defs39">
      <path
         id="SVGID_3_"
         d="m 70.647,169.3 17,22.47 -20.923,28.326 -20.923,-28.374 16.988,-22.451 c 0,0 2.095,-0.274 3.872,-0.274 1.479,0 3.986,0.303 3.986,0.303"
         inkscape:connector-curvature="0" />
    </defs>
    <clipPath
       id="SVGID_4_">
      <use
         xlink:href="#SVGID_3_"
         height="842"
         width="595"
         y="0"
         x="0"
         overflow="visible"
         id="use41"
         style="overflow:visible" />
    </clipPath>
    <polygon
       points="54.892,202 50.186,196.14 50.186,187.6 54.892,181.63 "
       clip-path="url(#SVGID_4_)"
       id="polygon44"
       style="fill:#e70005" />
    <polygon
       clip-path="url(#SVGID_4_)"
       points="54.892,202 50.186,196.14 50.186,187.6 54.892,181.63 "
       stroke-miterlimit="3.86400008"
       id="polygon46"
       style="fill:none;stroke:#e70005;stroke-width:0.296;stroke-miterlimit:3.86400008" />
    <polygon
       points="59.419,208.82 64.129,214.84 64.127,169.47 59.419,175.71 "
       clip-path="url(#SVGID_4_)"
       id="polygon48"
       style="fill:#e70005" />
    <polygon
       clip-path="url(#SVGID_4_)"
       points="59.419,208.82 64.129,214.84 64.127,169.47 59.419,175.71 "
       stroke-miterlimit="3.86400008"
       id="polygon50"
       style="fill:none;stroke:#e70005;stroke-width:0.296;stroke-miterlimit:3.86400008" />
    <polygon
       points="78.532,201.84 83.158,196.08 83.158,187.64 78.532,181.69 "
       clip-path="url(#SVGID_4_)"
       id="polygon52"
       style="fill:#e70005" />
    <polygon
       clip-path="url(#SVGID_4_)"
       points="78.532,201.84 83.158,196.08 83.158,187.64 78.532,181.69 "
       stroke-miterlimit="3.86400008"
       id="polygon54"
       style="fill:none;stroke:#e70005;stroke-width:0.296;stroke-miterlimit:3.86400008" />
    <polygon
       points="74.028,208.71 69.354,214.89 69.27,169.34 74.028,175.74 "
       clip-path="url(#SVGID_4_)"
       id="polygon56"
       style="fill:#e70005" />
    <polygon
       clip-path="url(#SVGID_4_)"
       points="74.028,208.71 69.354,214.89 69.27,169.34 74.028,175.74 "
       stroke-miterlimit="3.86400008"
       id="polygon58"
       style="fill:none;stroke:#e70005;stroke-width:0.296;stroke-miterlimit:3.86400008" />
  </g>
  <path
     d="M 381.02067,205.3154 515.74665,383.38266 349.94409,607.87066 184.12661,383.00105 318.75138,205.08643 c 0,0 16.60182,-2.17138 30.685,-2.17138 11.721,0 31.58926,2.40118 31.58926,2.40118 z"
     stroke-miterlimit="3.86400008"
     id="path62"
     inkscape:connector-curvature="0"
     style="fill:none;stroke:#005187;stroke-width:1.21250832;stroke-miterlimit:3.86400008"
     inkscape:export-filename="C:\Users\alex\sites\villarreal-cf-logo-4.png"
     inkscape:export-xdpi="92.580315"
     inkscape:export-ydpi="92.580315" />
  <path
     d="m 341.98,121.24107 c 0,-4.42206 3.58202,-8.00408 8.00408,-8.00408 4.4141,0 7.99629,3.58202 7.99629,8.00408 0,4.41411 -3.58202,8.00409 -7.99629,8.00409 -4.42206,0 -8.00408,-3.58998 -8.00408,-8.00409"
     id="path64"
     inkscape:connector-curvature="0"
     style="fill:#e70005;stroke-width:1.65918696"
     inkscape:export-filename="C:\Users\alex\sites\villarreal-cf-logo-4.png"
     inkscape:export-xdpi="92.580315"
     inkscape:export-ydpi="92.580315" />
  <path
     d="m 276.60969,129.52208 c 0,-4.4141 3.58202,-7.99629 8.00408,-7.99629 4.4141,0 8.00409,3.58202 8.00409,7.99629 0,4.42206 -3.58999,8.00408 -8.00409,8.00408 -4.42206,0 -8.00408,-3.58202 -8.00408,-8.00408"
     id="path66"
     inkscape:connector-curvature="0"
     style="fill:#e70005;stroke-width:1.65918696"
     inkscape:export-filename="C:\Users\alex\sites\villarreal-cf-logo-4.png"
     inkscape:export-xdpi="92.580315"
     inkscape:export-ydpi="92.580315" />
  <path
     d="m 407.93268,129.52208 c 0,-4.4141 3.58202,-7.99629 7.99628,-7.99629 4.42207,0 8.00409,3.58202 8.00409,7.99629 0,4.42206 -3.58202,8.00408 -8.00409,8.00408 -4.4141,0 -7.99628,-3.58202 -7.99628,-8.00408"
     id="path68"
     inkscape:connector-curvature="0"
     style="fill:#e70005;stroke-width:1.65918696"
     inkscape:export-filename="C:\Users\alex\sites\villarreal-cf-logo-4.png"
     inkscape:export-xdpi="92.580315"
     inkscape:export-ydpi="92.580315" />
  <path
     d="m 474.64859,170.76283 c 0,-4.4141 3.58202,-7.99629 7.99628,-7.99629 4.42207,0 8.00409,3.58202 8.00409,7.99629 0,4.42206 -3.58202,8.00408 -8.00409,8.00408 -4.4141,0 -7.99628,-3.58202 -7.99628,-8.00408"
     id="path70"
     inkscape:connector-curvature="0"
     style="fill:#e70005;stroke-width:1.65918696"
     inkscape:export-filename="C:\Users\alex\sites\villarreal-cf-logo-4.png"
     inkscape:export-xdpi="92.580315"
     inkscape:export-ydpi="92.580315" />
  <path
     d="m 208.52661,170.76283 c 0,-4.4141 3.58202,-7.99629 7.99629,-7.99629 4.42206,0 8.00408,3.58202 8.00408,7.99629 0,4.42206 -3.58202,8.00408 -8.00408,8.00408 -4.4141,0 -7.99629,-3.58202 -7.99629,-8.00408"
     id="path72"
     inkscape:connector-curvature="0"
     style="fill:#e70005;stroke-width:1.65918696"
     inkscape:export-filename="C:\Users\alex\sites\villarreal-cf-logo-4.png"
     inkscape:export-xdpi="92.580315"
     inkscape:export-ydpi="92.580315" />
  <polyline
     points="66.656,166.18,64.274,167.1,66.66,168.18,69.055,167.12,66.656,166.18"
     transform="matrix(7.9248917,0,0,7.9248917,-178.84133,-1136.3445)"
     id="polyline74"
     style="fill:#e70005"
     inkscape:export-filename="C:\Users\alex\sites\villarreal-cf-logo-4.png"
     inkscape:export-xdpi="92.580315"
     inkscape:export-ydpi="92.580315" />
  <polyline
     points="56.025,168.23,54.13,169.95,56.746,170.11,58.603,168.26,56.025,168.23"
     transform="matrix(7.9248917,0,0,7.9248917,-178.84133,-1136.3445)"
     id="polyline76"
     style="fill:#005187"
     inkscape:export-filename="C:\Users\alex\sites\villarreal-cf-logo-4.png"
     inkscape:export-xdpi="92.580315"
     inkscape:export-ydpi="92.580315" />
  <polyline
     points="77.236,168.23,79.131,169.95,76.514,170.11,74.658,168.26,77.236,168.23"
     transform="matrix(7.9248917,0,0,7.9248917,-178.84133,-1136.3445)"
     id="polyline78"
     style="fill:#005187"
     inkscape:export-filename="C:\Users\alex\sites\villarreal-cf-logo-4.png"
     inkscape:export-xdpi="92.580315"
     inkscape:export-ydpi="92.580315" />
  <path
     d="m 288.68027,337.1743 c -6.31619,-3.93078 -11.57034,-5.46021 -18.58455,-5.46021 -25.78045,0 -44.53755,22.48364 -44.53755,53.27151 0,29.02914 19.10719,51.95578 43.30975,51.95578 7.18793,0 12.62442,-1.5295 19.81235,-5.46022 v -29.68617 c -4.55679,4.36665 -9.12154,6.54599 -14.20147,6.54599 -11.75269,0 -19.63814,-9.8189 -19.63814,-24.23408 0,-13.53565 8.24184,-23.57705 19.28141,-23.57705 5.08773,0 9.12155,1.75144 14.55804,6.33196 v -29.68618"
     id="path80"
     inkscape:connector-curvature="0"
     style="stroke-width:1.65918696"
     inkscape:export-filename="C:\Users\alex\sites\villarreal-cf-logo-4.png"
     inkscape:export-xdpi="92.580315"
     inkscape:export-ydpi="92.580315" />
  <polyline
     points="82.419,188.21,82.419,185.41,74.948,185.41,74.948,198.49,78.332,198.49,78.332,193.11,82.047,193.11,82.047,190.31,78.332,190.31,78.332,188.21,82.419,188.21"
     transform="matrix(7.9248917,0,0,7.9248917,-178.84133,-1136.3445)"
     id="polyline82"
     inkscape:export-filename="C:\Users\alex\sites\villarreal-cf-logo-4.png"
     inkscape:export-xdpi="92.580315"
     inkscape:export-ydpi="92.580315" />
  <polyline
     points="51.246,176.19,51.245,179.74,58.275,179.73,66.61,208.63,74.661,179.73,81.953,179.73,81.953,176.19,72.037,176.19,66.697,195.7,61.318,176.19,51.246,176.19"
     transform="matrix(7.9248917,0,0,7.9248917,-178.84133,-1136.3445)"
     id="polyline84"
     inkscape:export-filename="C:\Users\alex\sites\villarreal-cf-logo-4.png"
     inkscape:export-xdpi="92.580315"
     inkscape:export-ydpi="92.580315" />
  <polygon
     points="58.448,172.87 59.216,172.82 61.316,169.76 57.782,170.77 58.499,171.9 "
     transform="matrix(7.9248917,0,0,7.9248917,-178.84133,-1136.3445)"
     id="polygon86"
     style="fill:#ffe667"
     inkscape:export-filename="C:\Users\alex\sites\villarreal-cf-logo-4.png"
     inkscape:export-xdpi="92.580315"
     inkscape:export-ydpi="92.580315" />
  <polygon
     transform="matrix(7.9248917,0,0,7.9248917,-178.84133,-1136.3445)"
     points="58.448,172.87 59.216,172.82 61.316,169.76 57.782,170.77 58.499,171.9 "
     stroke-miterlimit="3.86400008"
     id="polygon88"
     style="fill:none;stroke:#000000;stroke-width:0.141;stroke-miterlimit:3.86400008"
     inkscape:export-filename="C:\Users\alex\sites\villarreal-cf-logo-4.png"
     inkscape:export-xdpi="92.580315"
     inkscape:export-ydpi="92.580315" />
</svg>
